SplineFontDB: 3.0
FontName: Rokkitt-Medium
FullName: Rokkitt-Medium
FamilyName: Rokkitt
Weight: Regular
Copyright: 
Version: 
ItalicAngle: 0
UnderlinePosition: 0
UnderlineWidth: 0
Ascent: 1638
Descent: 410
UFOAscent: 1152
UFODescent: -410
LayerCount: 2
Layer: 0 0 "Back"  1
Layer: 1 0 "Fore"  0
FSType: 0
OS2Version: 0
OS2_WeightWidthSlopeOnly: 0
OS2_UseTypoMetrics: 1
CreationTime: 1390510937
ModificationTime: 1390528663
PfmFamily: 17
TTFWeight: 500
TTFWidth: 5
LineGap: 0
VLineGap: 0
OS2TypoAscent: 0
OS2TypoAOffset: 1
OS2TypoDescent: 0
OS2TypoDOffset: 1
OS2TypoLinegap: 0
OS2WinAscent: 0
OS2WinAOffset: 1
OS2WinDescent: 0
OS2WinDOffset: 1
HheadAscent: 0
HheadAOffset: 1
HheadDescent: 0
HheadDOffset: 1
OS2Vendor: 'NeWT'
Lookup: 258 0 0 "'kern' Horizontal Kerning in Latin lookup 0"  {"'kern' Horizontal Kerning in Latin lookup 0 subtable"  } ['kern' ('latn' <'dflt' > ) ]
MarkAttachClasses: 1
DEI: 91125
LangName: 1033 
PickledData: "(dp1
S'com.typemytype.robofont.compileSettings.generateFormat'
p2
I0
sS'com.petr.ptt'
p3
(dp4
S'originals'
p5
(dp6
S'maxp'
p7
(dp8
S'numGlyphs'
p9
I423
sS'tableTag'
p10
S'maxp'
p11
sS'tableVersion'
p12
I20480
ssssS'com.schriftgestaltung.weight'
p13
S'Light'
p14
sS'com.typemytype.robofont.compileSettings.autohint'
p15
I0
sS'GSDimensionPlugin.Dimensions'
p16
(dp17
S'1F09728C-766D-4240-AE17-E499EF32E23D'
p18
(dp19
sS'98C086B7-81AA-4491-8494-0C6A76849168'
p20
(dp21
sS'EFCDB4D9-E20B-4A8D-9DB5-150AD166B0AE'
p22
(dp23
ssS'com.typemytype.robofont.compileSettings.checkOutlines'
p24
I1
sS'com.typemytype.robofont.compileSettings.MacRomanFirst'
p25
I1
sS'com.typemytype.robofont.shouldAddPointsInSplineConversion'
p26
I1
sS'com.typemytype.robofont.compileSettings.decompose'
p27
I1
sS'com.typemytype.robofont.compileSettings.path'
p28
S'/Users/vern/Github/RokkittFont/in-progress/roman/Light/Rokkitt-Light.otf'
p29
sS'com.typemytype.robofont.layerOrder'
p30
(S'b'
tp31
sS'com.typemytype.robofont.segmentType'
p32
S'curve'
p33

StartChar: A
Encoding: 65 65 1
Width: 1382
VWidth: 0
Flags: HW
PickledData: "(dp1
S'org.robofab.postScriptHintData'
p2
(dp3
sS'com.typemytype.robofont.layerData'
p4
(dp5
S'b'
(dp6
S'name'
p7
S'A'
sS'lib'
p8
(dp9
sS'unicodes'
p10
(tsS'width'
p11
I1383
sS'contours'
p12
(tsS'components'
p13
(tsS'anchors'
p14
(tsss."
AnchorPoint: "top" 692 1152 basechar 0
LayerCount: 2
Fore
SplineSet
499 546 m 1
 679 1056 l 1
 690 1056 l 1
 869 546 l 1
 499 546 l 1
65 0 m 1
 499 0 l 1
 499 94 l 1
 345 94 l 1
 472 453 l 1
 896 453 l 1
 1024 94 l 1
 872 94 l 1
 872 0 l 1
 1317 0 l 1
 1317 94 l 1
 1174 94 l 1
 818 1059 l 1
 954 1059 l 1
 954 1152 l 1
 429 1152 l 1
 429 1059 l 1
 562 1059 l 1
 212 94 l 1
 65 94 l 1
 65 0 l 1
EndSplineSet
EndChar

StartChar: AE
Encoding: 198 198 2
Width: 2038
VWidth: 0
Flags: HW
PickledData: "(dp1
S'org.robofab.postScriptHintData'
p2
(dp3
sS'com.typemytype.robofont.layerData'
p4
(dp5
S'b'
(dp6
S'name'
p7
S'AE'
p8
sS'lib'
p9
(dp10
sS'unicodes'
p11
(tsS'width'
p12
I2243
sS'contours'
p13
(tsS'components'
p14
(tsS'anchors'
p15
(tsss."
AnchorPoint: "top" 1202 1152 basechar 0
LayerCount: 2
Fore
SplineSet
70 0 m 257
 525 0 l 257
 525 94 l 257
 382 94 l 257
 571 424 l 257
 1003 424 l 257
 1032 94 l 257
 874 94 l 257
 874 0 l 257
 1901 0 l 257
 1872 373 l 257
 1762 373 l 257
 1787 94 l 257
 1174 94 l 257
 1138 534 l 257
 1520 534 l 257
 1538 381 l 257
 1611 381 l 257
 1577 776 l 257
 1503 776 l 257
 1517 632 l 257
 1134 632 l 257
 1097 1059 l 257
 1684 1059 l 257
 1709 782 l 257
 1819 782 l 257
 1792 1152 l 257
 684 1152 l 257
 684 1059 l 257
 813 1059 l 257
 231 94 l 257
 70 94 l 257
 70 0 l 257
617 512 m 257
 939 1059 l 257
 956 1059 l 257
 1002 512 l 257
 617 512 l 257
EndSplineSet
EndChar

StartChar: B
Encoding: 66 66 14
Width: 1213
VWidth: 0
Flags: HW
PickledData: "(dp1
S'org.robofab.postScriptHintData'
p2
(dp3
sS'com.typemytype.robofont.layerData'
p4
(dp5
S'b'
(dp6
S'name'
p7
S'B'
sS'lib'
p8
(dp9
sS'unicodes'
p10
(tsS'width'
p11
I1354
sS'contours'
p12
((dp13
S'points'
p14
((dp15
S'segmentType'
p16
S'line'
p17
sS'x'
I353
sS'smooth'
p18
I0
sS'y'
I1095
s(dp19
g16
S'line'
p20
sS'x'
I740
sg18
I1
sS'y'
I1095
s(dp21
S'y'
I1095
sS'x'
I917
sg18
I0
s(dp22
S'y'
I983
sS'x'
I1004
sg18
I0
s(dp23
g16
S'curve'
p24
sS'x'
I1004
sg18
I1
sS'y'
I868
s(dp25
S'y'
I751
sS'x'
I1004
sg18
I0
s(dp26
S'y'
I634
sS'x'
I928
sg18
I0
s(dp27
g16
S'curve'
p28
sS'x'
I784
sg18
I1
sS'y'
I634
s(dp29
g16
S'line'
p30
sS'x'
I353
sg18
I0
sS'y'
I634
stp31
s(dp32
g14
((dp33
g16
S'line'
p34
sS'x'
I353
sg18
I0
sS'y'
I573
s(dp35
g16
S'line'
p36
sS'x'
I793
sg18
I1
sS'y'
I573
s(dp37
S'y'
I573
sS'x'
I979
sg18
I0
s(dp38
S'y'
I439
sS'x'
I1072
sg18
I0
s(dp39
g16
S'curve'
p40
sS'x'
I1072
sg18
I1
sS'y'
I320
s(dp41
S'y'
I187
sS'x'
I1072
sg18
I0
s(dp42
S'y'
I58
sS'x'
I985
sg18
I0
s(dp43
g16
S'curve'
p44
sS'x'
I807
sg18
I1
sS'y'
I58
s(dp45
g16
S'line'
p46
sS'x'
I353
sg18
I0
sS'y'
I58
stp47
s(dp48
g14
((dp49
g16
S'line'
p50
sS'x'
I807
sg18
I1
sS'y'
I0
s(dp51
S'y'
I0
sS'x'
I1031
sg18
I0
s(dp52
S'y'
I158
sS'x'
I1146
sg18
I0
s(dp53
g16
S'curve'
p54
sS'x'
I1146
sg18
I1
sS'y'
I316
s(dp55
S'y'
I439
sS'x'
I1146
sg18
I0
s(dp56
S'y'
I568
sS'x'
I1074
sg18
I0
s(dp57
g16
S'curve'
p58
sS'x'
I919
sg18
I0
sS'y'
I611
s(dp59
S'y'
I669
sS'x'
I1029
sg18
I0
s(dp60
S'y'
I769
sS'x'
I1079
sg18
I0
s(dp61
g16
S'curve'
p62
sS'x'
I1079
sg18
I1
sS'y'
I870
s(dp63
S'y'
I1012
sS'x'
I1079
sg18
I0
s(dp64
S'y'
I1154
sS'x'
I964
sg18
I0
s(dp65
g16
S'curve'
p66
sS'x'
I740
sg18
I1
sS'y'
I1154
s(dp67
g16
S'line'
p68
sS'x'
I122
sg18
I0
sS'y'
I1154
s(dp69
g16
S'line'
p70
sS'x'
I122
sg18
I0
sS'y'
I1095
s(dp71
g16
S'line'
p72
sS'x'
I278
sg18
I0
sS'y'
I1095
s(dp73
g16
S'line'
p74
sS'x'
I278
sg18
I0
sS'y'
I58
s(dp75
g16
S'line'
p76
sS'x'
I135
sg18
I0
sS'y'
I58
s(dp77
g16
S'line'
p78
sS'x'
I135
sg18
I0
sS'y'
I0
stp79
stp80
sS'components'
p81
(tsS'anchors'
p82
(tsss."
AnchorPoint: "top" 537 1152 basechar 0
LayerCount: 2
Fore
SplineSet
681 1152 m 2
 90 1152 l 1
 90 1059 l 1
 254 1059 l 1
 254 93 l 1
 90 93 l 1
 90 0 l 1
 736 0 l 2
 1015 0 1124 154 1124 324 c 0
 1124 460 1051 576 887 613 c 1
 993 645 1061 738 1061 867 c 0
 1061 1055 928 1152 681 1152 c 2
396 1059 m 1
 478.333333333 1059 560.666666667 1059 643 1059 c 0
 834 1059 921 1004 921 862 c 0
 921 736 853 654 686 654 c 2
 396 654 l 1
 396 1059 l 1
396 557 m 1
 701 557 l 2
 893 557 980 461 980 329 c 0
 980 183 896 94 712 94 c 2
 396 94 l 1
 396 557 l 1
EndSplineSet
EndChar

StartChar: C
Encoding: 67 67 16
Width: 1372
VWidth: 0
Flags: HW
PickledData: "(dp1
S'org.robofab.postScriptHintData'
p2
(dp3
sS'com.typemytype.robofont.layerData'
p4
(dp5
S'b'
(dp6
S'name'
p7
S'C'
sS'lib'
p8
(dp9
sS'unicodes'
p10
(tsS'width'
p11
I1411
sS'contours'
p12
(tsS'components'
p13
(tsS'anchors'
p14
(tsss."
AnchorPoint: "bot" 696 0 basechar 0
AnchorPoint: "top" 716 1152 basechar 0
LayerCount: 2
Fore
SplineSet
706 -22 m 0
 939 -21 1141 59 1244 298 c 1
 1142 351 l 1
 1061 154 889 83 714 83 c 0
 458 83 247 269 247 579 c 0
 247 849 425 1068 715 1068 c 0
 912 1068 1040 988 1129 804 c 1
 1226 811 l 1
 1226 1154 l 1
 1118 1154 l 1
 1118 977 l 1
 1030 1097 906 1173 707 1173 c 0
 342 1173 104 919 104 579 c 0
 104 209 366 -21 706 -22 c 0
EndSplineSet
EndChar

StartChar: D
Encoding: 68 68 23
Width: 1408
VWidth: 0
Flags: HW
PickledData: "(dp1
S'org.robofab.postScriptHintData'
p2
(dp3
sS'com.typemytype.robofont.layerData'
p4
(dp5
S'b'
(dp6
S'name'
p7
S'D'
sS'lib'
p8
(dp9
sS'unicodes'
p10
(tsS'width'
p11
I1434
sS'contours'
p12
(tsS'components'
p13
(tsS'anchors'
p14
(tsss."
AnchorPoint: "top" 611 1152 basechar 0
LayerCount: 2
Fore
SplineSet
177 93 m 1
 92 93 l 1
 92 0 l 1
 735 0 l 2
 1112 0 1301 262 1301 584 c 0
 1301 860 1120 1152 732 1152 c 2
 92 1152 l 1
 92 1059 l 1
 146.666666667 1059 201.333333333 1059 256 1059 c 1
 256 94 l 1
 177 94 l 1
 177 93 l 1
398 1059 m 1
 507.666666667 1059 617.333333333 1059 727 1059 c 0
 1022 1059 1156 818 1156 581 c 0
 1156 319 1024 94 720 94 c 2
 398 94 l 1
 398 1059 l 1
EndSplineSet
EndChar

StartChar: Delta
Encoding: 916 916 27
Width: 1167
VWidth: 0
Flags: HW
PickledData: "(dp1
S'org.robofab.postScriptHintData'
p2
(dp3
s."
LayerCount: 2
Fore
SplineSet
84 0 m 257
 1083 0 l 257
 1083 58 l 257
 637 1152 l 257
 515 1152 l 257
 84 58 l 257
 84 0 l 257
207 96 m 257
 559 1016 l 257
 922 96 l 257
 207 96 l 257
EndSplineSet
EndChar

StartChar: E
Encoding: 69 69 30
Width: 1198
VWidth: 0
Flags: HW
PickledData: "(dp1
S'org.robofab.postScriptHintData'
p2
(dp3
sS'com.typemytype.robofont.layerData'
p4
(dp5
S'b'
(dp6
S'name'
p7
S'E'
sS'lib'
p8
(dp9
sS'unicodes'
p10
(tsS'width'
p11
I1227
sS'contours'
p12
(tsS'components'
p13
(tsS'anchors'
p14
(tsss."
AnchorPoint: "bot" 636 0 basechar 0
AnchorPoint: "top" 642 1152 basechar 0
LayerCount: 2
Fore
SplineSet
968 814 m 1
 1079 814 l 1
 1079 1152 l 1
 90 1152 l 1
 90 1059 l 1
 254 1059 l 1
 254 93 l 1
 90 93 l 1
 90 0 l 1
 1092 0 l 1
 1092 345 l 1
 981 345 l 1
 981 94 l 1
 396 94 l 1
 396 545 l 1
 769 545 l 1
 769 399 l 1
 843 399 l 1
 843 787 l 1
 769 787 l 1
 769 644 l 1
 396 644 l 1
 396 1059 l 1
 586.666666667 1059 777.333333333 1059 968 1059 c 1
 968 814 l 1
EndSplineSet
EndChar

StartChar: Eng
Encoding: 330 330 39
Width: 1442
VWidth: 0
Flags: HW
PickledData: "(dp1
S'org.robofab.postScriptHintData'
p2
(dp3
s."
LayerCount: 2
Fore
SplineSet
815 -381 m 257
 1052 -381 1230 -284 1230 -25 c 258
 1230 200 l 257
 1118 200 l 257
 1119 -36 l 258
 1120 -204 1014 -286 817 -286 c 257
 815 -381 l 257
EndSplineSet
Refer: 79 78 N 1 0 0 1 0 0 2
EndChar

StartChar: Euro
Encoding: 8364 8364 42
Width: 1370
VWidth: 0
Flags: HW
PickledData: "(dp1
S'org.robofab.postScriptHintData'
p2
(dp3
s."
LayerCount: 2
Fore
SplineSet
-25 417 m 257
 602 417 l 257
 636 499 l 257
 9 499 l 257
 -25 417 l 257
-25 635 m 257
 602 635 l 257
 636 717 l 257
 9 717 l 257
 -25 635 l 257
EndSplineSet
Refer: 16 67 N 1 0 0 1 0 0 2
EndChar

StartChar: F
Encoding: 70 70 43
Width: 1124
VWidth: 0
Flags: HW
PickledData: "(dp1
S'org.robofab.postScriptHintData'
p2
(dp3
sS'com.typemytype.robofont.layerData'
p4
(dp5
S'b'
(dp6
S'name'
p7
S'F'
sS'lib'
p8
(dp9
sS'unicodes'
p10
(tsS'width'
p11
I1177
sS'contours'
p12
((dp13
S'points'
p14
((dp15
S'segmentType'
p16
S'line'
p17
sS'x'
I990
sS'smooth'
p18
I0
sS'y'
I1086
s(dp19
g16
S'line'
p20
sS'x'
I990
sg18
I0
sS'y'
I802
s(dp21
g16
S'line'
p22
sS'x'
I1062
sg18
I0
sS'y'
I802
s(dp23
g16
S'line'
p24
sS'x'
I1062
sg18
I0
sS'y'
I1152
s(dp25
g16
S'line'
p26
sS'x'
I122
sg18
I0
sS'y'
I1152
s(dp27
g16
S'line'
p28
sS'x'
I122
sg18
I0
sS'y'
I1086
s(dp29
g16
S'line'
p30
sS'x'
I286
sg18
I0
sS'y'
I1086
s(dp31
g16
S'line'
p32
sS'x'
I286
sg18
I0
sS'y'
I1039
s(dp33
g16
S'line'
p34
sS'x'
I363
sg18
I0
sS'y'
I1039
s(dp35
g16
S'line'
p36
sS'x'
I363
sg18
I0
sS'y'
I1086
stp37
s(dp38
g14
((dp39
g16
S'line'
p40
sS'x'
I286
sg18
I0
sS'y'
I1039
s(dp41
g16
S'line'
p42
sS'x'
I286
sg18
I0
sS'y'
I677
s(dp43
g16
S'line'
p44
sS'x'
I363
sg18
I0
sS'y'
I677
s(dp45
g16
S'line'
p46
sS'x'
I363
sg18
I0
sS'y'
I1039
stp47
s(dp48
g14
((dp49
g16
S'line'
p50
sS'x'
I286
sg18
I0
sS'y'
I677
s(dp51
g16
S'line'
p52
sS'x'
I286
sg18
I0
sS'y'
I65
s(dp53
g16
S'line'
p54
sS'x'
I122
sg18
I0
sS'y'
I65
s(dp55
g16
S'line'
p56
sS'x'
I122
sg18
I0
sS'y'
I0
s(dp57
g16
S'line'
p58
sS'x'
I552
sg18
I0
sS'y'
I0
s(dp59
g16
S'line'
p60
sS'x'
I552
sg18
I0
sS'y'
I65
s(dp61
g16
S'line'
p62
sS'x'
I363
sg18
I0
sS'y'
I65
s(dp63
g16
S'line'
p64
sS'x'
I363
sg18
I0
sS'y'
I539
s(dp65
g16
S'line'
p66
sS'x'
I824
sg18
I0
sS'y'
I539
s(dp67
g16
S'line'
p68
sS'x'
I824
sg18
I0
sS'y'
I378
s(dp69
g16
S'line'
p70
sS'x'
I886
sg18
I0
sS'y'
I378
s(dp71
g16
S'line'
p72
sS'x'
I886
sg18
I0
sS'y'
I764
s(dp73
g16
S'line'
p74
sS'x'
I824
sg18
I0
sS'y'
I764
s(dp75
g16
S'line'
p76
sS'x'
I824
sg18
I0
sS'y'
I601
s(dp77
g16
S'line'
p78
sS'x'
I363
sg18
I0
sS'y'
I601
s(dp79
g16
S'line'
p80
sS'x'
I363
sg18
I0
sS'y'
I677
stp81
stp82
sS'components'
p83
(tsS'anchors'
p84
(tsss."
AnchorPoint: "top" 620 1152 basechar 0
LayerCount: 2
Fore
SplineSet
957 801 m 1
 1067 801 l 1
 1067 1152 l 1
 90 1152 l 1
 90 1059 l 1
 254 1059 l 1
 254 93 l 1
 90 93 l 1
 90 0 l 1
 559 0 l 1
 559 93 l 1
 396 93 l 1
 396 548 l 1
 775 548 l 1
 775 403 l 1
 850 403 l 1
 850 781 l 1
 775 781 l 1
 775 647 l 1
 396 647 l 1
 396 1059 l 1
 583 1059 770 1059 957 1059 c 1
 957 801 l 1
EndSplineSet
EndChar

StartChar: G
Encoding: 71 71 45
Width: 1400
VWidth: 0
Flags: HW
PickledData: "(dp1
S'org.robofab.postScriptHintData'
p2
(dp3
sS'com.typemytype.robofont.layerData'
p4
(dp5
S'b'
(dp6
S'name'
p7
S'G'
sS'lib'
p8
(dp9
sS'unicodes'
p10
(tsS'width'
p11
I1394
sS'contours'
p12
(tsS'components'
p13
(tsS'anchors'
p14
(tsss."
AnchorPoint: "bot" 711 0 basechar 0
AnchorPoint: "top" 717 1152 basechar 0
LayerCount: 2
Fore
SplineSet
725 -20 m 0
 1017 -20 1294 119 1296 574 c 1
 911 574 l 1
 911 475 l 1
 1155 475 l 1
 1150 193 943 88 731 85 c 0
 438 85 255 279 255 588 c 0
 255 884 437 1069 727 1069 c 0
 915 1069 1066 977 1142 807 c 1
 1242 807 l 1
 1242 1154 l 1
 1127 1154 l 1
 1127 995 l 1
 1037 1107 895 1174 723 1174 c 0
 354 1174 103 948 103 588 c 0
 103 214 348 -20 725 -20 c 0
EndSplineSet
EndChar

StartChar: H
Encoding: 72 72 52
Width: 1444
VWidth: 0
Flags: HW
PickledData: "(dp1
S'org.robofab.postScriptHintData'
p2
(dp3
sS'com.typemytype.robofont.layerData'
p4
(dp5
S'b'
(dp6
S'name'
p7
S'H'
sS'lib'
p8
(dp9
sS'unicodes'
p10
(tsS'width'
p11
I1506
sS'contours'
p12
(tsS'components'
p13
(tsS'anchors'
p14
(tsss."
AnchorPoint: "bot" 718 0 basechar 0
AnchorPoint: "top" 726 1152 basechar 0
LayerCount: 2
Fore
SplineSet
90 0 m 1
 559 0 l 1
 559 93 l 1
 396 93 l 1
 396 540 l 1
 1049 540 l 1
 1049 93 l 1
 885 93 l 1
 885 0 l 1
 1354 0 l 1
 1354 93 l 1
 1191 93 l 1
 1191 1059 l 1
 1354 1059 l 1
 1354 1152 l 1
 885 1152 l 1
 885 1059 l 1
 1049 1059 l 1
 1049 641 l 1
 396 641 l 1
 396 1059 l 1
 559 1059 l 1
 559 1152 l 1
 90 1152 l 1
 90 1059 l 1
 254 1059 l 1
 254 93 l 1
 90 93 l 1
 90 0 l 1
EndSplineSet
EndChar

StartChar: Hbar
Encoding: 294 294 53
Width: 1428
VWidth: 0
Flags: HW
PickledData: "(dp1
S'org.robofab.postScriptHintData'
p2
(dp3
sS'com.typemytype.robofont.layerData'
p4
(dp5
S'b'
(dp6
S'name'
p7
S'Hbar'
p8
sS'lib'
p9
(dp10
sS'unicodes'
p11
(tsS'width'
p12
I1471
sS'contours'
p13
(tsS'components'
p14
(tsS'anchors'
p15
(tsss."
LayerCount: 2
Fore
SplineSet
129 812 m 257
 1319 812 l 257
 1319 887 l 257
 129 887 l 257
 129 812 l 257
EndSplineSet
Refer: 52 72 N 1 0 0 1 0 0 2
EndChar

StartChar: I
Encoding: 73 73 55
Width: 680
VWidth: 0
Flags: HW
PickledData: "(dp1
S'org.robofab.postScriptHintData'
p2
(dp3
sS'com.typemytype.robofont.layerData'
p4
(dp5
S'b'
(dp6
S'name'
p7
S'I'
sS'lib'
p8
(dp9
sS'unicodes'
p10
(tsS'width'
p11
I626
sS'contours'
p12
(tsS'components'
p13
(tsS'anchors'
p14
(tsss."
AnchorPoint: "top" 342 1152 basechar 0
LayerCount: 2
Fore
SplineSet
105 0 m 1
 574 0 l 1
 574 93 l 1
 411 93 l 1
 411 1059 l 1
 574 1059 l 1
 574 1152 l 1
 105 1152 l 1
 105 1059 l 1
 269 1059 l 1
 269 93 l 1
 105 93 l 1
 105 0 l 1
EndSplineSet
EndChar

StartChar: J
Encoding: 74 74 66
Width: 645
VWidth: 0
Flags: HW
PickledData: "(dp1
S'org.robofab.postScriptHintData'
p2
(dp3
sS'com.typemytype.robofont.layerData'
p4
(dp5
S'b'
(dp6
S'name'
p7
S'J'
sS'lib'
p8
(dp9
sS'unicodes'
p10
(tsS'width'
p11
I551
sS'contours'
p12
(tsS'components'
p13
(tsS'anchors'
p14
(tsss."
AnchorPoint: "top" 382 1152 basechar 0
LayerCount: 2
Fore
SplineSet
75 -182 m 1
 217 -182 l 2
 387 -182 451 -98 451 99 c 2
 451 1059 l 1
 595 1059 l 1
 595 1152 l 1
 158 1152 l 1
 158 1059 l 1
 309 1059 l 1
 309 100 l 2
 309 -8 294 -70 199 -70 c 2
 75 -70 l 1
 75 -182 l 1
EndSplineSet
EndChar

StartChar: K
Encoding: 75 75 68
Width: 1298
VWidth: 0
Flags: HW
PickledData: "(dp1
S'org.robofab.postScriptHintData'
p2
(dp3
sS'com.typemytype.robofont.guides'
p4
((dp5
S'y'
I593
sS'x'
I467
sS'magnetic'
p6
I5
sS'angle'
p7
I0
sS'isGlobal'
p8
I0
stp9
sS'com.typemytype.robofont.layerData'
p10
(dp11
S'b'
(dp12
S'name'
p13
S'K'
sS'lib'
p14
(dp15
sS'unicodes'
p16
(tsS'width'
p17
I1304
sS'contours'
p18
(tsS'components'
p19
(tsS'anchors'
p20
(tsss."
AnchorPoint: "bot" 656 0 basechar 0
AnchorPoint: "top" 653 1152 basechar 0
LayerCount: 2
Fore
SplineSet
765 0 m 1
 1235 0 l 1
 1235 94 l 1
 1078 94 l 1
 543 583 l 1
 1063 1059 l 1
 1218 1059 l 1
 1218 1152 l 1
 759 1152 l 1
 759 1059 l 1
 897 1059 l 1
 396 601 l 1
 396 1059 l 1
 559 1059 l 1
 559 1152 l 1
 90 1152 l 1
 90 1059 l 1
 254 1059 l 1
 254 93 l 1
 90 93 l 1
 90 0 l 1
 559 0 l 1
 559 93 l 1
 396 93 l 1
 396 555 l 1
 903 94 l 1
 765 94 l 1
 765 0 l 1
EndSplineSet
EndChar

StartChar: L
Encoding: 76 76 70
Width: 1071
VWidth: 0
Flags: HW
PickledData: "(dp1
S'org.robofab.postScriptHintData'
p2
(dp3
sS'com.typemytype.robofont.layerData'
p4
(dp5
S'b'
(dp6
S'name'
p7
S'L'
sS'lib'
p8
(dp9
sS'unicodes'
p10
(tsS'width'
p11
I1055
sS'contours'
p12
(tsS'components'
p13
(tsS'anchors'
p14
(tsss."
AnchorPoint: "bot" 583 0 basechar 0
AnchorPoint: "caron.alt" 637 804 basechar 0
AnchorPoint: "top" 736 1152 basechar 0
LayerCount: 2
Fore
SplineSet
396 94 m 1
 396 1059 l 1
 559 1059 l 1
 559 1152 l 1
 90 1152 l 1
 90 1059 l 1
 254 1059 l 1
 254 93 l 1
 90 93 l 1
 90 0 l 1
 1018 0 l 1
 1018 441 l 1
 902 441 l 1
 902 94 l 1
 396 94 l 1
EndSplineSet
EndChar

StartChar: Lslash
Encoding: 321 321 76
Width: 1213
VWidth: 0
Flags: HW
PickledData: "(dp1
S'org.robofab.postScriptHintData'
p2
(dp3
sS'com.typemytype.robofont.layerData'
p4
(dp5
S'b'
(dp6
S'name'
p7
S'Lslash'
p8
sS'lib'
p9
(dp10
sS'unicodes'
p11
(tsS'width'
p12
I1243
sS'contours'
p13
(tsS'components'
p14
(tsS'anchors'
p15
(tsss."
LayerCount: 2
Fore
SplineSet
126 413 m 257
 613 690 l 257
 613 789 l 257
 126 506 l 257
 126 413 l 257
EndSplineSet
Refer: 70 76 N 1 0 0 1 0 0 2
EndChar

StartChar: M
Encoding: 77 77 77
Width: 1671
VWidth: 0
Flags: HW
PickledData: "(dp1
S'org.robofab.postScriptHintData'
p2
(dp3
sS'com.typemytype.robofont.layerData'
p4
(dp5
S'b'
(dp6
S'name'
p7
S'M'
sS'lib'
p8
(dp9
sS'unicodes'
p10
(tsS'width'
p11
I1606
sS'contours'
p12
(tsS'components'
p13
(tsS'anchors'
p14
(tsss."
AnchorPoint: "top" 830 1152 basechar 0
LayerCount: 2
Fore
SplineSet
97 0 m 1
 511 0 l 1
 511 94 l 1
 360 94 l 1
 360 1024 l 1
 807 69 l 1
 851 69 l 1
 1288 1024 l 1
 1288 94 l 1
 1136 94 l 1
 1136 0 l 1
 1580 0 l 1
 1580 94 l 1
 1424 94 l 1
 1424 1059 l 1
 1579 1059 l 1
 1579 1152 l 1
 1222 1152 l 1
 844 314 l 1
 448 1152 l 1
 97 1152 l 1
 97 1059 l 1
 252 1059 l 1
 252 94 l 1
 97 94 l 1
 97 0 l 1
EndSplineSet
EndChar

StartChar: N
Encoding: 78 78 79
Width: 1442
VWidth: 0
Flags: HW
PickledData: "(dp1
S'org.robofab.postScriptHintData'
p2
(dp3
sS'com.typemytype.robofont.layerData'
p4
(dp5
S'b'
(dp6
S'name'
p7
S'N'
sS'lib'
p8
(dp9
sS'unicodes'
p10
(tsS'width'
p11
I1444
sS'contours'
p12
(tsS'components'
p13
(tsS'anchors'
p14
(tsss."
AnchorPoint: "bot" 717 0 basechar 0
AnchorPoint: "top" 719 1152 basechar 0
LayerCount: 2
Fore
SplineSet
94 0 m 1
 526 0 l 1
 526 94 l 1
 365 94 l 1
 365 1000 l 1
 1089 0 l 1
 1230 0 l 1
 1230 1059 l 1
 1383 1059 l 1
 1383 1152 l 1
 957 1152 l 1
 957 1059 l 1
 1118 1059 l 1
 1118 190 l 1
 417 1152 l 1
 94 1152 l 1
 94 1059 l 1
 254 1059 l 1
 254 94 l 1
 94 94 l 1
 94 0 l 1
EndSplineSet
EndChar

StartChar: O
Encoding: 79 79 86
Width: 1453
VWidth: 0
Flags: HW
PickledData: "(dp1
S'org.robofab.postScriptHintData'
p2
(dp3
sS'com.typemytype.robofont.layerData'
p4
(dp5
S'b'
(dp6
S'name'
p7
S'O'
sS'lib'
p8
(dp9
sS'unicodes'
p10
(tsS'width'
p11
I1456
sS'contours'
p12
(tsS'components'
p13
(tsS'anchors'
p14
(tsss."
AnchorPoint: "top" 724 1152 basechar 0
LayerCount: 2
Fore
SplineSet
726 -22 m 0
 1113 -22 1346 258 1346 573 c 0
 1346 887 1112 1174 725 1174 c 0
 340 1174 107 888 107 573 c 0
 107 259 339 -22 726 -22 c 0
725 83 m 0
 427 83 258 313 258 572 c 0
 258 829 428 1070 726 1070 c 0
 1021 1070 1194 829 1194 573 c 0
 1194 318 1020 83 725 83 c 0
EndSplineSet
EndChar

StartChar: OE
Encoding: 338 338 87
Width: 2005
VWidth: 0
Flags: HW
PickledData: "(dp1
S'org.robofab.postScriptHintData'
p2
(dp3
sS'com.typemytype.robofont.layerData'
p4
(dp5
S'b'
(dp6
S'name'
p7
S'OE'
p8
sS'lib'
p9
(dp10
sS'unicodes'
p11
(tsS'width'
p12
I1953
sS'contours'
p13
(tsS'components'
p14
(tsS'anchors'
p15
(tsss."
LayerCount: 2
Fore
SplineSet
793 0 m 258
 1886 0 l 257
 1886 365 l 257
 1775 365 l 257
 1775 94 l 257
 1185 94 l 257
 1185 533 l 257
 1573 533 l 257
 1573 384 l 257
 1647 384 l 257
 1647 771 l 257
 1573 771 l 257
 1573 630 l 257
 1185 630 l 257
 1185 1058 l 257
 1761 1058 l 257
 1761 802 l 257
 1871 802 l 257
 1871 1152 l 257
 793 1152 l 258
 394 1152 149 934 148 577 c 256
 149 219 395 0 793 0 c 258
803 94 m 258
 492 94 300 278 300 577 c 256
 300 877 494 1058 801 1058 c 258
 1044 1058 l 257
 1044 94 l 257
 803 94 l 258
EndSplineSet
EndChar

StartChar: Omega
Encoding: 937 937 95
Width: 1426
VWidth: 0
Flags: HW
PickledData: "(dp1
S'org.robofab.postScriptHintData'
p2
(dp3
s."
LayerCount: 2
Fore
SplineSet
141 0 m 257
 598 0 l 257
 598 92 l 257
 379 204 276 423 276 623 c 256
 276 856 423 1066 713 1066 c 256
 1002 1066 1149 855 1149 622 c 256
 1149 423 1047 204 828 92 c 257
 828 0 l 257
 1285 0 l 257
 1285 94 l 257
 983 94 l 257
 1195 221 1293 428 1293 624 c 256
 1293 907 1085 1174 713 1174 c 256
 343 1174 133 906 133 623 c 256
 133 427 232 221 443 94 c 257
 141 94 l 257
 141 0 l 257
EndSplineSet
EndChar

StartChar: Oslash
Encoding: 216 216 96
Width: 1515
VWidth: 0
Flags: HW
PickledData: "(dp1
S'org.robofab.postScriptHintData'
p2
(dp3
sS'com.typemytype.robofont.layerData'
p4
(dp5
S'b'
(dp6
S'name'
p7
S'Oslash'
p8
sS'lib'
p9
(dp10
sS'unicodes'
p11
(tsS'width'
p12
I1598
sS'contours'
p13
(tsS'components'
p14
(tsS'anchors'
p15
(tsss."
LayerCount: 2
Fore
SplineSet
286 -74 m 257
 1258 1171 l 257
 1192 1218 l 257
 218 -26 l 257
 286 -74 l 257
EndSplineSet
Refer: 86 79 N 1 0 0 1 4 -4 2
EndChar

StartChar: P
Encoding: 80 80 99
Width: 1167
VWidth: 0
Flags: HW
PickledData: "(dp1
S'org.robofab.postScriptHintData'
p2
(dp3
sS'com.typemytype.robofont.layerData'
p4
(dp5
S'b'
(dp6
S'name'
p7
S'P'
sS'lib'
p8
(dp9
sS'unicodes'
p10
(tsS'width'
p11
I1226
sS'contours'
p12
((dp13
S'points'
p14
((dp15
S'segmentType'
p16
S'line'
p17
sS'x'
I353
sS'smooth'
p18
I0
sS'y'
I1095
s(dp19
g16
S'line'
p20
sS'x'
I759
sg18
I1
sS'y'
I1095
s(dp21
S'y'
I1095
sS'x'
I936
sg18
I0
s(dp22
S'y'
I960
sS'x'
I1024
sg18
I0
s(dp23
g16
S'curve'
p24
sS'x'
I1024
sg18
I1
sS'y'
I823
s(dp25
S'y'
I683
sS'x'
I1024
sg18
I0
s(dp26
S'y'
I544
sS'x'
I934
sg18
I0
s(dp27
g16
S'curve'
p28
sS'x'
I759
sg18
I1
sS'y'
I544
s(dp29
g16
S'line'
p30
sS'x'
I353
sg18
I0
sS'y'
I544
stp31
s(dp32
g14
((dp33
g16
S'line'
p34
sS'x'
I135
sg18
I0
sS'y'
I0
s(dp35
g16
S'line'
p36
sS'x'
I512
sg18
I0
sS'y'
I0
s(dp37
g16
S'line'
p38
sS'x'
I512
sg18
I0
sS'y'
I58
s(dp39
g16
S'line'
p40
sS'x'
I353
sg18
I0
sS'y'
I58
s(dp41
g16
S'line'
p42
sS'x'
I353
sg18
I0
sS'y'
I483
s(dp43
g16
S'line'
p44
sS'x'
I759
sg18
I1
sS'y'
I483
s(dp45
S'y'
I483
sS'x'
I984
sg18
I0
s(dp46
S'y'
I656
sS'x'
I1098
sg18
I0
s(dp47
g16
S'curve'
p48
sS'x'
I1098
sg18
I1
sS'y'
I826
s(dp49
S'y'
I989
sS'x'
I1098
sg18
I0
s(dp50
S'y'
I1154
sS'x'
I984
sg18
I0
s(dp51
g16
S'curve'
p52
sS'x'
I759
sg18
I1
sS'y'
I1154
s(dp53
g16
S'line'
p54
sS'x'
I122
sg18
I0
sS'y'
I1154
s(dp55
g16
S'line'
p56
sS'x'
I122
sg18
I0
sS'y'
I1095
s(dp57
g16
S'line'
p58
sS'x'
I278
sg18
I0
sS'y'
I1095
s(dp59
g16
S'line'
p60
sS'x'
I278
sg18
I0
sS'y'
I58
s(dp61
g16
S'line'
p62
sS'x'
I135
sg18
I0
sS'y'
I58
stp63
stp64
sS'components'
p65
(tsS'anchors'
p66
(tsss."
AnchorPoint: "top" 612 1152 basechar 0
LayerCount: 2
Fore
SplineSet
478 482 m 1
 664 482 l 2
 933 482 1079 606 1079 831 c 0
 1079 1038 935 1152 670 1152 c 2
 90 1152 l 1
 90 1059 l 1
 254 1059 l 1
 254 93 l 1
 90 93 l 1
 90 0 l 1
 559 0 l 1
 559 93 l 1
 396 93 l 1
 396 1059 l 1
 492.333333333 1059 588.666666667 1059 685 1059 c 0
 844 1059 933 977 933 830 c 0
 933 667 837 575 659 575 c 2
 478 575 l 1
 478 482 l 1
EndSplineSet
EndChar

StartChar: Q
Encoding: 81 81 101
Width: 1445
VWidth: 0
Flags: HW
PickledData: "(dp1
S'org.robofab.postScriptHintData'
p2
(dp3
sS'com.typemytype.robofont.layerData'
p4
(dp5
S'b'
(dp6
S'name'
p7
S'Q'
sS'lib'
p8
(dp9
sS'unicodes'
p10
(tsS'width'
p11
I1438
sS'contours'
p12
(tsS'components'
p13
(tsS'anchors'
p14
(tsss."
LayerCount: 2
Fore
SplineSet
1186 -241 m 257
 1181 -147 l 257
 1138.24308157 -158.375693893 1100.71781356 -163.558036936 1067.21702244 -163.558036936 c 0
 929.911012429 -163.558036936 860.209938747 -76.5027550672 775 28 c 257
 651 29 l 257
 767.424675813 -145.637013719 890.571581906 -257.757285827 1063.98159505 -257.757285827 c 0
 1102.07504279 -257.757285827 1142.59399205 -252.346798759 1186 -241 c 257
EndSplineSet
Refer: 86 79 N 1 0 0 1 0 0 2
EndChar

StartChar: R
Encoding: 82 82 102
Width: 1272
VWidth: 0
Flags: HW
PickledData: "(dp1
S'org.robofab.postScriptHintData'
p2
(dp3
sS'com.typemytype.robofont.layerData'
p4
(dp5
S'b'
(dp6
S'name'
p7
S'R'
sS'lib'
p8
(dp9
sS'unicodes'
p10
(tsS'width'
p11
I1296
sS'contours'
p12
((dp13
S'points'
p14
((dp15
S'segmentType'
p16
S'line'
p17
sS'x'
I135
sS'smooth'
p18
I0
sS'y'
I0
s(dp19
g16
S'line'
p20
sS'x'
I512
sg18
I0
sS'y'
I0
s(dp21
g16
S'line'
p22
sS'x'
I512
sg18
I0
sS'y'
I58
s(dp23
g16
S'line'
p24
sS'x'
I353
sg18
I0
sS'y'
I58
s(dp25
g16
S'line'
p26
sS'x'
I353
sg18
I0
sS'y'
I539
s(dp27
g16
S'line'
p28
sS'x'
I641
sg18
I0
sS'y'
I539
s(dp29
g16
S'line'
p30
sS'x'
I961
sg18
I0
sS'y'
I0
s(dp31
g16
S'line'
p32
sS'x'
I1178
sg18
I0
sS'y'
I0
s(dp33
g16
S'line'
p34
sS'x'
I1178
sg18
I0
sS'y'
I58
s(dp35
g16
S'line'
p36
sS'x'
I1015
sg18
I0
sS'y'
I58
s(dp37
g16
S'line'
p38
sS'x'
I721
sg18
I0
sS'y'
I539
s(dp39
S'y'
I539
sS'x'
I945
sg18
I0
s(dp40
S'y'
I696
sS'x'
I1059
sg18
I0
s(dp41
g16
S'curve'
p42
sS'x'
I1059
sg18
I1
sS'y'
I848
s(dp43
S'y'
I1000
sS'x'
I1059
sg18
I0
s(dp44
S'y'
I1154
sS'x'
I945
sg18
I0
s(dp45
g16
S'curve'
p46
sS'x'
I721
sg18
I1
sS'y'
I1154
s(dp47
g16
S'line'
p48
sS'x'
I122
sg18
I0
sS'y'
I1154
s(dp49
g16
S'line'
p50
sS'x'
I122
sg18
I0
sS'y'
I1095
s(dp51
g16
S'line'
p52
sS'x'
I278
sg18
I0
sS'y'
I1095
s(dp53
g16
S'line'
p54
sS'x'
I278
sg18
I0
sS'y'
I58
s(dp55
g16
S'line'
p56
sS'x'
I135
sg18
I0
sS'y'
I58
stp57
s(dp58
g14
((dp59
g16
S'line'
p60
sS'x'
I353
sg18
I0
sS'y'
I1095
s(dp61
g16
S'line'
p62
sS'x'
I721
sg18
I1
sS'y'
I1095
s(dp63
S'y'
I1095
sS'x'
I898
sg18
I0
s(dp64
S'y'
I971
sS'x'
I985
sg18
I0
s(dp65
g16
S'curve'
p66
sS'x'
I985
sg18
I1
sS'y'
I845
s(dp67
S'y'
I723
sS'x'
I985
sg18
I0
s(dp68
S'y'
I600
sS'x'
I896
sg18
I0
s(dp69
g16
S'curve'
p70
sS'x'
I721
sg18
I1
sS'y'
I600
s(dp71
g16
S'line'
p72
sS'x'
I353
sg18
I0
sS'y'
I600
stp73
stp74
sS'components'
p75
(tsS'anchors'
p76
(tsss."
AnchorPoint: "bot" 674 0 basechar 0
AnchorPoint: "top" 610 1152 basechar 0
LayerCount: 2
Fore
SplineSet
943 0 m 1
 1211 0 l 1
 1211 94 l 1
 1041 94 l 1
 766 544 l 1
 994 570 1077 694 1077 849 c 0
 1077 1039 941 1152 700 1152 c 2
 90 1152 l 1
 90 1059 l 1
 254 1059 l 1
 254 93 l 1
 90 93 l 1
 90 0 l 1
 559 0 l 1
 559 93 l 1
 396 93 l 1
 396 1059 l 1
 498.666666667 1059 601.333333333 1059 704 1059 c 0
 869 1059 936 960 936 848 c 0
 936 744 884 627 668 627 c 2
 459 627 l 1
 459 531 l 1
 629 531 l 1
 943 0 l 1
EndSplineSet
EndChar

StartChar: S
Encoding: 83 83 106
Width: 1084
VWidth: 0
Flags: HW
PickledData: "(dp1
S'org.robofab.postScriptHintData'
p2
(dp3
sS'com.typemytype.robofont.layerData'
p4
(dp5
S'b'
(dp6
S'name'
p7
S'S'
sS'lib'
p8
(dp9
sS'unicodes'
p10
(tsS'width'
p11
I1143
sS'contours'
p12
((dp13
S'points'
p14
((dp15
S'segmentType'
p16
S'curve'
p17
sS'x'
I636
sS'smooth'
p18
I1
sS'y'
S'-23'
p19
s(dp20
S'y'
S'-23'
p21
sS'x'
I930
sg18
I0
s(dp22
S'y'
I171
sS'x'
I1026
sg18
I0
s(dp23
g16
S'curve'
p24
sS'x'
I1026
sg18
I1
sS'y'
I295
s(dp25
S'y'
I543
sS'x'
I1026
sg18
I0
s(dp26
S'y'
I599
sS'x'
I829
sg18
I0
s(dp27
g16
S'curve'
p28
sS'x'
I606
sg18
I1
sS'y'
I622
s(dp29
S'y'
I643
sS'x'
I405
sg18
I0
s(dp30
S'y'
I667
sS'x'
I269
sg18
I0
s(dp31
g16
S'curve'
p32
sS'x'
I269
sg18
I1
sS'y'
I851
s(dp33
S'y'
I998
sS'x'
I269
sg18
I0
s(dp34
S'y'
I1104
sS'x'
I360
sg18
I0
s(dp35
g16
S'curve'
p36
sS'x'
I573
sg18
I1
sS'y'
I1104
s(dp37
S'y'
I1104
sS'x'
I719
sg18
I0
s(dp38
S'y'
I1024
sS'x'
I885
sg18
I0
s(dp39
g16
S'curve'
p40
sS'x'
I885
sg18
I1
sS'y'
I941
s(dp41
g16
S'line'
p42
sS'x'
I885
sg18
I0
sS'y'
I839
s(dp43
g16
S'line'
p44
sS'x'
I959
sg18
I0
sS'y'
I839
s(dp45
g16
S'line'
p46
sS'x'
I959
sg18
I0
sS'y'
I1152
s(dp47
g16
S'line'
p48
sS'x'
I885
sg18
I0
sS'y'
I1152
s(dp49
g16
S'line'
p50
sS'x'
I885
sg18
I0
sS'y'
I1049
s(dp51
S'y'
I1131
sS'x'
I828
sg18
I0
s(dp52
S'y'
I1172
sS'x'
I673
sg18
I0
s(dp53
g16
S'curve'
p54
sS'x'
I561
sg18
I1
sS'y'
I1172
s(dp55
S'y'
I1172
sS'x'
I360
sg18
I0
s(dp56
S'y'
I1066
sS'x'
I184
sg18
I0
s(dp57
g16
S'curve'
p58
sS'x'
I184
sg18
I1
sS'y'
I863
s(dp59
S'y'
I635
sS'x'
I184
sg18
I0
s(dp60
S'y'
I579
sS'x'
I332
sg18
I0
s(dp61
g16
S'curve'
p62
sS'x'
I584
sg18
I1
sS'y'
I553
s(dp63
S'y'
I531
sS'x'
I805
sg18
I0
s(dp64
S'y'
I488
sS'x'
I942
sg18
I0
s(dp65
g16
S'curve'
p66
sS'x'
I942
sg18
I1
sS'y'
I300
s(dp67
S'y'
I169
sS'x'
I942
sg18
I0
s(dp68
S'y'
I47
sS'x'
I831
sg18
I0
s(dp69
g16
S'curve'
p70
sS'x'
I644
sg18
I1
sS'y'
I47
s(dp71
S'y'
I47
sS'x'
I448
sg18
I0
s(dp72
S'y'
I118
sS'x'
I261
sg18
I0
s(dp73
g16
S'curve'
p74
sS'x'
I261
sg18
I1
sS'y'
I247
s(dp75
g16
S'line'
p76
sS'x'
I261
sg18
I0
sS'y'
I387
s(dp77
g16
S'line'
p78
sS'x'
I187
sg18
I0
sS'y'
I387
s(dp79
g16
S'line'
p80
sS'x'
I187
sg18
I0
sS'y'
S'-1'
p81
s(dp82
g16
S'line'
p83
sS'x'
I261
sg18
I0
sS'y'
S'-1'
p84
s(dp85
g16
S'line'
p86
sS'x'
I261
sg18
I0
sS'y'
I122
s(dp87
S'y'
I22
sS'x'
I335
sg18
I0
s(dp88
S'y'
S'-23'
p89
sS'x'
I496
sg18
I0
stp90
stp91
sS'components'
p92
(tsS'anchors'
p93
(tsss."
AnchorPoint: "bot" 613 0 basechar 0
AnchorPoint: "top" 564 1152 basechar 0
LayerCount: 2
Fore
SplineSet
611 -20 m 0
 879 -20 1001 147 1001 307 c 0
 1001 569 818 613 589 647 c 0
 403 672 275 706 275 863 c 0
 275 984 358 1073 545 1073 c 0
 687 1073 788 1016 821 938 c 1
 821 832 l 1
 935 832 l 1
 935 1155 l 1
 821 1155 l 1
 821 1063 l 1
 762 1136 635 1174 531 1174 c 0
 313 1174 148 1071 148 860 c 0
 148 609 345 560 565 531 c 0
 759 508 864 466 864 304 c 0
 864 187 789 82 603 82 c 0
 426 82 307 149 268 251 c 1
 268 389 l 1
 152 389 l 1
 152 -1 l 1
 268 -1 l 1
 268 120 l 1
 334 25 457 -20 611 -20 c 0
EndSplineSet
EndChar

StartChar: Sigma
Encoding: 931 931 114
Width: 912
VWidth: 0
Flags: HW
PickledData: "(dp1
S'org.robofab.postScriptHintData'
p2
(dp3
s."
LayerCount: 2
Fore
SplineSet
92 0 m 257
 869 0 l 257
 869 105 l 257
 274 105 l 257
 691 569 l 257
 289 1051 l 257
 835 1051 l 257
 835 1152 l 257
 109 1152 l 257
 109 1085 l 257
 519 569 l 257
 92 70 l 257
 92 0 l 257
EndSplineSet
EndChar

StartChar: T
Encoding: 84 84 115
Width: 1144
VWidth: 0
Flags: HW
PickledData: "(dp1
S'org.robofab.postScriptHintData'
p2
(dp3
sS'com.typemytype.robofont.layerData'
p4
(dp5
S'b'
(dp6
S'name'
p7
S'T'
sS'lib'
p8
(dp9
sS'unicodes'
p10
(tsS'width'
p11
I1147
sS'contours'
p12
(tsS'components'
p13
(tsS'anchors'
p14
(tsss."
AnchorPoint: "bot" 573 0 basechar 0
AnchorPoint: "top" 569 1152 basechar 0
LayerCount: 2
Fore
SplineSet
52 757 m 1
 159 757 l 1
 159 1059 l 1
 273.333333333 1059 387.666666667 1059 502 1059 c 1
 502 93 l 1
 338 93 l 1
 338 0 l 1
 807 0 l 1
 807 93 l 1
 644 93 l 1
 644 1059 l 1
 757.333333333 1059 870.666666667 1059 984 1059 c 1
 984 757 l 1
 1093 757 l 1
 1093 1152 l 1
 52 1152 l 1
 52 757 l 1
EndSplineSet
EndChar

StartChar: Thorn
Encoding: 222 222 121
Width: 1147
VWidth: 0
Flags: HW
PickledData: "(dp1
S'org.robofab.postScriptHintData'
p2
(dp3
sS'com.typemytype.robofont.layerData'
p4
(dp5
S'b'
(dp6
S'name'
p7
S'Thorn'
p8
sS'lib'
p9
(dp10
sS'unicodes'
p11
(tsS'width'
p12
I1226
sS'contours'
p13
(tsS'components'
p14
(tsS'anchors'
p15
(tsss."
LayerCount: 2
Fore
SplineSet
483 330 m 257
 694 330 l 258
 929 330 1062 437 1062 633 c 256
 1062 809 927 913 688 913 c 258
 327 913 l 257
 327 821 l 257
 688 821 l 258
 837 821 925 751 926 632 c 256
 926 491 840 416 694 416 c 258
 483 416 l 257
 483 330 l 257
EndSplineSet
Refer: 411 -1 N 1 0 0 1 -32 0 2
EndChar

StartChar: U
Encoding: 85 85 122
Width: 1400
VWidth: 0
Flags: HW
PickledData: "(dp1
S'org.robofab.postScriptHintData'
p2
(dp3
sS'com.typemytype.robofont.layerData'
p4
(dp5
S'b'
(dp6
S'name'
p7
S'U'
sS'lib'
p8
(dp9
sS'unicodes'
p10
(tsS'width'
p11
I1514
sS'contours'
p12
(tsS'components'
p13
(tsS'anchors'
p14
(tsss."
AnchorPoint: "top" 715 1152 basechar 0
LayerCount: 2
Fore
SplineSet
702 -20 m 0
 992 -20 1197 122 1197 397 c 2
 1197 1059 l 1
 1353 1059 l 1
 1353 1152 l 1
 923 1152 l 1
 923 1059 l 1
 1074 1059 l 1
 1074 392 l 2
 1074 202 934 85 705 85 c 0
 489 85 357 203 357 391 c 2
 357 1059 l 1
 511 1059 l 1
 511 1152 l 1
 63 1152 l 1
 63 1059 l 1
 216 1059 l 1
 216 408 l 2
 216 161 367 -20 702 -20 c 0
EndSplineSet
EndChar

StartChar: V
Encoding: 86 86 133
Width: 1304
VWidth: 0
Flags: HW
PickledData: "(dp1
S'org.robofab.postScriptHintData'
p2
(dp3
sS'com.typemytype.robofont.layerData'
p4
(dp5
S'b'
(dp6
S'name'
p7
S'V'
sS'lib'
p8
(dp9
sS'unicodes'
p10
(tsS'width'
p11
I1228
sS'contours'
p12
(tsS'components'
p13
(tsS'anchors'
p14
(tsss."
LayerCount: 2
Fore
SplineSet
592 0 m 1
 719 0 l 1
 1130 1059 l 1
 1267 1059 l 1
 1267 1152 l 1
 849 1152 l 1
 849 1059 l 1
 998 1059 l 1
 664 158 l 1
 326 1059 l 1
 479 1059 l 1
 479 1152 l 1
 35 1152 l 1
 35 1059 l 1
 178 1059 l 1
 592 0 l 1
EndSplineSet
EndChar

StartChar: W
Encoding: 87 87 134
Width: 1904
VWidth: 0
Flags: HW
PickledData: "(dp1
S'org.robofab.postScriptHintData'
p2
(dp3
sS'com.typemytype.robofont.layerData'
p4
(dp5
S'b'
(dp6
S'name'
p7
S'W'
sS'lib'
p8
(dp9
sS'unicodes'
p10
(tsS'width'
p11
I1962
sS'contours'
p12
(tsS'components'
p13
(tsS'anchors'
p14
(tsss."
AnchorPoint: "top" 961 1152 basechar 0
LayerCount: 2
Fore
SplineSet
536 0 m 1
 661 0 l 1
 953 890 l 1
 1253 0 l 1
 1379 0 l 1
 1709 1059 l 1
 1850 1059 l 1
 1850 1152 l 1
 1436 1152 l 1
 1436 1059 l 1
 1586 1059 l 1
 1322 179 l 1
 1010 1123 l 1
 907 1123 l 1
 606 179 l 1
 333 1059 l 1
 485 1059 l 1
 485 1152 l 1
 54 1152 l 1
 54 1059 l 1
 196 1059 l 1
 536 0 l 1
EndSplineSet
EndChar

StartChar: X
Encoding: 88 88 139
Width: 1303
VWidth: 0
Flags: HW
PickledData: "(dp1
S'org.robofab.postScriptHintData'
p2
(dp3
sS'com.typemytype.robofont.layerData'
p4
(dp5
S'b'
(dp6
S'name'
p7
S'X'
sS'lib'
p8
(dp9
sS'unicodes'
p10
(tsS'width'
p11
I1293
sS'contours'
p12
(tsS'components'
p13
(tsS'anchors'
p14
(tsss."
LayerCount: 2
Fore
SplineSet
73 0 m 1
 507 0 l 1
 507 89 l 1
 361 89 l 1
 640 508 l 1
 923 89 l 1
 776 89 l 1
 776 0 l 1
 1232 0 l 1
 1232 89 l 1
 1072 89 l 1
 722 591 l 1
 1050 1063 l 1
 1205 1063 l 1
 1205 1152 l 1
 777 1152 l 1
 777 1063 l 1
 920 1063 l 1
 656 674 l 1
 390 1063 l 1
 533 1063 l 1
 533 1152 l 1
 86 1152 l 1
 86 1063 l 1
 242 1063 l 1
 572 591 l 1
 228 89 l 1
 73 89 l 1
 73 0 l 1
EndSplineSet
EndChar

StartChar: Y
Encoding: 89 89 140
Width: 1287
VWidth: 0
Flags: HW
PickledData: "(dp1
S'org.robofab.postScriptHintData'
p2
(dp3
sS'com.typemytype.robofont.layerData'
p4
(dp5
S'b'
(dp6
S'name'
p7
S'Y'
sS'lib'
p8
(dp9
sS'unicodes'
p10
(tsS'width'
p11
I1254
sS'contours'
p12
(tsS'components'
p13
(tsS'anchors'
p14
(tsss."
AnchorPoint: "top" 654 1152 basechar 0
LayerCount: 2
Fore
SplineSet
407 0 m 1
 886 0 l 1
 886 94 l 1
 716 94 l 1
 716 488 l 1
 1103 1059 l 1
 1259 1059 l 1
 1259 1152 l 1
 823 1152 l 1
 823 1059 l 1
 973 1059 l 1
 657 582 l 1
 333 1059 l 1
 480 1059 l 1
 480 1152 l 1
 25 1152 l 1
 25 1059 l 1
 180 1059 l 1
 575 487 l 1
 575 94 l 1
 407 94 l 1
 407 0 l 1
EndSplineSet
EndChar

StartChar: Z
Encoding: 90 90 145
Width: 1191
VWidth: 0
Flags: HW
PickledData: "(dp1
S'org.robofab.postScriptHintData'
p2
(dp3
sS'com.typemytype.robofont.layerData'
p4
(dp5
S'b'
(dp6
S'name'
p7
S'Z'
sS'lib'
p8
(dp9
sS'unicodes'
p10
(tsS'width'
p11
I1241
sS'contours'
p12
(tsS'components'
p13
(tsS'anchors'
p14
(tsss."
AnchorPoint: "top" 629 1152 basechar 0
LayerCount: 2
Fore
SplineSet
130 0 m 1
 1075 0 l 1
 1075 391 l 1
 969 391 l 1
 969 94 l 1
 297 94 l 1
 1057 1062 l 1
 1057 1152 l 1
 160 1152 l 1
 160 780 l 1
 267 780 l 1
 267 1059 l 1
 885 1059 l 1
 130 100 l 1
 130 0 l 1
EndSplineSet
EndChar

StartChar: a
Encoding: 97 97 149
Width: 938
VWidth: 0
Flags: HW
PickledData: "(dp1
S'org.robofab.postScriptHintData'
p2
(dp3
sS'com.typemytype.robofont.layerData'
p4
(dp5
S'b'
(dp6
S'name'
p7
S'a'
sS'lib'
p8
(dp9
sS'unicodes'
p10
(tsS'width'
p11
I951
sS'contours'
p12
((dp13
S'points'
p14
((dp15
S'segmentType'
p16
S'curve'
p17
sS'x'
I391
sS'smooth'
p18
I1
sS'y'
S'-14'
p19
s(dp20
S'y'
S'-14'
p21
sS'x'
I507
sg18
I0
s(dp22
S'y'
I21
sS'x'
I593
sg18
I0
s(dp23
g16
S'curve'
p24
sS'x'
I687
sg18
I0
sS'y'
I91
s(dp25
g16
S'line'
p26
sS'x'
I703
sg18
I0
sS'y'
S'-1'
p27
s(dp28
g16
S'line'
p29
sS'x'
I890
sg18
I0
sS'y'
S'-1'
p30
s(dp31
g16
S'line'
p32
sS'x'
I890
sg18
I0
sS'y'
I57
s(dp33
g16
S'line'
p34
sS'x'
I764
sg18
I0
sS'y'
I57
s(dp35
g16
S'line'
p36
sS'x'
I764
sg18
I1
sS'y'
I569
s(dp37
S'y'
I672
sS'x'
I764
sg18
I0
s(dp38
S'y'
I819
sS'x'
I710
sg18
I0
s(dp39
g16
S'curve'
p40
sS'x'
I461
sg18
I1
sS'y'
I819
s(dp41
S'y'
I819
sS'x'
I332
sg18
I0
s(dp42
S'y'
I792
sS'x'
I226
sg18
I0
s(dp43
g16
S'curve'
p44
sS'x'
I155
sg18
I0
sS'y'
I724
s(dp45
g16
S'line'
p46
sS'x'
I190
sg18
I0
sS'y'
I668
s(dp47
S'y'
I726
sS'x'
I247
sg18
I0
s(dp48
S'y'
I755
sS'x'
I339
sg18
I0
s(dp49
g16
S'curve'
p50
sS'x'
I459
sg18
I1
sS'y'
I755
s(dp51
S'y'
I755
sS'x'
I600
sg18
I0
s(dp52
S'y'
I706
sS'x'
I687
sg18
I0
s(dp53
g16
S'curve'
p54
sS'x'
I687
sg18
I1
sS'y'
I551
s(dp55
g16
S'line'
p56
sS'x'
I687
sg18
I0
sS'y'
I428
s(dp57
S'y'
I443
sS'x'
I609
sg18
I0
s(dp58
S'y'
I455
sS'x'
I539
sg18
I0
s(dp59
g16
S'curve'
p60
sS'x'
I465
sg18
I1
sS'y'
I455
s(dp61
S'y'
I455
sS'x'
I295
sg18
I0
s(dp62
S'y'
I433
sS'x'
I117
sg18
I0
s(dp63
g16
S'curve'
p64
sS'x'
I117
sg18
I1
sS'y'
I222
s(dp65
S'y'
I96
sS'x'
I117
sg18
I0
s(dp66
S'y'
S'-14'
p67
sS'x'
I206
sg18
I0
stp68
s(dp69
g14
((dp70
g16
S'curve'
p71
sS'x'
I401
sg18
I1
sS'y'
I50
s(dp72
S'y'
I50
sS'x'
I246
sg18
I0
s(dp73
S'y'
I142
sS'x'
I195
sg18
I0
s(dp74
g16
S'curve'
p75
sS'x'
I195
sg18
I1
sS'y'
I220
s(dp76
S'y'
I390
sS'x'
I195
sg18
I0
s(dp77
S'y'
I393
sS'x'
I346
sg18
I0
s(dp78
g16
S'curve'
p79
sS'x'
I462
sg18
I1
sS'y'
I393
s(dp80
S'y'
I393
sS'x'
I559
sg18
I0
s(dp81
S'y'
I368
sS'x'
I687
sg18
I0
s(dp82
g16
S'curve'
p83
sS'x'
I687
sg18
I0
sS'y'
I368
s(dp84
g16
S'line'
p85
sS'x'
I687
sg18
I0
sS'y'
I151
s(dp86
S'y'
I76
sS'x'
I606
sg18
I0
s(dp87
S'y'
I50
sS'x'
I511
sg18
I0
stp88
stp89
sS'components'
p90
(tsS'anchors'
p91
(tsss."
AnchorPoint: "top" 451 804 basechar 0
LayerCount: 2
Fore
SplineSet
382 67 m 0
 276 67 214 137 214 223 c 0
 214 348 310 385 411 385 c 0
 500 385 576 370 645 357 c 1
 645 160 l 1
 548 96 468 67 382 67 c 0
366 -22 m 0
 472 -22 557 9 651 74 c 1
 662 0 l 1
 899 0 l 1
 899 93 l 1
 774 93 l 1
 774 545 l 2
 774 704 664 826 445 826 c 0
 353 826 226 798 128 742 c 1
 167 656 l 1
 253 701 364 729 444 729 c 0
 565 729 645 665 645 530 c 2
 645 438 l 1
 563 453 481 465 403 465 c 0
 233 465 90 400 90 217 c 0
 90 81 199 -22 366 -22 c 0
EndSplineSet
EndChar

StartChar: acute
Encoding: 180 180 153
Width: 381
VWidth: 0
Flags: HW
PickledData: "(dp1
S'org.robofab.postScriptHintData'
p2
(dp3
sS'com.typemytype.robofont.layerData'
p4
(dp5
S'b'
(dp6
S'name'
p7
S'acute'
p8
sS'lib'
p9
(dp10
sS'unicodes'
p11
(tsS'width'
p12
I45
sS'contours'
p13
(tsS'components'
p14
(tsS'anchors'
p15
(tsss."
AnchorPoint: "top" 141 804 mark 0
LayerCount: 2
Fore
SplineSet
141 1086 m 257
 175 979 l 257
 306 1158 l 257
 226 1266 l 257
 141 1086 l 257
EndSplineSet
EndChar

StartChar: ae
Encoding: 230 230 155
Width: 1547
VWidth: 0
Flags: HW
PickledData: "(dp1
S'org.robofab.postScriptHintData'
p2
(dp3
sS'com.typemytype.robofont.layerData'
p4
(dp5
S'b'
(dp6
S'name'
p7
S'ae'
p8
sS'lib'
p9
(dp10
sS'unicodes'
p11
(tsS'width'
p12
I1657
sS'contours'
p13
(tsS'components'
p14
(tsS'anchors'
p15
(tsss."
AnchorPoint: "top" 801 804 basechar 0
LayerCount: 2
Fore
SplineSet
394 -22 m 256
 503 -22 629 -4 767 101 c 257
 844 18 953 -20 1083 -20 c 256
 1253 -20 1361 39 1449 135 c 257
 1402 213 l 257
 1304 120 1196 79 1088 79 c 256
 899 79 800 189 796 377 c 257
 1452 377 l 257
 1452 656 1307 826 1077 826 c 256
 929 826 797 758 749 633 c 257
 721 760 619 826 456 826 c 256
 333 826 205 786 123 718 c 257
 167 637 l 257
 243 694 354 729 451 729 c 256
 587 729 664 672 664 528 c 258
 664 442 l 257
 627 449 501 454 467 454 c 256
 259 454 96 398 96 216 c 256
 96 40 252 -22 394 -22 c 256
410 64 m 256
 300 64 219 106 219 220 c 256
 219 346 325 374 473 374 c 256
 503 374 636 368 665 366 c 257
 668 306 684 229 713 173 c 257
 640 105 545 64 410 64 c 256
1325 457 m 257
 798 458 l 257
 811 605 905 730 1077 730 c 256
 1230 730 1319 623 1325 457 c 257
EndSplineSet
EndChar

StartChar: ampersand
Encoding: 38 38 160
Width: 1242
VWidth: 0
Flags: HW
PickledData: "(dp1
S'org.robofab.postScriptHintData'
p2
(dp3
sS'com.typemytype.robofont.layerData'
p4
(dp5
S'b'
(dp6
S'name'
p7
S'ampersand'
p8
sS'lib'
p9
(dp10
sS'unicodes'
p11
(tsS'width'
p12
I1088
sS'contours'
p13
(tsS'components'
p14
(tsS'anchors'
p15
(tsss."
LayerCount: 2
Fore
SplineSet
502 -20 m 256
 641 -20 761 28 852 117 c 257
 941 0 l 257
 1183 0 l 257
 1183 98 l 257
 1013 98 l 257
 930 203 l 257
 981 270 1026 381 1047 463 c 257
 1183 464 l 257
 1183 561 l 257
 963 561 l 257
 950 477 913 357 863 288 c 257
 566 647 l 257
 745 723 839 835 839 972 c 256
 839 1111 726 1206 556 1206 c 256
 379 1206 261 1110 261 965 c 256
 261 874 313 784 397 679 c 257
 207 611 105 496 105 330 c 256
 105 119 263 -20 502 -20 c 256
521 87 m 256
 347 87 236 189 236 337 c 256
 236 462 310 552 459 602 c 257
 787 198 l 257
 718 124 625 87 521 87 c 256
508 725 m 257
 432 822 378 897 378 969 c 256
 378 1059 449 1112 555 1112 c 256
 660 1112 727 1058 727 967 c 256
 727 864 647 783 508 725 c 257
EndSplineSet
EndChar

StartChar: apostrophemod
Encoding: 700 700 162
Width: 600
VWidth: 0
Flags: HW
PickledData: "(dp1
S'org.robofab.postScriptHintData'
p2
(dp3
s."
AnchorPoint: "top" 108 804 mark 0
LayerCount: 2
Fore
SplineSet
67 910 m 257
 193 910 245 984 245 1097 c 258
 245 1264 l 257
 72 1264 l 257
 72 1099 l 257
 171 1099 l 257
 171 1007 138 980 67 967 c 257
 67 910 l 257
EndSplineSet
EndChar

StartChar: approxequal
Encoding: 8776 8776 163
Width: 961
VWidth: 0
Flags: HW
PickledData: "(dp1
S'org.robofab.postScriptHintData'
p2
(dp3
s."
LayerCount: 2
Fore
SplineSet
850 885 m 257
 791 836 726 799 666 799 c 256
 620 799 580 811 502 843 c 256
 405 883 358 896 293 896 c 256
 221 896 159 871 104 818 c 257
 104 706 l 257
 156 756 222 790 279 790 c 256
 331 790 374 777 453 744 c 256
 547 704 592 693 652 693 c 256
 727 693 792 719 850 774 c 257
 850 885 l 257
850 606 m 257
 791 556 726 519 666 519 c 256
 620 519 580 531 502 564 c 256
 405 604 358 617 293 617 c 256
 221 617 159 592 104 539 c 257
 104 426 l 257
 156 477 222 511 279 511 c 256
 331 511 374 497 453 464 c 256
 547 425 592 413 652 413 c 256
 727 413 792 440 850 494 c 257
 850 606 l 257
EndSplineSet
EndChar

StartChar: asciicircum
Encoding: 94 94 165
Width: 923
VWidth: 0
Flags: HW
PickledData: "(dp1
S'org.robofab.postScriptHintData'
p2
(dp3
sS'com.typemytype.robofont.layerData'
p4
(dp5
S'b'
(dp6
S'name'
p7
S'asciicircum'
p8
sS'lib'
p9
(dp10
sS'unicodes'
p11
(tsS'width'
p12
I911
sS'contours'
p13
(tsS'components'
p14
(tsS'anchors'
p15
(tsss."
LayerCount: 2
Fore
SplineSet
74 693 m 257
 194 693 l 257
 465 1149 l 257
 727 693 l 257
 847 693 l 257
 527 1258 l 257
 404 1258 l 257
 74 693 l 257
EndSplineSet
EndChar

StartChar: asciitilde
Encoding: 126 126 166
Width: 995
VWidth: 0
Flags: HW
PickledData: "(dp1
S'org.robofab.postScriptHintData'
p2
(dp3
sS'com.typemytype.robofont.layerData'
p4
(dp5
S'b'
(dp6
S'name'
p7
S'asciitilde'
p8
sS'lib'
p9
(dp10
sS'unicodes'
p11
(tsS'width'
p12
I708
sS'contours'
p13
(tsS'components'
p14
(tsS'anchors'
p15
(tsss."
LayerCount: 2
Fore
SplineSet
753 626 m 257
 744.489208633 624.784172662 735.847212877 624.233114228 727.076466915 624.233114228 c 0
 642.067698359 624.233114228 544.964028777 676 438 676 c 256
 404.507462687 676 372.847850301 677.186010247 342.56092006 677.186010247 c 0
 280.610380931 677.186010247 224.402985075 672.223880597 170 642 c 257
 149 643 144 563 115 545 c 257
 155 586 190 586 235 586 c 257
 245.712852261 587.487896147 256.406025989 588.159133182 267.091233029 588.159133182 c 0
 364.12732488 588.159133182 460.506396873 532.801613847 565 531 c 256
 597.022461989 529.607719044 627.469936392 527.730826523 657.438835819 527.730826523 c 0
 713.570085351 527.730826523 768.022461989 534.315090517 828 563 c 257
 854 563 853 649 871 663 c 257
 835 626 797 626 753 626 c 257
EndSplineSet
EndChar

StartChar: asterisk
Encoding: 42 42 167
Width: 935
VWidth: 0
Flags: HW
PickledData: "(dp1
S'org.robofab.postScriptHintData'
p2
(dp3
sS'com.typemytype.robofont.layerData'
p4
(dp5
S'b'
(dp6
S'name'
p7
S'asterisk'
p8
sS'lib'
p9
(dp10
sS'unicodes'
p11
(tsS'width'
p12
I941
sS'contours'
p13
(tsS'components'
p14
(tsS'anchors'
p15
(tsss."
LayerCount: 2
Fore
SplineSet
270 411 m 257
 468 751 l 257
 665 411 l 257
 768 487 l 257
 505 778 l 257
 885 872 l 257
 847 992 l 257
 489 820 l 257
 532 1212 l 257
 403 1212 l 257
 447 820 l 257
 89 992 l 257
 50 872 l 257
 430 778 l 257
 166 487 l 257
 270 411 l 257
EndSplineSet
EndChar

StartChar: at
Encoding: 64 64 168
Width: 1436
VWidth: 0
Flags: HW
PickledData: "(dp1
S'org.robofab.postScriptHintData'
p2
(dp3
sS'com.typemytype.robofont.layerData'
p4
(dp5
S'b'
(dp6
S'name'
p7
S'at'
p8
sS'lib'
p9
(dp10
sS'unicodes'
p11
(tsS'width'
p12
I1379
sS'contours'
p13
(tsS'components'
p14
(tsS'anchors'
p15
(tsss."
LayerCount: 2
Fore
SplineSet
869.094266602 340.082691598 m 0
 869.094266602 254.096120561 912.711326803 228.913721998 962.900907512 228.913721998 c 0
 1159.89483818 228.913721998 1326 439.926532661 1326 691 c 256
 1326 943 1162 1199 767 1199 c 256
 344 1199 111 871 111 552 c 256
 111 247 321 -48 777 -48 c 256
 954 -48 1083 -4 1190 76 c 257
 1143 134 l 257
 1047 63 925 29 777 29 c 256
 413 29 208 237 208 550 c 256
 208 880 441 1121 763 1121 c 256
 1081 1121 1237 912 1237 690 c 256
 1237 444.904717582 1065.27014903 309.994484051 985.87541909 309.994484051 c 0
 961.526743464 309.994484051 949.574674896 327.660201823 949.574674896 365.927022125 c 0
 949.574674896 391.248832296 954.695700119 426.234331309 965 473 c 258
 1060 915 l 257
 962 915 l 257
 934 771 l 257
 910 876 831 933 732 933 c 256
 500 933 387 720 387 526 c 256
 387 333 508 229 641 229 c 256
 741 229 822 291 874 394 c 257
 870.63636691 373.81820146 869.094266602 355.919732746 869.094266602 340.082691598 c 0
660 306 m 256
 541 306 484 405 484 525 c 256
 484 689 573 852 723 852 c 256
 831 852 901 785 901 660 c 256
 901 498 799 306 660 306 c 256
EndSplineSet
EndChar

StartChar: b
Encoding: 98 98 170
Width: 1062
VWidth: 0
Flags: HW
PickledData: "(dp1
S'org.robofab.postScriptHintData'
p2
(dp3
sS'com.typemytype.robofont.layerData'
p4
(dp5
S'b'
(dp6
S'name'
p7
S'b'
sS'lib'
p8
(dp9
sS'unicodes'
p10
(tsS'width'
p11
I1037
sS'contours'
p12
(tsS'components'
p13
(tsS'anchors'
p14
(tsss."
AnchorPoint: "top" 634 804 basechar 0
LayerCount: 2
Fore
SplineSet
590 -21 m 0
 820.284567115 -21 1009.0173639 138.599189819 1009.0173639 412.627440715 c 0
 1009.0173639 676.732504367 838.691056148 825 614 825 c 0
 519 825 417 792 331 729 c 1
 331 1174 l 1
 59 1174 l 1
 59 1081 l 1
 200 1081 l 1
 200 93 l 1
 54 93 l 1
 54 0 l 1
 331 0 l 1
 331 73 l 1
 405 11 498 -21 590 -21 c 0
331 629 m 1
 411 693 501 726 581 726 c 0
 753 726 875 606 875 401 c 0
 875 192 746 76 569 76 c 0
 488 76 402 109 331 168 c 1
 331 629 l 1
EndSplineSet
EndChar

StartChar: backslash
Encoding: 92 92 171
Width: 563
VWidth: 0
Flags: HW
PickledData: "(dp1
S'org.robofab.postScriptHintData'
p2
(dp3
sS'com.typemytype.robofont.layerData'
p4
(dp5
S'b'
(dp6
S'name'
p7
S'backslash'
p8
sS'lib'
p9
(dp10
sS'unicodes'
p11
(tsS'width'
p12
I296
sS'contours'
p13
(tsS'components'
p14
(tsS'anchors'
p15
(tsss."
LayerCount: 2
Fore
SplineSet
446 -22 m 257
 563 -22 l 257
 109 1201 l 257
 -5 1201 l 257
 446 -22 l 257
EndSplineSet
EndChar

StartChar: bar
Encoding: 124 124 172
Width: 436
VWidth: 0
Flags: HW
PickledData: "(dp1
S'org.robofab.postScriptHintData'
p2
(dp3
sS'com.typemytype.robofont.layerData'
p4
(dp5
S'b'
(dp6
S'name'
p7
S'bar'
p8
sS'lib'
p9
(dp10
sS'unicodes'
p11
(tsS'width'
p12
I348
sS'contours'
p13
(tsS'components'
p14
(tsS'anchors'
p15
(tsss."
LayerCount: 2
Fore
SplineSet
168 -138 m 257
 276 -138 l 257
 276 1206 l 257
 168 1206 l 257
 168 -138 l 257
EndSplineSet
EndChar

StartChar: braceleft
Encoding: 123 123 174
Width: 545
VWidth: 0
Flags: HW
PickledData: "(dp1
S'org.robofab.postScriptHintData'
p2
(dp3
sS'com.typemytype.robofont.layerData'
p4
(dp5
S'b'
(dp6
S'name'
p7
S'braceleft'
p8
sS'lib'
p9
(dp10
sS'unicodes'
p11
(tsS'width'
p12
I404
sS'contours'
p13
(tsS'components'
p14
(tsS'anchors'
p15
(tsss."
LayerCount: 2
Fore
SplineSet
424 -104 m 258
 494 -104 l 257
 494 -15 l 257
 338 -15 322 11 322 197 c 256
 322 429 302 538 186 570 c 257
 310 606 323 716 323 978 c 256
 323 1132 355 1156 494 1156 c 257
 494 1246 l 257
 424 1246 l 258
 205 1246 203 1099 203 877 c 256
 203 703 190 625 52 625 c 257
 52 516 l 257
 189 516 203 440 203 271 c 256
 203 38 206 -104 424 -104 c 258
EndSplineSet
EndChar

StartChar: braceright
Encoding: 125 125 175
Width: 547
VWidth: 0
Flags: HW
PickledData: "(dp1
S'org.robofab.postScriptHintData'
p2
(dp3
sS'com.typemytype.robofont.layerData'
p4
(dp5
S'b'
(dp6
S'name'
p7
S'braceright'
p8
sS'lib'
p9
(dp10
sS'unicodes'
p11
(tsS'width'
p12
I406
sS'contours'
p13
(tsS'components'
p14
(tsS'anchors'
p15
(tsss."
LayerCount: 2
Fore
SplineSet
75 -104 m 257
 146 -104 l 258
 364 -104 368 38 368 243 c 256
 368 438 377 516 517 516 c 257
 517 625 l 257
 383 625 368 702 368 896 c 256
 368 1101 364 1246 146 1246 c 258
 75 1246 l 257
 75 1156 l 257
 216 1156 247 1132 247 978 c 256
 247 716 261 606 384 570 c 257
 268 537 248 429 248 194 c 256
 248 10 231 -15 75 -15 c 257
 75 -104 l 257
EndSplineSet
EndChar

StartChar: bracketleft
Encoding: 91 91 176
Width: 525
VWidth: 0
Flags: HW
PickledData: "(dp1
S'org.robofab.postScriptHintData'
p2
(dp3
sS'com.typemytype.robofont.layerData'
p4
(dp5
S'b'
(dp6
S'name'
p7
S'bracketleft'
p8
sS'lib'
p9
(dp10
sS'unicodes'
p11
(tsS'width'
p12
I318
sS'contours'
p13
(tsS'components'
p14
(tsS'anchors'
p15
(tsss."
LayerCount: 2
Fore
SplineSet
167 -165 m 257
 466 -165 l 257
 466 -64 l 257
 308 -64 l 257
 308 1134 l 257
 466 1134 l 257
 466 1233 l 257
 167 1233 l 257
 167 -165 l 257
EndSplineSet
EndChar

StartChar: bracketright
Encoding: 93 93 177
Width: 524
VWidth: 0
Flags: HW
PickledData: "(dp1
S'org.robofab.postScriptHintData'
p2
(dp3
sS'com.typemytype.robofont.layerData'
p4
(dp5
S'b'
(dp6
S'name'
p7
S'bracketright'
p8
sS'lib'
p9
(dp10
sS'unicodes'
p11
(tsS'width'
p12
I316
sS'contours'
p13
(tsS'components'
p14
(tsS'anchors'
p15
(tsss."
LayerCount: 2
Fore
SplineSet
54 -165 m 257
 354 -165 l 257
 354 1233 l 257
 54 1233 l 257
 54 1134 l 257
 213 1134 l 257
 213 -64 l 257
 54 -64 l 257
 54 -165 l 257
EndSplineSet
EndChar

StartChar: breve
Encoding: 728 728 178
Width: 425
VWidth: 0
Flags: HW
PickledData: "(dp1
S'org.robofab.postScriptHintData'
p2
(dp3
sS'com.typemytype.robofont.layerData'
p4
(dp5
S'b'
(dp6
S'name'
p7
S'breve'
p8
sS'lib'
p9
(dp10
sS'unicodes'
p11
(tsS'width'
p12
I233
sS'contours'
p13
(tsS'components'
p14
(tsS'anchors'
p15
(tsss."
AnchorPoint: "top" 216 804 mark 0
LayerCount: 2
Fore
SplineSet
214 923 m 256
 329 923 406 995 420 1112 c 257
 333 1112 l 257
 320 1042 276 1005 214 1005 c 256
 148 1005 107 1042 92 1112 c 257
 7 1112 l 257
 21 994 101 923 214 923 c 256
EndSplineSet
EndChar

StartChar: breveinvertedcomb
Encoding: 785 785 179
Width: 750
VWidth: 0
Flags: W
PickledData: "(dp1
S'org.robofab.postScriptHintData'
p2
(dp3
sS'com.typemytype.robofont.layerData'
p4
(dp5
S'b'
(dp6
S'name'
p7
S'uni0311'
p8
sS'lib'
p9
(dp10
sS'unicodes'
p11
(tsS'width'
p12
I962
sS'contours'
p13
(tsS'components'
p14
(tsS'anchors'
p15
(tsss."
AnchorPoint: "top" 375 829 mark 0
LayerCount: 2
Fore
SplineSet
155 949 m 257
 258 949 l 257
 272 1015 311 1050 373 1050 c 256
 433 1050 474 1015 487 949 c 257
 591 949 l 257
 576 1072 495 1149 373 1149 c 256
 254 1149 171 1073 155 949 c 257
EndSplineSet
EndChar

StartChar: brokenbar
Encoding: 166 166 180
Width: 445
VWidth: 0
Flags: HW
PickledData: "(dp1
S'org.robofab.postScriptHintData'
p2
(dp3
sS'com.typemytype.robofont.layerData'
p4
(dp5
S'b'
(dp6
S'name'
p7
S'brokenbar'
p8
sS'lib'
p9
(dp10
sS'unicodes'
p11
(tsS'width'
p12
I418
sS'contours'
p13
(tsS'components'
p14
(tsS'anchors'
p15
(tsss."
LayerCount: 2
Fore
SplineSet
179 -135 m 257
 268 -135 l 257
 268 421 l 257
 179 421 l 257
 179 -135 l 257
179 694 m 257
 268 694 l 257
 268 1251 l 257
 179 1251 l 257
 179 694 l 257
EndSplineSet
EndChar

StartChar: bullet
Encoding: 8226 8226 181
Width: 651
VWidth: 0
Flags: HW
PickledData: "(dp1
S'org.robofab.postScriptHintData'
p2
(dp3
sS'com.typemytype.robofont.layerData'
p4
(dp5
S'b'
(dp6
S'name'
p7
S'bullet'
p8
sS'lib'
p9
(dp10
sS'unicodes'
p11
(tsS'width'
p12
I768
sS'contours'
p13
(tsS'components'
p14
(tsS'anchors'
p15
(tsss."
LayerCount: 2
Fore
SplineSet
326 414 m 256
 451 414 551 511 551 631 c 256
 551 753 451 847 326 847 c 256
 200 847 101 752 101 631 c 256
 101 512 200 414 326 414 c 256
EndSplineSet
EndChar

StartChar: c
Encoding: 99 99 182
Width: 959
VWidth: 0
Flags: HW
PickledData: "(dp1
S'org.robofab.postScriptHintData'
p2
(dp3
sS'com.typemytype.robofont.layerData'
p4
(dp5
S'b'
(dp6
S'name'
p7
S'c'
sS'lib'
p8
(dp9
sS'unicodes'
p10
(tsS'width'
p11
I956
sS'contours'
p12
((dp13
S'points'
p14
((dp15
S'y'
S'-14'
p16
sS'x'
I633
sS'smooth'
p17
I0
s(dp18
S'y'
I33
sS'x'
I758
sg17
I0
s(dp19
S'segmentType'
p20
S'curve'
p21
sS'x'
I868
sg17
I0
sS'y'
I142
s(dp22
g20
S'line'
p23
sS'x'
I845
sg17
I0
sS'y'
I213
s(dp24
S'y'
I105
sS'x'
I763
sg17
I0
s(dp25
S'y'
I51
sS'x'
I637
sg17
I0
s(dp26
g20
S'curve'
p27
sS'x'
I515
sg17
I1
sS'y'
I51
s(dp28
S'y'
I51
sS'x'
I316
sg17
I0
s(dp29
S'y'
I193
sS'x'
I169
sg17
I0
s(dp30
g20
S'curve'
p31
sS'x'
I169
sg17
I1
sS'y'
I406
s(dp32
S'y'
I630
sS'x'
I169
sg17
I0
s(dp33
S'y'
I755
sS'x'
I336
sg17
I0
s(dp34
g20
S'curve'
p35
sS'x'
I515
sg17
I1
sS'y'
I755
s(dp36
S'y'
I755
sS'x'
I705
sg17
I0
s(dp37
S'y'
I657
sS'x'
I768
sg17
I0
s(dp38
g20
S'curve'
p39
sS'x'
I776
sg17
I0
sS'y'
I570
s(dp40
g20
S'line'
p41
sS'x'
I840
sg17
I0
sS'y'
I570
s(dp42
g20
S'line'
p43
sS'x'
I840
sg17
I0
sS'y'
I825
s(dp44
g20
S'line'
p45
sS'x'
I767
sg17
I0
sS'y'
I825
s(dp46
g20
S'line'
p47
sS'x'
I767
sg17
I0
sS'y'
I714
s(dp48
S'y'
I764
sS'x'
I736
sg17
I0
s(dp49
S'y'
I819
sS'x'
I645
sg17
I0
s(dp50
g20
S'curve'
p51
sS'x'
I522
sg17
I1
sS'y'
I819
s(dp52
S'y'
I819
sS'x'
F268.96812951340218
sg17
I0
s(dp53
S'y'
I650
sS'x'
I90
sg17
I0
s(dp54
g20
S'curve'
p55
sS'x'
I90
sg17
I1
sS'y'
I406
s(dp56
S'y'
I145
sS'x'
I90
sg17
I0
s(dp57
S'y'
S'-14'
p58
sS'x'
I286
sg17
I0
s(dp59
g20
S'curve'
p60
sS'x'
I515
sg17
I1
sS'y'
S'-14'
p61
stp62
stp63
sS'components'
p64
(tsS'anchors'
p65
(tsss."
AnchorPoint: "bot" 480 0 basechar 0
AnchorPoint: "top" 497 804 basechar 0
LayerCount: 2
Fore
SplineSet
190 409 m 0
 190 594.99827004 320.297151464 724.152438481 505.390016901 724.152438481 c 0
 637.090726545 724.152438481 733.585390342 649.920337768 756 532 c 1
 855 532 l 1
 855 807 l 1
 744 807 l 1
 744 708 l 1
 710 775 601 826 491 826 c 0
 236 826 56 653 56 407 c 0
 56 157 235 -20 488 -20 c 0
 653 -20 773 44 855 145 c 1
 804 227 l 1
 725.94772135 140.166840002 644.087843823 81.8906715776 501.76818655 81.8906715776 c 0
 318.039070284 81.8906715776 190 215.80169252 190 409 c 0
EndSplineSet
EndChar

StartChar: caron
Encoding: 711 711 184
Width: 483
VWidth: 0
Flags: HW
PickledData: "(dp1
S'org.robofab.postScriptHintData'
p2
(dp3
sS'com.typemytype.robofont.layerData'
p4
(dp5
S'b'
(dp6
S'name'
p7
S'caron'
p8
sS'lib'
p9
(dp10
sS'unicodes'
p11
(tsS'width'
p12
I351
sS'contours'
p13
(tsS'components'
p14
(tsS'anchors'
p15
(tsss."
AnchorPoint: "top" 240 804 mark 0
LayerCount: 2
Fore
SplineSet
180 920 m 257
 300 920 l 257
 465 1228 l 257
 372 1228 l 257
 240 996 l 257
 105 1228 l 257
 12 1228 l 257
 180 920 l 257
EndSplineSet
EndChar

StartChar: caron.alt
Encoding: 65539 -1 185
Width: 600
VWidth: 0
Flags: HW
PickledData: "(dp1
S'org.robofab.postScriptHintData'
p2
(dp3
s."
AnchorPoint: "caron.alt" 169 804 mark 0
LayerCount: 2
Fore
SplineSet
192 817 m 257
 321 817 372 894 371 1008 c 257
 371 1174 l 257
 199 1174 l 257
 199 1015 l 257
 297 1015 l 257
 297 934 270 886 192 874 c 257
 192 817 l 257
EndSplineSet
EndChar

StartChar: cedilla
Encoding: 184 184 190
Width: 519
VWidth: 0
Flags: HW
PickledData: "(dp1
S'org.robofab.postScriptHintData'
p2
(dp3
s."
AnchorPoint: "bot" 280 0 mark 0
LayerCount: 2
Fore
SplineSet
278 -339 m 256
 354 -339 416 -309 416 -229 c 256
 416 -174 375 -121 274 -114 c 257
 306 5 l 257
 246 5 l 257
 185 -156 l 257
 269 -160 303 -183 303 -217 c 256
 303 -254 273 -270 226 -270 c 256
 195 -270 157 -263 117 -251 c 257
 117 -303 l 257
 168 -326 226 -339 278 -339 c 256
EndSplineSet
EndChar

StartChar: cent
Encoding: 162 162 191
Width: 938
VWidth: 0
Flags: HW
PickledData: "(dp1
S'org.robofab.postScriptHintData'
p2
(dp3
sS'com.typemytype.robofont.layerData'
p4
(dp5
S'b'
(dp6
S'name'
p7
S'cent'
p8
sS'lib'
p9
(dp10
sS'unicodes'
p11
(tsS'width'
p12
I909
sS'contours'
p13
(tsS'components'
p14
(tsS'anchors'
p15
(tsss."
LayerCount: 2
Fore
SplineSet
359 -314 m 257
 674 1105 l 257
 616 1114 l 257
 303 -304 l 257
 359 -314 l 257
EndSplineSet
Refer: 182 99 N 1 0 0 1 0 0 2
EndChar

StartChar: circumflex
Encoding: 710 710 192
Width: 499
VWidth: 0
Flags: HW
PickledData: "(dp1
S'org.robofab.postScriptHintData'
p2
(dp3
sS'com.typemytype.robofont.layerData'
p4
(dp5
S'b'
(dp6
S'name'
p7
S'circumflex'
p8
sS'lib'
p9
(dp10
sS'unicodes'
p11
(tsS'width'
p12
I347
sS'contours'
p13
(tsS'components'
p14
(tsS'anchors'
p15
(tsss."
AnchorPoint: "top" 252 804 mark 0
LayerCount: 2
Fore
SplineSet
108 921 m 257
 247 1180 l 257
 386 921 l 257
 485 921 l 257
 314 1240 l 257
 179 1240 l 257
 10 921 l 257
 108 921 l 257
EndSplineSet
EndChar

StartChar: colon
Encoding: 58 58 193
Width: 513
VWidth: 0
Flags: HW
PickledData: "(dp1
S'org.robofab.postScriptHintData'
p2
(dp3
sS'com.typemytype.robofont.layerData'
p4
(dp5
S'b'
(dp6
S'name'
p7
S'colon'
p8
sS'lib'
p9
(dp10
sS'unicodes'
p11
(tsS'width'
p12
I453
sS'contours'
p13
(tsS'components'
p14
(tsS'anchors'
p15
(tsss."
LayerCount: 2
Fore
SplineSet
172 164 m 257
 346 164 l 257
 346 337 l 257
 172 337 l 257
 172 164 l 257
172 669 m 257
 346 669 l 257
 346 843 l 257
 172 843 l 257
 172 669 l 257
EndSplineSet
EndChar

StartChar: comma
Encoding: 44 44 194
Width: 457
VWidth: 0
Flags: HW
PickledData: "(dp1
S'org.robofab.postScriptHintData'
p2
(dp3
sS'com.typemytype.robofont.layerData'
p4
(dp5
S'b'
(dp6
S'name'
p7
S'comma'
p8
sS'lib'
p9
(dp10
sS'unicodes'
p11
(tsS'width'
p12
I374
sS'contours'
p13
(tsS'components'
p14
(tsS'anchors'
p15
(tsss."
LayerCount: 2
Fore
SplineSet
160 -221 m 257
 306 -220 345 -134 345 9 c 256
 345 34 344 158 341 178 c 257
 309 178 193 178 166 175 c 257
 166 150 166 25 167 1 c 257
 260 1 l 257
 260 -110 236 -143 160 -156 c 257
 160 -221 l 257
EndSplineSet
EndChar

StartChar: commaaccent
Encoding: 806 806 195
Width: 381
VWidth: 0
Flags: HW
PickledData: "(dp1
S'org.robofab.postScriptHintData'
p2
(dp3
sS'com.typemytype.robofont.layerData'
p4
(dp5
S'b'
(dp6
S'name'
p7
S'uni0326'
p8
sS'lib'
p9
(dp10
sS'unicodes'
p11
(tsS'width'
p12
I418
sS'contours'
p13
(tsS'components'
p14
(tsS'anchors'
p15
(tsss."
AnchorPoint: "bot" 220 0 mark 0
LayerCount: 2
Fore
SplineSet
130 -468 m 258
 130.817866891 -468.006340053 131.632598472 -468.009504601 132.444201624 -468.009504601 c 0
 259.644635438 -468.009504601 310 -390.27723391 310 -277 c 258
 310 -111 l 257
 137 -111 l 257
 137 -270 l 257
 235 -270 l 257
 235 -351 208 -400 130 -411 c 257
 130 -468 l 258
EndSplineSet
EndChar

StartChar: commaturnedabovecomb
Encoding: 786 786 196
Width: 600
VWidth: 0
Flags: HW
PickledData: "(dp1
S'org.robofab.postScriptHintData'
p2
(dp3
s."
AnchorPoint: "top" 212 804 mark 0
LayerCount: 2
Fore
SplineSet
329 915 m 257
 329 1080 l 257
 231 1080 l 257
 231 1172 263 1200 334 1212 c 257
 334 1269 l 257
 209 1269 156 1195 157 1083 c 257
 156 915 l 257
 329 915 l 257
EndSplineSet
EndChar

StartChar: copyright
Encoding: 169 169 197
Width: 1527
VWidth: 0
Flags: HW
PickledData: "(dp1
S'org.robofab.postScriptHintData'
p2
(dp3
sS'com.typemytype.robofont.layerData'
p4
(dp5
S'b'
(dp6
S'name'
p7
S'copyright'
p8
sS'lib'
p9
(dp10
sS'unicodes'
p11
(tsS'width'
p12
I1512
sS'contours'
p13
(tsS'components'
p14
(tsS'anchors'
p15
(tsss."
LayerCount: 2
Fore
SplineSet
771 222 m 256
 893 222 1013 278 1080 367 c 257
 1025 422 l 257
 963 347 874 302 774 302 c 256
 773.386796564 301.995828548 772.774062956 301.993745217 772.161805925 301.993745217 c 0
 626.000939655 301.993745217 507 420.721661186 507 593 c 256
 507 784 644 881 778 881 c 256
 894 881 974 816 990 714 c 257
 1071 714 l 257
 1071 942 l 257
 988 942 l 257
 988 862 l 257
 946 927 860 959 768 959 c 256
 583 959 404 831 404 592 c 256
 404 372 565 222 771 222 c 256
762 -33 m 256
 1132 -33 1407 231 1407 592 c 256
 1407 952 1132 1217 762 1217 c 256
 394 1217 119 952 119 592 c 256
 119 231 394 -33 762 -33 c 256
762 52 m 256
 457 52 228 280 228 590 c 256
 228 902 457 1133 762 1133 c 256
 1069 1133 1298 902 1298 590 c 256
 1298 281 1069 52 762 52 c 256
EndSplineSet
EndChar

StartChar: currency
Encoding: 164 164 198
Width: 1060
VWidth: 0
Flags: HW
PickledData: "(dp1
S'org.robofab.postScriptHintData'
p2
(dp3
sS'com.typemytype.robofont.layerData'
p4
(dp5
S'b'
(dp6
S'name'
p7
S'currency'
p8
sS'lib'
p9
(dp10
sS'unicodes'
p11
(tsS'width'
p12
I1124
sS'contours'
p13
(tsS'components'
p14
(tsS'anchors'
p15
(tsss."
LayerCount: 2
Fore
SplineSet
847 519 m 257
 906 576 l 257
 808 671 l 257
 864 745 894 828 894 916 c 256
 894 1002 866 1084 809 1156 c 257
 906 1251 l 257
 847 1308 l 257
 753 1209 l 257
 680 1251 605 1274 526 1274 c 256
 450 1274 378 1252 310 1211 c 257
 217 1308 l 257
 155 1251 l 257
 249 1158 l 257
 190 1088 160 1001 160 912 c 256
 160 821 191 735 249 669 c 257
 155 576 l 257
 217 519 l 257
 310 616 l 257
 380 575 452 554 529 554 c 256
 607 554 681 575 753 618 c 257
 847 519 l 257
527 638 m 256
 384 638 257 743 257 915 c 256
 257 1084 384 1188 528 1188 c 256
 671 1188 801 1087 801 914 c 256
 801 741 672 638 527 638 c 256
EndSplineSet
EndChar

StartChar: d
Encoding: 100 100 199
Width: 1042
VWidth: 0
Flags: HW
PickledData: "(dp1
S'org.robofab.postScriptHintData'
p2
(dp3
sS'com.typemytype.robofont.layerData'
p4
(dp5
S'b'
(dp6
S'name'
p7
S'd'
sS'lib'
p8
(dp9
sS'unicodes'
p10
(tsS'width'
p11
I1011
sS'contours'
p12
(tsS'components'
p13
(tsS'anchors'
p14
(tsss."
AnchorPoint: "caron.alt" 950 804 basechar 0
AnchorPoint: "top" 390 804 basechar 0
LayerCount: 2
Fore
SplineSet
739 0 m 1
 999 0 l 1
 999 93 l 1
 869 93 l 1
 869 1174 l 1
 597 1174 l 1
 597 1081 l 1
 739 1081 l 1
 739 735 l 1
 656 793 552 825 455 825 c 0
 237.212559758 825 58.9834015588 670.72270003 58.9834015588 404.45779991 c 0
 58.9834015588 140.512725412 246.047893734 -22 473 -22 c 0
 564 -22 660 9 739 65 c 1
 739 0 l 1
739 157 m 1
 665 106 577 77 499 77 c 0
 326 77 193 194 193 393 c 0
 193 604 313 727 479 727 c 0
 563 727 657 696 739 643 c 1
 739 157 l 1
EndSplineSet
EndChar

StartChar: dagger
Encoding: 8224 8224 200
Width: 627
VWidth: 0
Flags: HW
PickledData: "(dp1
S'org.robofab.postScriptHintData'
p2
(dp3
sS'com.typemytype.robofont.layerData'
p4
(dp5
S'b'
(dp6
S'name'
p7
S'dagger'
p8
sS'lib'
p9
(dp10
sS'unicodes'
p11
(tsS'width'
p12
I364
sS'contours'
p13
(tsS'components'
p14
(tsS'anchors'
p15
(tsss."
LayerCount: 2
Fore
SplineSet
283 -86 m 257
 342 -86 l 257
 342 205 376 392 389 552 c 257
 389 609 354 733 342 798 c 257
 588 766 l 257
 588 894 l 257
 342 867 l 257
 388 1163 l 257
 239 1163 l 257
 283 867 l 257
 35 894 l 257
 35 766 l 257
 283 798 l 257
 271 732 237 608 237 550 c 257
 249 390 283 205 283 -86 c 257
EndSplineSet
EndChar

StartChar: daggerdbl
Encoding: 8225 8225 201
Width: 653
VWidth: 0
Flags: HW
PickledData: "(dp1
S'org.robofab.postScriptHintData'
p2
(dp3
sS'com.typemytype.robofont.layerData'
p4
(dp5
S'b'
(dp6
S'name'
p7
S'daggerdbl'
p8
sS'lib'
p9
(dp10
sS'unicodes'
p11
(tsS'width'
p12
I486
sS'contours'
p13
(tsS'components'
p14
(tsS'anchors'
p15
(tsss."
LayerCount: 2
Fore
SplineSet
250 -120 m 257
 406 -120 l 257
 359 156 l 257
 619 126 l 257
 619 260 l 257
 368 225 l 257
 369.6 235.4 370.08 279.08 370.08 331.848 c 0
 370.08 411 369 510.6 369 549 c 256
 369 587.4 370.08 687.72 370.08 767.664 c 0
 370.08 820.96 369.6 865.2 368 876 c 257
 619 841 l 257
 619 975 l 257
 359 945 l 257
 406 1221 l 257
 250 1221 l 257
 296 945 l 257
 34 975 l 257
 34 841 l 257
 286 876 l 257
 284.076923077 865.615384615 283.485207101 824.905325444 283.485207101 775.091943559 c 0
 283.485207101 695.390532544 285 592.384615385 285 553 c 256
 285 513.615384615 283.485207101 408.337278107 283.485207101 327.121074192 c 0
 283.485207101 276.360946746 284.076923077 235 286 225 c 257
 34 260 l 257
 34 126 l 257
 296 156 l 257
 250 -120 l 257
EndSplineSet
EndChar

StartChar: dblgravecmb
Encoding: 783 783 202
Width: 662
VWidth: 0
Flags: HW
PickledData: "(dp1
S'org.robofab.postScriptHintData'
p2
(dp3
sS'com.typemytype.robofont.layerData'
p4
(dp5
S'b'
(dp6
S'name'
p7
S'uni030F'
p8
sS'lib'
p9
(dp10
sS'unicodes'
p11
(tsS'width'
p12
I643
sS'contours'
p13
(tsS'components'
p14
(tsS'anchors'
p15
(tsss."
AnchorPoint: "top" 391 804 mark 0
LayerCount: 2
Fore
SplineSet
198 979 m 257
 279 979 l 257
 165 1288 l 257
 20 1288 l 257
 198 979 l 257
456 979 m 257
 537 979 l 257
 424 1288 l 257
 278 1288 l 257
 456 979 l 257
EndSplineSet
EndChar

StartChar: degree
Encoding: 176 176 206
Width: 771
VWidth: 0
Flags: HW
PickledData: "(dp1
S'org.robofab.postScriptHintData'
p2
(dp3
sS'com.typemytype.robofont.layerData'
p4
(dp5
S'b'
(dp6
S'name'
p7
S'degree'
p8
sS'lib'
p9
(dp10
sS'unicodes'
p11
(tsS'width'
p12
I922
sS'contours'
p13
(tsS'components'
p14
(tsS'anchors'
p15
(tsss."
LayerCount: 2
Fore
SplineSet
386 780 m 256
 277 780 207 859 207 954 c 256
 207 1048 277 1128 386 1128 c 256
 496 1128 566 1046 566 954 c 256
 566 858 494 780 386 780 c 256
386 710 m 256
 542 710 643 822 643 953 c 256
 643 1084 542 1196 386 1196 c 256
 231 1196 129 1084 129 953 c 256
 129 822 230 710 386 710 c 256
EndSplineSet
EndChar

StartChar: dieresis
Encoding: 168 168 207
Width: 500
VWidth: 0
Flags: HW
PickledData: "(dp1
S'org.robofab.postScriptHintData'
p2
(dp3
sS'com.typemytype.robofont.layerData'
p4
(dp5
S'b'
(dp6
S'name'
p7
S'dieresis'
p8
sS'lib'
p9
(dp10
sS'unicodes'
p11
(tsS'width'
p12
I295
sS'contours'
p13
(tsS'components'
p14
(tsS'anchors'
p15
(tsss."
AnchorPoint: "top" 253 804 mark 0
LayerCount: 2
Fore
SplineSet
60 938 m 256
 109 938 141 968 141 1016 c 256
 141 1063 109 1093 60 1093 c 256
 11 1093 -21 1063 -21 1016 c 256
 -21 968 11 938 60 938 c 256
437 938 m 256
 487 938 518 968 519 1016 c 256
 519 1063 486 1093 437 1093 c 256
 388 1093 357 1063 357 1016 c 256
 357 968 388 938 437 938 c 256
EndSplineSet
EndChar

StartChar: divide
Encoding: 247 247 208
Width: 814
VWidth: 0
Flags: HW
PickledData: "(dp1
S'org.robofab.postScriptHintData'
p2
(dp3
sS'com.typemytype.robofont.layerData'
p4
(dp5
S'b'
(dp6
S'name'
p7
S'divide'
p8
sS'lib'
p9
(dp10
sS'unicodes'
p11
(tsS'width'
p12
I339
sS'contours'
p13
(tsS'components'
p14
(tsS'anchors'
p15
(tsss."
LayerCount: 2
Fore
SplineSet
348 206 m 257
 468 206 l 257
 468 347 l 257
 348 347 l 257
 348 206 l 257
71 494 m 257
 744 494 l 257
 744 576 l 257
 71 576 l 257
 71 494 l 257
348 714 m 257
 468 714 l 257
 468 855 l 257
 348 855 l 257
 348 714 l 257
EndSplineSet
EndChar

StartChar: dollar
Encoding: 36 36 209
Width: 1082
VWidth: 0
Flags: HW
PickledData: "(dp1
S'org.robofab.postScriptHintData'
p2
(dp3
s."
LayerCount: 2
Fore
SplineSet
508 -183 m 257
 576 -183 l 257
 576 1349 l 257
 508 1349 l 257
 508 -183 l 257
EndSplineSet
Refer: 106 83 N 1 0 0 1 -34 0 2
EndChar

StartChar: dotaccent
Encoding: 729 729 211
Width: 399
VWidth: 0
Flags: HW
PickledData: "(dp1
S'org.robofab.postScriptHintData'
p2
(dp3
s."
AnchorPoint: "top" 203 804 mark 0
LayerCount: 2
Fore
SplineSet
203 989 m 256
 259 989 302 1029 302 1081 c 256
 302 1132 259 1172 203 1172 c 256
 149 1172 107 1132 107 1081 c 256
 107 1029 149 989 203 989 c 256
EndSplineSet
EndChar

StartChar: dotlessj
Encoding: 567 567 214
Width: 487
VWidth: 0
Flags: W
PickledData: "(dp1
S'org.robofab.postScriptHintData'
p2
(dp3
sS'com.typemytype.robofont.layerData'
p4
(dp5
S'b'
(dp6
S'name'
p7
S'uni0237'
p8
sS'lib'
p9
(dp10
sS'unicodes'
p11
(tsS'width'
p12
I398
sS'contours'
p13
(tsS'components'
p14
(tsS'anchors'
p15
(tsss."
AnchorPoint: "top" 264 804 basechar 0
LayerCount: 2
Fore
SplineSet
12 -297 m 257
 98 -297 l 258
 355 -297 359 -147 359 11 c 258
 359 804 l 257
 65 804 l 257
 65 712 l 257
 228 712 l 257
 228 -24 l 258
 228 -142 215 -196 93 -196 c 258
 12 -196 l 257
 12 -297 l 257
EndSplineSet
EndChar

StartChar: e
Encoding: 101 101 217
Width: 950
VWidth: 0
Flags: HW
PickledData: "(dp1
S'org.robofab.postScriptHintData'
p2
(dp3
sS'com.typemytype.robofont.layerData'
p4
(dp5
S'b'
(dp6
S'name'
p7
S'e'
sS'lib'
p8
(dp9
sS'unicodes'
p10
(tsS'width'
p11
I975
sS'contours'
p12
((dp13
S'points'
p14
((dp15
S'segmentType'
p16
S'line'
p17
sS'x'
I171
sS'smooth'
p18
I0
sS'y'
I442
s(dp19
S'y'
I592
sS'x'
I182
sg18
I0
s(dp20
S'y'
I755
sS'x'
I296
sg18
I0
s(dp21
g16
S'curve'
p22
sS'x'
I507
sg18
I1
sS'y'
I755
s(dp23
S'y'
I755
sS'x'
I699
sg18
I0
s(dp24
S'y'
I616
sS'x'
I803
sg18
I0
s(dp25
g16
S'curve'
p26
sS'x'
I820
sg18
I0
sS'y'
I442
stp27
s(dp28
g14
((dp29
g16
S'line'
p30
sS'x'
I890
sg18
I0
sS'y'
I383
s(dp31
S'y'
I601
sS'x'
I889
sg18
I0
s(dp32
S'y'
I819
sS'x'
F778.76831688899995
sg18
I0
s(dp33
g16
S'curve'
p34
sS'x'
I502
sg18
I1
sS'y'
I819
s(dp35
S'y'
I819
sS'x'
I232
sg18
I0
s(dp36
S'y'
I618
sS'x'
I90
sg18
I0
s(dp37
g16
S'curve'
p38
sS'x'
I90
sg18
I1
sS'y'
I403
s(dp39
S'y'
I150
sS'x'
I90
sg18
I0
s(dp40
S'y'
S'-14'
p41
sS'x'
I284
sg18
I0
s(dp42
g16
S'curve'
p43
sS'x'
I511
sg18
I1
sS'y'
S'-14'
p44
s(dp45
S'y'
S'-14'
p46
sS'x'
I657
sg18
I0
s(dp47
S'y'
I34
sS'x'
I761
sg18
I0
s(dp48
g16
S'curve'
p49
sS'x'
I868
sg18
I0
sS'y'
I139
s(dp50
g16
S'line'
p51
sS'x'
I836
sg18
I0
sS'y'
I197
s(dp52
S'y'
I103
sS'x'
I747
sg18
I0
s(dp53
S'y'
I50
sS'x'
I652
sg18
I0
s(dp54
g16
S'curve'
p55
sS'x'
I515
sg18
I1
sS'y'
I50
s(dp56
S'y'
I50
sS'x'
I347
sg18
I0
s(dp57
S'y'
I162
sS'x'
I182
sg18
I0
s(dp58
g16
S'curve'
p59
sS'x'
I169
sg18
I0
sS'y'
I383
stp60
stp61
sS'components'
p62
(tsS'anchors'
p63
(tsss."
AnchorPoint: "bot" 489 0 basechar 0
LayerCount: 2
Fore
SplineSet
190 456 m 1
 203 620 326 730 474 730 c 0
 609 730 725 633 742 456 c 1
 190 456 l 1
492 -20 m 0
 635 -20 773 40 855 129 c 1
 809 210 l 1
 734 136 620 79 496 79 c 0
 339 79 199 189 189 375 c 1
 870 375 l 1
 867 671 682 826 475 826 c 0
 245 826 53 666 53 401 c 0
 53 145 249 -20 492 -20 c 0
EndSplineSet
EndChar

StartChar: eight
Encoding: 56 56 225
Width: 1045
VWidth: 0
Flags: HW
PickledData: "(dp1
S'org.robofab.postScriptHintData'
p2
(dp3
sS'com.typemytype.robofont.layerData'
p4
(dp5
S'b'
(dp6
S'name'
p7
S'eight'
p8
sS'lib'
p9
(dp10
sS'unicodes'
p11
(tsS'width'
p12
I964
sS'contours'
p13
(tsS'components'
p14
(tsS'anchors'
p15
(tsss."
LayerCount: 2
Fore
SplineSet
523 -22 m 256
 779 -22 928 115 928 306 c 256
 928 452 849 560 692 601 c 257
 834 647 891 749 891 876 c 256
 891 1056 749 1174 523 1174 c 256
 297 1174 154 1055 154 875 c 256
 154 751 209 662 349 605 c 257
 190 567 117 451 117 306 c 256
 117 117 261 -22 523 -22 c 256
523 78 m 256
 359 78 256 170 256 311 c 256
 256 454 348 547 433 565 c 257
 673 535 789 469 789 310 c 256
 789 169 686 78 523 78 c 256
610 636 m 257
 401 656 288 723 288 865 c 256
 288 994 375 1075 523 1075 c 256
 673 1075 759 991 759 865 c 256
 759 732 673 658 610 636 c 257
EndSplineSet
EndChar

StartChar: emdash
Encoding: 8212 8212 228
Width: 1323
VWidth: 0
Flags: HW
PickledData: "(dp1
S'org.robofab.postScriptHintData'
p2
(dp3
sS'com.typemytype.robofont.layerData'
p4
(dp5
S'b'
(dp6
S'name'
p7
S'emdash'
p8
sS'lib'
p9
(dp10
sS'unicodes'
p11
(tsS'width'
p12
I1309
sS'contours'
p13
(tsS'components'
p14
(tsS'anchors'
p15
(tsss."
LayerCount: 2
Fore
SplineSet
0 453 m 257
 1323 453 l 257
 1323 539 l 257
 0 539 l 257
 0 453 l 257
EndSplineSet
EndChar

StartChar: emptyset
Encoding: 8709 8709 229
Width: 1348
VWidth: 0
Flags: HW
PickledData: "(dp1
S'org.robofab.postScriptHintData'
p2
(dp3
s."
LayerCount: 2
Fore
SplineSet
236 -54 m 257
 349 79 l 257
 441 15 553 -22 674 -22 c 256
 977 -22 1224 222 1224 525 c 256
 1224 678 1161 816 1059 916 c 257
 1177 1055 l 257
 1128 1099 l 257
 1009 959 l 257
 916 1030 800 1073 674 1073 c 256
 372 1073 124 841 124 525 c 256
 124 359 192 216 299 119 c 257
 189 -11 l 257
 236 -54 l 257
350 179 m 257
 260 263 205 385 205 524 c 256
 205 793 411 999 674 999 c 256
 782 999 881 961 960 900 c 257
 350 179 l 257
673 52 m 256
 570 52 476 83 399 138 c 257
 1009 856 l 257
 1092 770 1144 652 1144 524 c 256
 1144 269 936 52 673 52 c 256
EndSplineSet
EndChar

StartChar: endash
Encoding: 8211 8211 230
Width: 776
VWidth: 0
Flags: HW
PickledData: "(dp1
S'org.robofab.postScriptHintData'
p2
(dp3
sS'com.typemytype.robofont.layerData'
p4
(dp5
S'b'
(dp6
S'name'
p7
S'endash'
p8
sS'lib'
p9
(dp10
sS'unicodes'
p11
(tsS'width'
p12
I1113
sS'contours'
p13
(tsS'components'
p14
(tsS'anchors'
p15
(tsss."
LayerCount: 2
Fore
SplineSet
0 442 m 257
 776 442 l 257
 776 528 l 257
 0 528 l 257
 0 442 l 257
EndSplineSet
EndChar

StartChar: eng
Encoding: 331 331 231
Width: 1046
VWidth: 0
Flags: HW
PickledData: "(dp1
S'org.robofab.postScriptHintData'
p2
(dp3
s."
LayerCount: 2
Fore
SplineSet
481 -336 m 257
 718 -336 895 -239 895 20 c 258
 895 562 l 258
 895 731 781 826 635 826 c 256
 514 826 381 757 262 668 c 257
 262 575 l 257
 367 656 500 723 603 723 c 256
 703 723 766 657 766 543 c 258
 766 9 l 258
 766 -159 679 -241 482 -241 c 257
 481 -336 l 257
EndSplineSet
Refer: 299 -1 N 1 0 0 1 -73 0 2
EndChar

StartChar: equal
Encoding: 61 61 233
Width: 992
VWidth: 0
Flags: HW
PickledData: "(dp1
S'org.robofab.postScriptHintData'
p2
(dp3
sS'com.typemytype.robofont.layerData'
p4
(dp5
S'b'
(dp6
S'name'
p7
S'equal'
p8
sS'lib'
p9
(dp10
sS'unicodes'
p11
(tsS'width'
p12
I715
sS'contours'
p13
(tsS'components'
p14
(tsS'anchors'
p15
(tsss."
LayerCount: 2
Fore
SplineSet
165 276 m 257
 829 276 l 257
 829 377 l 257
 165 377 l 257
 165 276 l 257
165 599 m 257
 829 599 l 257
 829 700 l 257
 165 700 l 257
 165 599 l 257
EndSplineSet
EndChar

StartChar: estimated
Encoding: 8494 8494 234
Width: 891
VWidth: 0
Flags: HW
PickledData: "(dp1
S'org.robofab.postScriptHintData'
p2
(dp3
s."
LayerCount: 2
Fore
SplineSet
562 -17 m 256
 702 -17 830 38 928 127 c 257
 902 158 l 257
 809.02725948 80.6858263041 702.645651733 35.9360444437 593.165891396 35.9360444437 c 0
 410.469184511 35.9360444437 286.093687291 179.443349623 273 397 c 257
 924 397 l 257
 924 659 792 823 543 823 c 256
 291 823 122 663 122 413 c 256
 122 141.850390495 320.751380662 -17.0046889353 559.750144178 -17.0046889353 c 0
 560.499701875 -17.0046889353 561.249655445 -17.0031264356 562 -17 c 256
275 447 m 257
 280.977427327 660.194908003 408.038626019 792.00564181 560.274257207 792.00564181 c 0
 560.849147524 792.00564181 561.424396843 792.003762112 562 792 c 256
 707 792 835 664 840 447 c 257
 275 447 l 257
EndSplineSet
EndChar

StartChar: eth
Encoding: 240 240 235
Width: 962
VWidth: 0
Flags: HW
PickledData: "(dp1
S'org.robofab.postScriptHintData'
p2
(dp3
sS'com.typemytype.robofont.layerData'
p4
(dp5
S'b'
(dp6
S'name'
p7
S'eth'
p8
sS'lib'
p9
(dp10
sS'unicodes'
p11
(tsS'width'
p12
I886
sS'contours'
p13
(tsS'components'
p14
(tsS'anchors'
p15
(tsss."
LayerCount: 2
Fore
SplineSet
482 -21 m 256
 712 -21 887 146 887 399 c 256
 887 843 496 1140 215 1367 c 257
 149 1287 l 257
 361 1123 596 928 698 712 c 257
 662 744 576 792 461 792 c 256
 259 792 77 630 77 423 c 256
 77 184 215 -21 482 -21 c 256
483 84 m 256
 297 84 202 241 202 406 c 256
 202 594 327 697 475 697 c 256
 623 697 766 600 766 401 c 256
 766 244 685 84 483 84 c 256
216 891 m 257
 807 1154 l 257
 766 1233 l 257
 175 973 l 257
 216 891 l 257
EndSplineSet
EndChar

StartChar: exclam
Encoding: 33 33 236
Width: 347
VWidth: 0
Flags: HW
PickledData: "(dp1
S'org.robofab.postScriptHintData'
p2
(dp3
sS'com.typemytype.robofont.layerData'
p4
(dp5
S'b'
(dp6
S'name'
p7
S'exclam'
p8
sS'lib'
p9
(dp10
sS'unicodes'
p11
(tsS'width'
p12
I150
sS'contours'
p13
(tsS'components'
p14
(tsS'anchors'
p15
(tsss."
LayerCount: 2
Fore
SplineSet
144 370 m 257
 211 370 l 257
 243 829 l 257
 243 1193 l 257
 109 1193 l 257
 109 829 l 257
 144 370 l 257
176 -13 m 256
 232 -13 274 26 274 79 c 256
 274 129 232 169 176 169 c 256
 122 169 80 129 80 79 c 256
 80 26 122 -13 176 -13 c 256
EndSplineSet
EndChar

StartChar: f
Encoding: 102 102 238
Width: 695
VWidth: 0
Flags: HW
PickledData: "(dp1
S'org.robofab.postScriptHintData'
p2
(dp3
sS'com.typemytype.robofont.layerData'
p4
(dp5
S'b'
(dp6
S'name'
p7
S'f'
sS'lib'
p8
(dp9
sS'unicodes'
p10
(tsS'width'
p11
I671
sS'contours'
p12
(tsS'components'
p13
(tsS'anchors'
p14
(tsss."
AnchorPoint: "top" 387 1118 basechar 0
LayerCount: 2
Fore
SplineSet
90 0 m 1
 583 0 l 1
 583 94 l 1
 379 94 l 1
 379 711 l 1
 594 711 l 1
 594 804 l 1
 379 804 l 1
 379 987 l 2
 379 1080 417 1122 478 1122 c 0
 543 1122 570 1079 580 1009 c 1
 681 1038 l 1
 672 1167 579 1215 474 1215 c 0
 322 1215 247 1126 247 988 c 2
 247 804 l 1
 91 804 l 1
 91 711 l 1
 247 711 l 1
 247 94 l 1
 90 94 l 1
 90 0 l 1
EndSplineSet
EndChar

StartChar: ff
Encoding: 65541 -1 240
Width: 1296
VWidth: 0
Flags: HW
PickledData: "(dp1
S'org.robofab.postScriptHintData'
p2
(dp3
sS'com.typemytype.robofont.layerData'
p4
(dp5
S'b'
(dp6
S'name'
p7
S'ff'
p8
sS'lib'
p9
(dp10
sS'unicodes'
p11
(tsS'width'
p12
I1226
sS'contours'
p13
(tsS'components'
p14
(tsS'anchors'
p15
(tsss."
LayerCount: 2
Fore
SplineSet
688 0 m 257
 1135 0 l 257
 1135 93 l 257
 956 93 l 257
 956 711 l 257
 1154 711 l 257
 1154 804 l 257
 956 804 l 257
 956 988 l 258
 956 1080 998 1121 1050 1121 c 256
 1108 1121 1143 1089 1154 1009 c 257
 1254 1038 l 257
 1243 1177 1142 1215 1047 1215 c 256
 909 1215 826 1128 826 987 c 258
 826 804 l 257
 505 804 l 257
 505 711 l 257
 826 711 l 257
 826 93 l 257
 688 93 l 257
 688 0 l 257
EndSplineSet
Refer: 238 102 N 1 0 0 1 0 0 2
EndChar

StartChar: ffi
Encoding: 65542 -1 241
Width: 1728
VWidth: 0
Flags: HW
PickledData: "(dp1
S'org.robofab.postScriptHintData'
p2
(dp3
sS'com.typemytype.robofont.layerData'
p4
(dp5
S'b'
(dp6
S'name'
p7
S'ffi'
p8
sS'lib'
p9
(dp10
sS'unicodes'
p11
(tsS'width'
p12
I1699
sS'contours'
p13
(tsS'components'
p14
(tsS'anchors'
p15
(tsss."
LayerCount: 2
Fore
SplineSet
127 0 m 257
 552 0 l 257
 552 93 l 257
 395 93 l 257
 395 711 l 257
 775 711 l 257
 775 804 l 257
 395 804 l 257
 395 970 l 258
 395 1080 494 1134 626 1134 c 256
 722 1134 838 1096 916 1035 c 257
 958 1106 l 257
 865 1183 731 1226 610 1226 c 256
 421 1226 265 1140 265 975 c 258
 265 804 l 257
 122 804 l 257
 122 711 l 257
 265 711 l 257
 265 93 l 257
 127 93 l 257
 127 0 l 257
EndSplineSet
Refer: 243 64257 N 1 0 0 1 591 0 2
EndChar

StartChar: ffl
Encoding: 65543 -1 242
Width: 1784
VWidth: 0
Flags: HW
PickledData: "(dp1
S'org.robofab.postScriptHintData'
p2
(dp3
sS'com.typemytype.robofont.layerData'
p4
(dp5
S'b'
(dp6
S'name'
p7
S'ffl'
p8
sS'lib'
p9
(dp10
sS'unicodes'
p11
(tsS'width'
p12
I1801
sS'contours'
p13
(tsS'components'
p14
(tsS'anchors'
p15
(tsss."
LayerCount: 2
Fore
SplineSet
100 0 m 257
 525 0 l 257
 525 93 l 257
 369 93 l 257
 369 711 l 257
 748 711 l 257
 748 804 l 257
 369 804 l 257
 369 970 l 258
 369 1080 467 1134 599 1134 c 256
 695 1134 811 1096 890 1035 c 257
 931 1106 l 257
 838 1183 704 1226 583 1226 c 256
 394 1226 238 1140 238 975 c 258
 238 804 l 257
 96 804 l 257
 96 711 l 257
 238 711 l 257
 238 93 l 257
 100 93 l 257
 100 0 l 257
EndSplineSet
Refer: 246 64258 N 1 0 0 1 533 0 2
EndChar

StartChar: fi
Encoding: 64257 64257 243
Width: 1144
VWidth: 0
Flags: HW
PickledData: "(dp1
S'org.robofab.postScriptHintData'
p2
(dp3
sS'com.typemytype.robofont.layerData'
p4
(dp5
S'b'
(dp6
S'name'
p7
S'fi'
p8
sS'lib'
p9
(dp10
sS'unicodes'
p11
(tsS'width'
p12
I1044
sS'contours'
p13
(tsS'components'
p14
(tsS'anchors'
p15
(tsss."
LayerCount: 2
Fore
SplineSet
106 0 m 257
 564 0 l 257
 564 93 l 257
 381 93 l 257
 381 711 l 257
 843 711 l 257
 843 93 l 257
 695 93 l 257
 695 0 l 257
 1114 0 l 257
 1114 93 l 257
 973 93 l 257
 973 804 l 257
 381 804 l 257
 381 922 l 258
 381 1099 487 1174 648 1174 c 256
 721 1174 808 1155 842 1114 c 257
 824 1103 816 1082 816 1062 c 256
 816 1016 854 982 904 982 c 256
 955 982 991 1018 991 1067 c 256
 991 1180 835 1254 650 1254 c 256
 421 1254 251 1149 251 923 c 258
 251 804 l 257
 102 804 l 257
 102 711 l 257
 251 711 l 257
 251 93 l 257
 106 93 l 257
 106 0 l 257
EndSplineSet
EndChar

StartChar: five
Encoding: 53 53 244
Width: 1014
VWidth: 0
Flags: HW
PickledData: "(dp1
S'org.robofab.postScriptHintData'
p2
(dp3
sS'com.typemytype.robofont.layerData'
p4
(dp5
S'b'
(dp6
S'name'
p7
S'five'
p8
sS'lib'
p9
(dp10
sS'unicodes'
p11
(tsS'width'
p12
I964
sS'contours'
p13
(tsS'components'
p14
(tsS'anchors'
p15
(tsss."
LayerCount: 2
Fore
SplineSet
507 -22 m 256
 779 -22 936 117 936 358 c 256
 936 596 788 733 531 733 c 256
 433 733 340 695 278 629 c 257
 286 1050 l 257
 745 1050 l 257
 745 871 l 257
 867 871 l 257
 867 1152 l 257
 168 1152 l 257
 157 551 l 257
 263 508 l 257
 333 584 443 620 522 620 c 256
 700 620 800 523 800 353 c 256
 800 183 694 86 508 86 c 256
 371 86 262 149 185 254 c 257
 104 169 l 257
 196 51 328 -22 507 -22 c 256
EndSplineSet
EndChar

StartChar: fj
Encoding: 65544 -1 245
Width: 1134
VWidth: 0
Flags: HW
PickledData: "(dp1
S'org.robofab.postScriptHintData'
p2
(dp3
s."
LayerCount: 2
Fore
SplineSet
644 -297 m 257
 729 -297 l 258
 986 -297 990 -147 990 11 c 258
 990 804 l 257
 381 804 l 257
 381 922 l 258
 381 1099 487 1174 648 1174 c 256
 721 1174 808 1155 842 1114 c 257
 824 1103 816 1082 816 1062 c 256
 816 1016 854 982 904 982 c 256
 955 982 991 1018 991 1067 c 256
 991 1180 835 1254 650 1254 c 256
 421 1254 251 1149 251 923 c 258
 251 804 l 257
 102 804 l 257
 102 711 l 257
 251 711 l 257
 251 93 l 257
 106 93 l 257
 106 0 l 257
 564 0 l 257
 564 93 l 257
 381 93 l 257
 381 711 l 257
 859 711 l 257
 859 -24 l 258
 859 -142 846 -196 725 -196 c 258
 644 -196 l 257
 644 -297 l 257
EndSplineSet
EndChar

StartChar: fl
Encoding: 64258 64258 246
Width: 1236
VWidth: 0
Flags: HW
PickledData: "(dp1
S'org.robofab.postScriptHintData'
p2
(dp3
sS'com.typemytype.robofont.layerData'
p4
(dp5
S'b'
(dp6
S'name'
p7
S'fl'
p8
sS'lib'
p9
(dp10
sS'unicodes'
p11
(tsS'width'
p12
I1223
sS'contours'
p13
(tsS'components'
p14
(tsS'anchors'
p15
(tsss."
LayerCount: 2
Fore
SplineSet
106 0 m 257
 564 0 l 257
 564 93 l 257
 381 93 l 257
 381 711 l 257
 570 711 l 257
 570 804 l 257
 381 804 l 257
 381 956 l 258
 381 1082 521 1147 677 1147 c 256
 786 1147 864 1122 864 1081 c 258
 864 93 l 258
 864 57 896 0 939 0 c 258
 1169 0 l 257
 1169 93 l 257
 994 93 l 257
 994 1111 l 258
 994 1200 858 1253 684 1253 c 256
 457 1253 251 1153 251 949 c 258
 251 804 l 257
 102 804 l 257
 102 711 l 257
 251 711 l 257
 251 93 l 257
 106 93 l 257
 106 0 l 257
EndSplineSet
EndChar

StartChar: florin
Encoding: 402 402 247
Width: 951
VWidth: 0
Flags: HW
PickledData: "(dp1
S'org.robofab.postScriptHintData'
p2
(dp3
s."
LayerCount: 2
Fore
SplineSet
898.179883422 1116.53384286 m 0
 898.179883422 1176.74701119 833.295222018 1216.02465219 733.604786691 1216.02465219 c 0
 557.933297583 1216.02465219 493.818988506 1096.93038663 472 968 c 257
 440 792 l 257
 273 792 l 257
 264 715 l 257
 431 715 l 257
 330 47 l 257
 307.039418509 -121.377597599 247.761420631 -157.372354819 181.754906313 -157.372354819 c 0
 161.518159312 -157.372354819 140.64896096 -153.989003822 120 -150 c 257
 110 -220 l 257
 139.738527697 -226.815079264 170.074148393 -231.028539035 199.826607457 -231.028539035 c 0
 314.141606905 -231.028539035 419.847667031 -168.827225461 450 47 c 257
 554 715 l 257
 767 715 l 257
 776 792 l 257
 565 792 l 257
 594 971 l 257
 614.519304587 1111.70380288 652.223991246 1154.06903058 706.181170851 1154.06903058 c 0
 754.921307589 1154.06903058 777.461084302 1115.84457209 777.461084302 1044.82755307 c 0
 777.461084302 1039.08894892 777.307238483 1033.14476966 777 1027 c 257
 865.528162314 1027 898.179883422 1069.68070178 898.179883422 1116.53384286 c 0
EndSplineSet
EndChar

StartChar: foundryicon
Encoding: 65545 -1 248
Width: 1347
VWidth: 0
Flags: HW
PickledData: "(dp1
S'org.robofab.postScriptHintData'
p2
(dp3
sS'com.typemytype.robofont.layerData'
p4
(dp5
S'b'
(dp6
S'name'
p7
S'foundryicon'
p8
sS'lib'
p9
(dp10
sS'unicodes'
p11
(tsS'width'
p12
I313
sS'contours'
p13
(tsS'components'
p14
(tsS'anchors'
p15
(tsss."
LayerCount: 2
Fore
SplineSet
485 405 m 257
 485 672 l 257
 591 672 l 257
 761 523 l 257
 761 672 l 257
 867 672 l 257
 867 405 l 257
 761 405 l 257
 591 552 l 257
 591 405 l 257
 485 405 l 257
280 2 m 257
 669 278 l 257
 1066 2 l 257
 922 461 l 257
 1313 755 l 257
 828 755 l 257
 669 1215 l 257
 519 755 l 257
 34 755 l 257
 423 461 l 257
 280 2 l 257
EndSplineSet
EndChar

StartChar: four
Encoding: 52 52 249
Width: 969
VWidth: 0
Flags: HW
PickledData: "(dp1
S'org.robofab.postScriptHintData'
p2
(dp3
sS'com.typemytype.robofont.layerData'
p4
(dp5
S'b'
(dp6
S'name'
p7
S'four'
p8
sS'lib'
p9
(dp10
sS'unicodes'
p11
(tsS'width'
p12
I964
sS'contours'
p13
(tsS'components'
p14
(tsS'anchors'
p15
(tsss."
LayerCount: 2
Fore
SplineSet
406 0 m 257
 816 0 l 257
 816 94 l 257
 676 94 l 257
 676 350 l 257
 872 350 l 257
 872 443 l 257
 676 443 l 257
 676 1152 l 257
 552 1152 l 257
 69 458 l 257
 84 350 l 257
 555 350 l 257
 555 94 l 257
 406 94 l 257
 406 0 l 257
190 443 m 257
 555 997 l 257
 555 443 l 257
 190 443 l 257
EndSplineSet
EndChar

StartChar: foursuperior
Encoding: 8308 8308 250
Width: 861
VWidth: 0
Flags: HW
PickledData: "(dp1
S'org.robofab.postScriptHintData'
p2
(dp3
sS'com.typemytype.robofont.layerData'
p4
(dp5
S'b'
(dp6
S'name'
p7
S'uni2074'
p8
sS'lib'
p9
(dp10
sS'unicodes'
p11
(tsS'width'
p12
I718
sS'contours'
p13
(tsS'components'
p14
(tsS'anchors'
p15
(tsss."
LayerCount: 2
Fore
SplineSet
357 538 m 257
 670 538 l 257
 670 609 l 257
 561 609 l 257
 561 773 l 257
 718 773 l 257
 718 843 l 257
 561 843 l 257
 561 1336 l 257
 469 1336 l 257
 108 852 l 257
 121 773 l 257
 472 773 l 257
 472 609 l 257
 357 609 l 257
 357 538 l 257
202 843 m 257
 472 1221 l 257
 472 843 l 257
 202 843 l 257
EndSplineSet
EndChar

StartChar: fraction
Encoding: 8260 8260 251
Width: 545
VWidth: 0
Flags: HW
PickledData: "(dp1
S'org.robofab.postScriptHintData'
p2
(dp3
sS'com.typemytype.robofont.layerData'
p4
(dp5
S'b'
(dp6
S'name'
p7
S'fraction'
p8
sS'lib'
p9
(dp10
sS'unicodes'
p11
(tsS'width'
p12
I337
sS'contours'
p13
(tsS'components'
p14
(tsS'anchors'
p15
(tsss."
LayerCount: 2
Fore
SplineSet
-88 -39 m 257
 9 -39 l 257
 621 1268 l 257
 528 1268 l 257
 -88 -39 l 257
EndSplineSet
EndChar

StartChar: g
Encoding: 103 103 252
Width: 1043
VWidth: 0
Flags: HW
PickledData: "(dp1
S'org.robofab.postScriptHintData'
p2
(dp3
sS'com.typemytype.robofont.layerData'
p4
(dp5
S'b'
(dp6
S'name'
p7
S'g'
sS'lib'
p8
(dp9
sS'unicodes'
p10
(tsS'width'
p11
I1013
sS'contours'
p12
((dp13
S'points'
p14
((dp15
S'segmentType'
p16
S'curve'
p17
sS'x'
I510
sS'smooth'
p18
I1
sS'y'
S'-333'
p19
s(dp20
S'y'
S'-333'
p21
sS'x'
I722
sg18
I0
s(dp22
S'y'
S'-225'
p23
sS'x'
I880
sg18
I0
s(dp24
g16
S'curve'
p25
sS'x'
I880
sg18
I0
sS'y'
I15
s(dp26
g16
S'line'
p27
sS'x'
I880
sg18
I0
sS'y'
I735
s(dp28
g16
S'line'
p29
sS'x'
I1005
sg18
I0
sS'y'
I735
s(dp30
g16
S'line'
p31
sS'x'
I1005
sg18
I0
sS'y'
I789
s(dp32
g16
S'line'
p33
sS'x'
I804
sg18
I0
sS'y'
I789
s(dp34
g16
S'line'
p35
sS'x'
I804
sg18
I0
sS'y'
I673
s(dp36
S'y'
I673
sS'x'
I804
sg18
I0
s(dp37
S'y'
S'-2'
p38
sS'x'
I804
sg18
I0
s(dp39
g16
S'curve'
p40
sS'x'
I804
sg18
I1
sS'y'
S'-2'
p41
s(dp42
S'y'
S'-173'
p43
sS'x'
I804
sg18
I0
s(dp44
S'y'
S'-271'
p45
sS'x'
I695
sg18
I0
s(dp46
g16
S'curve'
p47
sS'x'
I515
sg18
I1
sS'y'
S'-271'
p48
s(dp49
S'y'
S'-271'
p50
sS'x'
I444
sg18
I0
s(dp51
S'y'
S'-255'
p52
sS'x'
I362
sg18
I0
s(dp53
g16
S'curve'
p54
sS'x'
I272
sg18
I0
sS'y'
S'-224'
p55
s(dp56
g16
S'line'
p57
sS'x'
I257
sg18
I0
sS'y'
S'-289'
p58
s(dp59
S'y'
S'-318'
p60
sS'x'
I345
sg18
I0
s(dp61
S'y'
S'-333'
p62
sS'x'
I431
sg18
I0
stp63
stp64
sS'components'
p65
(tsS'anchors'
p66
(tsss."
AnchorPoint: "top" 500 804 basechar 0
LayerCount: 2
Fore
SplineSet
480 -383 m 0
 716 -383 885 -277 885 -18 c 2
 885 711 l 1
 1020 711 l 1
 1020 804 l 1
 755 804 l 1
 755 727 l 1
 670 789 561 824 459 824 c 0
 241.212559758 824 62.9834015588 672.689571183 62.9834015588 411.374931979 c 0
 62.9834015588 152.436117268 250.072488924 -7 477 -7 c 0
 572 -7 673 26 755 87 c 1
 755 -29 l 2
 755 -196 655 -279 478 -279 c 0
 398 -279 306 -262 207 -232 c 1
 181 -334 l 1
 283 -364 386 -383 480 -383 c 0
755 637 m 1
 755 177 l 1
 678 122 585 90 503 90 c 0
 330 90 197 205 197 400 c 0
 197 607 317 727 483 727 c 0
 571 727 670 694 755 637 c 1
EndSplineSet
EndChar

StartChar: germandbls
Encoding: 223 223 259
Width: 1167
VWidth: 0
Flags: HW
PickledData: "(dp1
S'org.robofab.postScriptHintData'
p2
(dp3
sS'com.typemytype.robofont.layerData'
p4
(dp5
S'b'
(dp6
S'name'
p7
S'germandbls'
p8
sS'lib'
p9
(dp10
sS'unicodes'
p11
(tsS'width'
p12
I1198
sS'contours'
p13
(tsS'components'
p14
(tsS'anchors'
p15
(tsss."
LayerCount: 2
Fore
SplineSet
72 0 m 257
 484 0 l 257
 484 97 l 257
 365 97 l 257
 365 852 l 258
 365 1032 449 1145 609 1145 c 256
 756 1145 833 1070 833 949 c 256
 833 807 745 717 589 712 c 257
 589 623 l 257
 819 623 958 523 958 361 c 256
 958 194 813 97 598 97 c 257
 598 0 l 257
 907 0 1097 142 1097 361 c 256
 1097 523 986 650 767 682 c 257
 888 719 965 823 965 955 c 256
 965 1141 832 1247 609 1247 c 256
 367 1247 226 1099 226 847 c 258
 226 97 l 257
 72 97 l 257
 72 0 l 257
EndSplineSet
EndChar

StartChar: grave
Encoding: 96 96 260
Width: 288
VWidth: 0
Flags: HW
PickledData: "(dp1
S'org.robofab.postScriptHintData'
p2
(dp3
sS'com.typemytype.robofont.layerData'
p4
(dp5
S'b'
(dp6
S'name'
p7
S'grave'
p8
sS'lib'
p9
(dp10
sS'unicodes'
p11
(tsS'width'
p12
I50
sS'contours'
p13
(tsS'components'
p14
(tsS'anchors'
p15
(tsss."
AnchorPoint: "top" 201 804 mark 0
LayerCount: 2
Fore
SplineSet
157 979 m 257
 239 979 l 257
 134 1266 l 257
 -12 1266 l 257
 157 979 l 257
EndSplineSet
EndChar

StartChar: greater
Encoding: 62 62 261
Width: 998
VWidth: 0
Flags: HW
PickledData: "(dp1
S'org.robofab.postScriptHintData'
p2
(dp3
sS'com.typemytype.robofont.layerData'
p4
(dp5
S'b'
(dp6
S'name'
p7
S'greater'
p8
sS'lib'
p9
(dp10
sS'unicodes'
p11
(tsS'width'
p12
I896
sS'contours'
p13
(tsS'components'
p14
(tsS'anchors'
p15
(tsss."
LayerCount: 2
Fore
SplineSet
148 5 m 257
 1015 541 l 257
 1015 626 l 257
 148 1166 l 257
 148 1041 l 257
 885 584 l 257
 148 129 l 257
 148 5 l 257
EndSplineSet
EndChar

StartChar: greaterequal
Encoding: 8805 8805 262
Width: 841
VWidth: 0
Flags: HW
PickledData: "(dp1
S'org.robofab.postScriptHintData'
p2
(dp3
sS'com.typemytype.robofont.layerData'
p4
(dp5
S'b'
(dp6
S'name'
p7
S'greaterequal'
p8
sS'lib'
p9
(dp10
sS'unicodes'
p11
(tsS'width'
p12
I595
sS'contours'
p13
(tsS'components'
p14
(tsS'anchors'
p15
(tsss."
LayerCount: 2
Fore
SplineSet
71 199 m 257
 832 605 l 257
 832 662 l 257
 71 1070 l 257
 71 960 l 257
 678 632 l 257
 71 308 l 257
 71 199 l 257
71 0 m 257
 832 0 l 257
 832 96 l 257
 71 96 l 257
 71 0 l 257
EndSplineSet
EndChar

StartChar: guillemotleft
Encoding: 171 171 263
Width: 862
VWidth: 0
Flags: HW
PickledData: "(dp1
S'org.robofab.postScriptHintData'
p2
(dp3
sS'com.typemytype.robofont.layerData'
p4
(dp5
S'b'
(dp6
S'name'
p7
S'guillemotleft'
p8
sS'lib'
p9
(dp10
sS'unicodes'
p11
(tsS'width'
p12
I744
sS'contours'
p13
(tsS'components'
p14
(tsS'anchors'
p15
(tsss."
LayerCount: 2
Fore
SplineSet
334 216 m 257
 428 216 l 257
 218 612 l 257
 428 1005 l 257
 334 1005 l 257
 43 611 l 257
 334 216 l 257
685 216 m 257
 778 216 l 257
 568 612 l 257
 778 1005 l 257
 685 1005 l 257
 393 611 l 257
 685 216 l 257
EndSplineSet
EndChar

StartChar: guillemotright
Encoding: 187 187 264
Width: 862
VWidth: 0
Flags: HW
PickledData: "(dp1
S'org.robofab.postScriptHintData'
p2
(dp3
sS'com.typemytype.robofont.layerData'
p4
(dp5
S'b'
(dp6
S'name'
p7
S'guillemotright'
p8
sS'lib'
p9
(dp10
sS'unicodes'
p11
(tsS'width'
p12
I744
sS'contours'
p13
(tsS'components'
p14
(tsS'anchors'
p15
(tsss."
LayerCount: 2
Fore
SplineSet
83 216 m 257
 177 216 l 257
 468 611 l 257
 177 1005 l 257
 83 1005 l 257
 293 612 l 257
 83 216 l 257
433 216 m 257
 527 216 l 257
 819 611 l 257
 527 1005 l 257
 433 1005 l 257
 644 612 l 257
 433 216 l 257
EndSplineSet
EndChar

StartChar: guilsinglleft
Encoding: 8249 8249 265
Width: 525
VWidth: 0
Flags: HW
PickledData: "(dp1
S'org.robofab.postScriptHintData'
p2
(dp3
sS'com.typemytype.robofont.layerData'
p4
(dp5
S'b'
(dp6
S'name'
p7
S'guilsinglleft'
p8
sS'lib'
p9
(dp10
sS'unicodes'
p11
(tsS'width'
p12
I405
sS'contours'
p13
(tsS'components'
p14
(tsS'anchors'
p15
(tsss."
LayerCount: 2
Fore
SplineSet
309 216 m 257
 403 216 l 257
 193 612 l 257
 403 1005 l 257
 309 1005 l 257
 18 611 l 257
 309 216 l 257
EndSplineSet
EndChar

StartChar: guilsinglright
Encoding: 8250 8250 266
Width: 525
VWidth: 0
Flags: HW
PickledData: "(dp1
S'org.robofab.postScriptHintData'
p2
(dp3
sS'com.typemytype.robofont.layerData'
p4
(dp5
S'b'
(dp6
S'name'
p7
S'guilsinglright'
p8
sS'lib'
p9
(dp10
sS'unicodes'
p11
(tsS'width'
p12
I405
sS'contours'
p13
(tsS'components'
p14
(tsS'anchors'
p15
(tsss."
LayerCount: 2
Fore
SplineSet
122 216 m 257
 216 216 l 257
 507 612 l 257
 216 1005 l 257
 122 1005 l 257
 332 612 l 257
 122 216 l 257
EndSplineSet
EndChar

StartChar: h
Encoding: 104 104 267
Width: 1045
VWidth: 0
Flags: HW
PickledData: "(dp1
S'org.robofab.postScriptHintData'
p2
(dp3
sS'com.typemytype.robofont.layerData'
p4
(dp5
S'b'
(dp6
S'name'
p7
S'h'
sS'lib'
p8
(dp9
sS'unicodes'
p10
(tsS'width'
p11
I965
sS'contours'
p12
(tsS'components'
p13
(tsS'anchors'
p14
(tsss."
AnchorPoint: "top" 593 1050 basechar 0
LayerCount: 2
Fore
SplineSet
39 0 m 1
 455 0 l 1
 455 93 l 1
 320 93 l 1
 320 619 l 1
 412 679 516 723 599 723 c 0
 700 723 762 657 762 543 c 2
 762 93 l 1
 619 93 l 1
 619 0 l 1
 1040 0 l 1
 1040 93 l 1
 891 93 l 1
 891 562 l 2
 891 731 778 826 632 826 c 0
 532 826 423 778 320 711 c 1
 320 1174 l 1
 44 1174 l 1
 44 1081 l 1
 190 1081 l 1
 190 93 l 1
 39 93 l 1
 39 0 l 1
EndSplineSet
EndChar

StartChar: hungarumlaut
Encoding: 733 733 270
Width: 581
VWidth: 0
Flags: HW
PickledData: "(dp1
S'org.robofab.postScriptHintData'
p2
(dp3
sS'com.typemytype.robofont.layerData'
p4
(dp5
S'b'
(dp6
S'name'
p7
S'hungarumlaut'
p8
sS'lib'
p9
(dp10
sS'unicodes'
p11
(tsS'width'
p12
I356
sS'contours'
p13
(tsS'components'
p14
(tsS'anchors'
p15
(tsss."
AnchorPoint: "top" 221 804 mark 0
LayerCount: 2
Fore
SplineSet
447 1288 m 257
 333 979 l 257
 415 979 l 257
 592 1288 l 257
 447 1288 l 257
188 1288 m 257
 75 979 l 257
 156 979 l 257
 334 1288 l 257
 188 1288 l 257
EndSplineSet
EndChar

StartChar: hyphen
Encoding: 45 45 271
Width: 751
VWidth: 0
Flags: HW
PickledData: "(dp1
S'org.robofab.postScriptHintData'
p2
(dp3
sS'com.typemytype.robofont.layerData'
p4
(dp5
S'b'
(dp6
S'name'
p7
S'hyphen'
p8
sS'lib'
p9
(dp10
sS'unicodes'
p11
(tsS'width'
p12
I915
sS'contours'
p13
(tsS'components'
p14
(tsS'anchors'
p15
(tsss."
LayerCount: 2
Fore
SplineSet
127 392 m 257
 623 392 l 257
 623 491 l 257
 127 491 l 257
 127 392 l 257
EndSplineSet
EndChar

StartChar: i
Encoding: 105 105 272
Width: 608
VWidth: 0
Flags: HW
PickledData: "(dp1
S'org.robofab.postScriptHintData'
p2
(dp3
sS'com.typemytype.robofont.layerData'
p4
(dp5
S'b'
(dp6
S'name'
p7
S'i'
sS'lib'
p8
(dp9
sS'unicodes'
p10
(tsS'width'
p11
I531
sS'contours'
p12
(tsS'components'
p13
(tsS'anchors'
p14
(tsss."
LayerCount: 2
Fore
SplineSet
322 989 m 0
 378 989 421 1029 421 1081 c 0
 421 1132 378 1172 322 1172 c 0
 268 1172 226 1132 226 1081 c 0
 226 1029 268 989 322 989 c 0
117 0 m 1
 557 0 l 1
 557 93 l 1
 407 93 l 1
 407 330 407 567 407 804 c 1
 118 804 l 1
 118 711 l 1
 278 711 l 1
 278 93 l 1
 117 93 l 1
 117 0 l 1
EndSplineSet
EndChar

StartChar: infinity
Encoding: 8734 8734 281
Width: 1443
VWidth: 0
Flags: HW
PickledData: "(dp1
S'org.robofab.postScriptHintData'
p2
(dp3
sS'com.typemytype.robofont.layerData'
p4
(dp5
S'b'
(dp6
S'name'
p7
S'infinity'
p8
sS'lib'
p9
(dp10
sS'unicodes'
p11
(tsS'width'
p12
I1244
sS'contours'
p13
(tsS'components'
p14
(tsS'anchors'
p15
(tsss."
LayerCount: 2
Fore
SplineSet
1019 235 m 256
 1172 235 1300 372 1300 569 c 256
 1300 780 1174 903 1020 903 c 256
 896 903 801 830 727 692 c 257
 648 847 529 908 428 908 c 256
 253 908 143 757 143 574 c 256
 143 379 249 240 428 240 c 256
 534 240 638 308 716 457 c 257
 801 295 908 235 1019 235 c 256
426 331 m 256
 302 331 241 440 241 573 c 256
 241 697 306 817 423 817 c 256
 525 817 602 732 670 574 c 257
 594 407 516 331 426 331 c 256
1018 327 m 256
 914 327 844 401 772 569 c 257
 847 731 919 811 1016 811 c 256
 1128 811 1202 706 1202 571 c 256
 1202 430 1128 327 1018 327 c 256
EndSplineSet
EndChar

StartChar: integral
Encoding: 8747 8747 282
Width: 798
VWidth: 0
Flags: HW
PickledData: "(dp1
S'org.robofab.postScriptHintData'
p2
(dp3
s."
LayerCount: 2
Fore
SplineSet
90 -38 m 257
 -0.418420860068 -38 -30.2938690156 -79.9101619099 -30.2938690156 -127.345626508 c 0
 -30.2938690156 -186.693404607 28.2382407604 -231 132 -231 c 256
 324 -231 370 -91 388 43 c 257
 520 971 l 257
 537.596760308 1110.79648467 579.085956831 1154.06752703 633.256136949 1154.06752703 c 0
 681.148933853 1154.06752703 704.445260692 1115.57969767 704.445260692 1044.25954943 c 0
 704.445260692 1038.69695923 704.297113672 1032.94227343 704 1027 c 257
 792.231796988 1027 824.273280669 1069.92095581 824.273280669 1117.71558014 c 0
 824.273280669 1177.28006592 758.592694979 1216.02485526 659.568014293 1216.02485526 c 0
 483.858736366 1216.02485526 415.850681759 1097.91329502 398 968 c 258
 263 14 l 257
 246 -122 213 -170 161 -170 c 256
 115.876031964 -170 89.4092046226 -136.077926008 89.4092046226 -58.8621540503 c 0
 89.4092046226 -52.2295192616 89.6044865343 -45.2774477684 90 -38 c 257
EndSplineSet
EndChar

StartChar: j
Encoding: 106 106 285
Width: 487
VWidth: 0
Flags: HW
PickledData: "(dp1
S'org.robofab.postScriptHintData'
p2
(dp3
sS'com.typemytype.robofont.layerData'
p4
(dp5
S'b'
(dp6
S'name'
p7
S'j'
sS'lib'
p8
(dp9
sS'unicodes'
p10
(tsS'width'
p11
I398
sS'contours'
p12
(tsS'components'
p13
(tsS'anchors'
p14
(tsss."
LayerCount: 2
Fore
SplineSet
264 989 m 0
 320 989 363 1029 363 1081 c 0
 363 1132 320 1172 264 1172 c 0
 210 1172 168 1132 168 1081 c 0
 168 1029 210 989 264 989 c 0
12 -297 m 1
 98 -297 l 2
 355 -297 359 -147 359 11 c 2
 359 804 l 1
 65 804 l 1
 65 712 l 1
 228 712 l 1
 228 -24 l 2
 228 -142 215 -196 93 -196 c 2
 12 -196 l 1
 12 -297 l 1
EndSplineSet
EndChar

StartChar: k
Encoding: 107 107 287
Width: 1011
VWidth: 0
Flags: HW
PickledData: "(dp1
S'org.robofab.postScriptHintData'
p2
(dp3
sS'com.typemytype.robofont.guides'
p4
((dp5
S'y'
I421
sS'x'
I474
sS'magnetic'
p6
I5
sS'angle'
p7
I0
sS'isGlobal'
p8
I0
stp9
sS'com.typemytype.robofont.layerData'
p10
(dp11
S'b'
(dp12
S'name'
p13
S'k'
sS'lib'
p14
(dp15
sS'unicodes'
p16
(tsS'width'
p17
I927
sS'contours'
p18
(tsS'components'
p19
(tsS'anchors'
p20
(tsss."
AnchorPoint: "bot" 544 0 basechar 0
AnchorPoint: "top" 669 970 basechar 0
LayerCount: 2
Fore
SplineSet
746 0 m 1
 976 0 l 1
 976 94 l 1
 811 94 l 1
 471 420 l 1
 842 711 l 1
 971 711 l 1
 971 804 l 1
 552 804 l 1
 552 711 l 1
 706 711 l 1
 336 429 l 1
 336 1174 l 1
 60 1174 l 1
 60 1081 l 1
 206 1081 l 1
 206 93 l 1
 55 93 l 1
 55 0 l 1
 471 0 l 1
 471 93 l 1
 336 93 l 1
 336 401 l 1
 746 0 l 1
EndSplineSet
EndChar

StartChar: kgreenlandic
Encoding: 312 312 289
Width: 1040
VWidth: 0
Flags: HW
PickledData: "(dp1
S'org.robofab.postScriptHintData'
p2
(dp3
sS'com.typemytype.robofont.layerData'
p4
(dp5
S'b'
(dp6
S'name'
p7
S'kgreenlandic'
p8
sS'lib'
p9
(dp10
sS'unicodes'
p11
(tsS'width'
p12
I927
sS'contours'
p13
(tsS'components'
p14
(tsS'anchors'
p15
(tsss."
LayerCount: 2
Fore
SplineSet
791 0 m 257
 1002 0 l 257
 1002 94 l 257
 850 94 l 257
 499 405 l 257
 854 711 l 257
 993 711 l 257
 993 804 l 257
 566 804 l 257
 566 711 l 257
 708 711 l 257
 346 399 l 257
 791 0 l 257
77 0 m 257
 475 0 l 257
 475 94 l 257
 352 94 l 257
 352 804 l 257
 80 804 l 257
 80 711 l 257
 223 711 l 257
 223 94 l 257
 77 94 l 257
 77 0 l 257
EndSplineSet
EndChar

StartChar: l
Encoding: 108 108 290
Width: 515
VWidth: 0
Flags: HW
PickledData: "(dp1
S'org.robofab.postScriptHintData'
p2
(dp3
sS'com.typemytype.robofont.layerData'
p4
(dp5
S'b'
(dp6
S'name'
p7
S'l'
sS'lib'
p8
(dp9
sS'unicodes'
p10
(tsS'width'
p11
I563
sS'contours'
p12
(tsS'components'
p13
(tsS'anchors'
p14
(tsss."
AnchorPoint: "bot" 268 0 basechar 0
AnchorPoint: "top" 269 1152 basechar 0
LayerCount: 2
Fore
SplineSet
55 0 m 1
 471 0 l 1
 471 93 l 1
 336 93 l 1
 336 1174 l 1
 60 1174 l 1
 60 1081 l 1
 206 1081 l 1
 206 93 l 1
 55 93 l 1
 55 0 l 1
EndSplineSet
EndChar

StartChar: lc_ascender_stem
Encoding: 65547 -1 292
Width: 1198
VWidth: 0
Flags: HW
PickledData: "(dp1
S'org.robofab.postScriptHintData'
p2
(dp3
sS'com.schriftgestaltung.Glyphs.Export'
p4
I00
sS'com.typemytype.robofont.layerData'
p5
(dp6
S'b'
(dp7
S'name'
p8
S'lc_descender_stem'
p9
sS'lib'
p10
(dp11
sS'unicodes'
p12
(tsS'width'
p13
I1170
sS'contours'
p14
(tsS'components'
p15
(tsS'anchors'
p16
(tsss."
LayerCount: 2
Fore
SplineSet
101 0 m 257
 517 0 l 257
 517 93 l 257
 382 93 l 257
 382 1174 l 257
 106 1174 l 257
 106 1081 l 257
 252 1081 l 257
 252 93 l 257
 101 93 l 257
 101 0 l 257
EndSplineSet
EndChar

StartChar: lc_ascender_stem_1
Encoding: 65548 -1 293
Width: 942
VWidth: 0
Flags: HW
PickledData: "(dp1
S'org.robofab.postScriptHintData'
p2
(dp3
sS'com.schriftgestaltung.Glyphs.Export'
p4
I00
sS'com.typemytype.robofont.layerData'
p5
(dp6
S'b'
(dp7
S'name'
p8
S'lc_ascender_stem_1'
p9
sS'lib'
p10
(dp11
sS'unicodes'
p12
(tsS'width'
p13
I1378
sS'contours'
p14
(tsS'components'
p15
(tsS'anchors'
p16
(tsss."
LayerCount: 2
Fore
SplineSet
106 0 m 257
 383 0 l 257
 383 1174 l 257
 111 1174 l 257
 111 1081 l 257
 252 1081 l 257
 252 93 l 257
 106 93 l 257
 106 0 l 257
EndSplineSet
EndChar

StartChar: lc_ascender_stem_2
Encoding: 65549 -1 294
Width: 942
VWidth: 0
Flags: HW
PickledData: "(dp1
S'org.robofab.postScriptHintData'
p2
(dp3
sS'com.schriftgestaltung.Glyphs.Export'
p4
I00
sS'com.typemytype.robofont.layerData'
p5
(dp6
S'b'
(dp7
S'name'
p8
S'lc_descender_stem'
p9
sS'lib'
p10
(dp11
sS'unicodes'
p12
(tsS'width'
p13
I1378
sS'contours'
p14
(tsS'components'
p15
(tsS'anchors'
p16
(tsss."
LayerCount: 2
Fore
SplineSet
252 0 m 257
 512 0 l 257
 512 93 l 257
 382 93 l 257
 382 1174 l 257
 110 1174 l 257
 110 1081 l 257
 252 1081 l 257
 252 0 l 257
EndSplineSet
EndChar

StartChar: lc_bowl_left
Encoding: 65550 -1 295
Width: 1224
VWidth: 0
Flags: HW
PickledData: "(dp1
S'org.robofab.postScriptHintData'
p2
(dp3
sS'com.schriftgestaltung.Glyphs.Export'
p4
I00
sS'com.typemytype.robofont.layerData'
p5
(dp6
S'b'
(dp7
S'name'
p8
S'lc_bowl_left'
p9
sS'lib'
p10
(dp11
sS'unicodes'
p12
(tsS'width'
p13
I1179
sS'contours'
p14
((dp15
S'points'
p16
((dp17
S'segmentType'
p18
S'line'
p19
sS'x'
I134
sS'smooth'
p20
I0
sS'y'
I121
s(dp21
S'y'
I36
sS'x'
I206
sg20
I0
s(dp22
S'y'
S'-16'
p23
sS'x'
I320
sg20
I0
s(dp24
g18
S'curve'
p25
sS'x'
I464
sg20
I1
sS'y'
S'-16'
p26
s(dp27
S'y'
S'-16'
p28
sS'x'
I739
sg20
I0
s(dp29
S'y'
I185
sS'x'
I886
sg20
I0
s(dp30
g18
S'curve'
p31
sS'x'
I886
sg20
I1
sS'y'
I387
s(dp32
S'y'
I573
sS'x'
I886
sg20
I0
s(dp33
S'y'
I817
sS'x'
I774
sg20
I0
s(dp34
g18
S'curve'
p35
sS'x'
I467
sg20
I1
sS'y'
I817
s(dp36
S'y'
I817
sS'x'
I309
sg20
I0
s(dp37
S'y'
I733
sS'x'
I179
sg20
I0
s(dp38
g18
S'curve'
p39
sS'x'
I134
sg20
I0
sS'y'
I684
s(dp40
g18
S'line'
p41
sS'x'
I134
sg20
I0
sS'y'
I618
s(dp42
S'y'
I725
sS'x'
I273
sg20
I0
s(dp43
S'y'
I753
sS'x'
I353
sg20
I0
s(dp44
g18
S'curve'
p45
sS'x'
I470
sg20
I1
sS'y'
I753
s(dp46
S'y'
I753
sS'x'
I701
sg20
I0
s(dp47
S'y'
I568
sS'x'
I810
sg20
I0
s(dp48
g18
S'curve'
p49
sS'x'
I810
sg20
I1
sS'y'
I395
s(dp50
S'y'
I204
sS'x'
I810
sg20
I0
s(dp51
S'y'
I48
sS'x'
I680
sg20
I0
s(dp52
g18
S'curve'
p53
sS'x'
I468
sg20
I1
sS'y'
I48
s(dp54
S'y'
I48
sS'x'
I346
sg20
I0
s(dp55
S'y'
I62
sS'x'
I263
sg20
I0
s(dp56
g18
S'curve'
p57
sS'x'
I134
sg20
I0
sS'y'
I194
stp58
stp59
sS'components'
p60
(tsS'anchors'
p61
(tsss."
LayerCount: 2
Fore
SplineSet
562 -22 m 256
 681 -22 809 31 897 125 c 257
 897 214 l 257
 813 129 692 77 588 77 c 256
 415 77 282 194 282 393 c 256
 282 604 402 727 568 727 c 256
 676 727 800 676 894 592 c 257
 894 680 l 257
 804 772 669 825 544 825 c 256
 326.212559758 825 147.983401559 670.72270003 147.983401559 404.45779991 c 0
 147.983401559 140.512725412 335.047893734 -22 562 -22 c 256
EndSplineSet
EndChar

StartChar: lc_bowl_right
Encoding: 65551 -1 296
Width: 1224
VWidth: 0
Flags: HW
PickledData: "(dp1
S'org.robofab.postScriptHintData'
p2
(dp3
sS'com.schriftgestaltung.Glyphs.Export'
p4
I00
sS'com.typemytype.robofont.layerData'
p5
(dp6
S'b'
(dp7
S'name'
p8
S'lc_bowl_right'
p9
sS'lib'
p10
(dp11
sS'unicodes'
p12
(tsS'width'
p13
I1179
sS'contours'
p14
((dp15
S'points'
p16
((dp17
S'segmentType'
p18
S'line'
p19
sS'x'
I268
sS'smooth'
p20
I0
sS'y'
I121
s(dp21
S'y'
I36
sS'x'
I340
sg20
I0
s(dp22
S'y'
S'-16'
p23
sS'x'
I454
sg20
I0
s(dp24
g18
S'curve'
p25
sS'x'
I598
sg20
I1
sS'y'
S'-16'
p26
s(dp27
S'y'
S'-16'
p28
sS'x'
I873
sg20
I0
s(dp29
S'y'
I185
sS'x'
I1020
sg20
I0
s(dp30
g18
S'curve'
p31
sS'x'
I1020
sg20
I1
sS'y'
I387
s(dp32
S'y'
I573
sS'x'
I1020
sg20
I0
s(dp33
S'y'
I817
sS'x'
I908
sg20
I0
s(dp34
g18
S'curve'
p35
sS'x'
I601
sg20
I1
sS'y'
I817
s(dp36
S'y'
I817
sS'x'
I443
sg20
I0
s(dp37
S'y'
I733
sS'x'
I313
sg20
I0
s(dp38
g18
S'curve'
p39
sS'x'
I268
sg20
I0
sS'y'
I684
s(dp40
g18
S'line'
p41
sS'x'
I268
sg20
I0
sS'y'
I618
s(dp42
S'y'
I725
sS'x'
I407
sg20
I0
s(dp43
S'y'
I753
sS'x'
I487
sg20
I0
s(dp44
g18
S'curve'
p45
sS'x'
I604
sg20
I1
sS'y'
I753
s(dp46
S'y'
I753
sS'x'
I835
sg20
I0
s(dp47
S'y'
I568
sS'x'
I944
sg20
I0
s(dp48
g18
S'curve'
p49
sS'x'
I944
sg20
I1
sS'y'
I395
s(dp50
S'y'
I204
sS'x'
I944
sg20
I0
s(dp51
S'y'
I48
sS'x'
I814
sg20
I0
s(dp52
g18
S'curve'
p53
sS'x'
I602
sg20
I1
sS'y'
I48
s(dp54
S'y'
I48
sS'x'
I480
sg20
I0
s(dp55
S'y'
I62
sS'x'
I397
sg20
I0
s(dp56
g18
S'curve'
p57
sS'x'
I268
sg20
I0
sS'y'
I194
stp58
stp59
sS'components'
p60
(tsS'anchors'
p61
(tsss."
LayerCount: 2
Fore
SplineSet
617 -21 m 256
 847.284567115 -21 1036.0173639 138.599189819 1036.0173639 412.627440715 c 0
 1036.0173639 676.732504367 865.691056148 825 641 825 c 256
 522 825 392 772 295 675 c 257
 306 581 l 257
 396 675 510 726 608 726 c 256
 780 726 902 606 902 401 c 256
 902 192 773 76 596 76 c 256
 494 76 383 128 305 220 c 257
 298 136 l 257
 377 33 498 -21 617 -21 c 256
EndSplineSet
EndChar

StartChar: lc_descender_stem
Encoding: 65552 -1 297
Width: 1200
VWidth: 0
Flags: HW
PickledData: "(dp1
S'org.robofab.postScriptHintData'
p2
(dp3
sS'com.schriftgestaltung.Glyphs.Export'
p4
I00
sS'com.typemytype.robofont.layerData'
p5
(dp6
S'b'
(dp7
S'name'
p8
S'lc_descender_stem'
p9
sS'lib'
p10
(dp11
sS'unicodes'
p12
(tsS'width'
p13
I1192
sS'contours'
p14
(tsS'components'
p15
(tsS'anchors'
p16
(tsss."
LayerCount: 2
Fore
SplineSet
83 -318 m 257
 509 -318 l 257
 509 -225 l 257
 356 -225 l 257
 356 631 l 257
 349 804 l 257
 90 804 l 257
 90 711 l 257
 227 711 l 257
 227 -225 l 257
 83 -225 l 257
 83 -318 l 257
EndSplineSet
EndChar

StartChar: lc_xheight_curved_stem
Encoding: 65553 -1 298
Width: 1195
VWidth: 0
Flags: HW
PickledData: "(dp1
S'org.robofab.postScriptHintData'
p2
(dp3
sS'com.schriftgestaltung.Glyphs.Export'
p4
I00
sS'com.typemytype.robofont.layerData'
p5
(dp6
S'b'
(dp7
S'name'
p8
S'lc_xheight_curved_stem'
p9
sS'lib'
p10
(dp11
sS'unicodes'
p12
(tsS'width'
p13
I1142
sS'contours'
p14
((dp15
S'points'
p16
((dp17
S'segmentType'
p18
S'line'
p19
sS'x'
I351
sS'smooth'
p20
I0
sS'y'
I643
s(dp21
S'y'
I715
sS'x'
I455
sg20
I0
s(dp22
S'y'
I756
sS'x'
I545
sg20
I0
s(dp23
g18
S'curve'
p24
sS'x'
I675
sg20
I1
sS'y'
I756
s(dp25
S'y'
I756
sS'x'
I821
sg20
I0
s(dp26
S'y'
I676
sS'x'
I849
sg20
I0
s(dp27
g18
S'curve'
p28
sS'x'
I849
sg20
I1
sS'y'
I577
s(dp29
g18
S'line'
p30
sS'x'
I849
sg20
I0
sS'y'
I58
s(dp31
g18
S'line'
p32
sS'x'
I688
sg20
I0
sS'y'
I58
s(dp33
g18
S'line'
p34
sS'x'
I688
sg20
I0
sS'y'
I0
s(dp35
g18
S'line'
p36
sS'x'
I1073
sg20
I0
sS'y'
I0
s(dp37
g18
S'line'
p38
sS'x'
I1073
sg20
I0
sS'y'
I58
s(dp39
g18
S'line'
p40
sS'x'
I924
sg20
I0
sS'y'
I58
s(dp41
g18
S'line'
p42
sS'x'
I924
sg20
I1
sS'y'
I592
s(dp43
S'y'
I697
sS'x'
I924
sg20
I0
s(dp44
S'y'
I820
sS'x'
I866
sg20
I0
s(dp45
g18
S'curve'
p46
sS'x'
I682
sg20
I1
sS'y'
I820
s(dp47
S'y'
I820
sS'x'
I557
sg20
I0
s(dp48
S'y'
I789
sS'x'
I468
sg20
I0
s(dp49
g18
S'curve'
p50
sS'x'
I348
sg20
I0
sS'y'
I709
stp51
stp52
sS'components'
p53
(tsS'anchors'
p54
(tsss."
LayerCount: 2
Fore
SplineSet
713 0 m 257
 1134 0 l 257
 1134 93 l 257
 985 93 l 257
 985 562 l 258
 985 731 872 826 726 826 c 256
 605 826 472 757 352 668 c 257
 352 575 l 257
 457 656 591 723 693 723 c 256
 794 723 856 657 856 543 c 258
 856 93 l 257
 713 93 l 257
 713 0 l 257
EndSplineSet
EndChar

StartChar: lc_xheight_stem
Encoding: 65554 -1 299
Width: 968
VWidth: 0
Flags: HW
PickledData: "(dp1
S'org.robofab.postScriptHintData'
p2
(dp3
sS'com.schriftgestaltung.Glyphs.Export'
p4
I00
sS'com.typemytype.robofont.layerData'
p5
(dp6
S'b'
(dp7
S'name'
p8
S'lc_xheight_stem'
p9
sS'lib'
p10
(dp11
sS'unicodes'
p12
(tsS'width'
p13
I1324
sS'contours'
p14
(tsS'components'
p15
(tsS'anchors'
p16
(tsss."
LayerCount: 2
Fore
SplineSet
116 0 m 257
 556 0 l 257
 556 93 l 257
 406 93 l 257
 406 330 406 567 406 804 c 257
 117 804 l 257
 117 711 l 257
 277 711 l 257
 277 93 l 257
 116 93 l 257
 116 0 l 257
EndSplineSet
EndChar

StartChar: less
Encoding: 60 60 303
Width: 997
VWidth: 0
Flags: HW
PickledData: "(dp1
S'org.robofab.postScriptHintData'
p2
(dp3
sS'com.typemytype.robofont.layerData'
p4
(dp5
S'b'
(dp6
S'name'
p7
S'less'
p8
sS'lib'
p9
(dp10
sS'unicodes'
p11
(tsS'width'
p12
I896
sS'contours'
p13
(tsS'components'
p14
(tsS'anchors'
p15
(tsss."
LayerCount: 2
Fore
SplineSet
852 5 m 257
 852 129 l 257
 115 584 l 257
 852 1041 l 257
 852 1166 l 257
 -17 625 l 257
 -17 543 l 257
 852 5 l 257
EndSplineSet
EndChar

StartChar: lessequal
Encoding: 8804 8804 304
Width: 840
VWidth: 0
Flags: HW
PickledData: "(dp1
S'org.robofab.postScriptHintData'
p2
(dp3
sS'com.typemytype.robofont.layerData'
p4
(dp5
S'b'
(dp6
S'name'
p7
S'lessequal'
p8
sS'lib'
p9
(dp10
sS'unicodes'
p11
(tsS'width'
p12
I593
sS'contours'
p13
(tsS'components'
p14
(tsS'anchors'
p15
(tsss."
LayerCount: 2
Fore
SplineSet
775 199 m 257
 775 308 l 257
 168 632 l 257
 775 960 l 257
 775 1070 l 257
 14 662 l 257
 14 605 l 257
 775 199 l 257
14 0 m 257
 775 0 l 257
 775 96 l 257
 14 96 l 257
 14 0 l 257
EndSplineSet
EndChar

StartChar: logicalnot
Encoding: 172 172 306
Width: 992
VWidth: 0
Flags: HW
PickledData: "(dp1
S'org.robofab.postScriptHintData'
p2
(dp3
sS'com.typemytype.robofont.layerData'
p4
(dp5
S'b'
(dp6
S'name'
p7
S'logicalnot'
p8
sS'lib'
p9
(dp10
sS'unicodes'
p11
(tsS'width'
p12
I827
sS'contours'
p13
(tsS'components'
p14
(tsS'anchors'
p15
(tsss."
LayerCount: 2
Fore
SplineSet
772 318 m 257
 855 318 l 257
 855 764 l 257
 51 764 l 257
 51 670 l 257
 772 670 l 257
 772 318 l 257
EndSplineSet
EndChar

StartChar: lozenge
Encoding: 9674 9674 307
Width: 1053
VWidth: 0
Flags: HW
PickledData: "(dp1
S'org.robofab.postScriptHintData'
p2
(dp3
sS'com.typemytype.robofont.layerData'
p4
(dp5
S'b'
(dp6
S'name'
p7
S'lozenge'
p8
sS'lib'
p9
(dp10
sS'unicodes'
p11
(tsS'width'
p12
I948
sS'contours'
p13
(tsS'components'
p14
(tsS'anchors'
p15
(tsss."
LayerCount: 2
Fore
SplineSet
492 -14 m 257
 562 -14 l 257
 1013 606 l 257
 562 1221 l 257
 492 1221 l 257
 40 606 l 257
 492 -14 l 257
529 93 m 257
 177 606 l 257
 529 1110 l 257
 878 606 l 257
 529 93 l 257
EndSplineSet
EndChar

StartChar: lslash
Encoding: 322 322 308
Width: 505
VWidth: 0
Flags: HW
PickledData: "(dp1
S'org.robofab.postScriptHintData'
p2
(dp3
sS'com.typemytype.robofont.layerData'
p4
(dp5
S'b'
(dp6
S'name'
p7
S'lslash'
p8
sS'lib'
p9
(dp10
sS'unicodes'
p11
(tsS'width'
p12
I506
sS'contours'
p13
(tsS'components'
p14
(tsS'anchors'
p15
(tsss."
LayerCount: 2
Fore
SplineSet
50 406 m 257
 482 639 l 257
 482 753 l 257
 49 516 l 257
 50 406 l 257
EndSplineSet
Refer: 290 108 N 1 0 0 1 0 0 2
EndChar

StartChar: m
Encoding: 109 109 309
Width: 1604
VWidth: 0
Flags: HW
PickledData: "(dp1
S'org.robofab.postScriptHintData'
p2
(dp3
sS'com.typemytype.robofont.layerData'
p4
(dp5
S'b'
(dp6
S'name'
p7
S'm'
sS'lib'
p8
(dp9
sS'unicodes'
p10
(tsS'width'
p11
I1571
sS'contours'
p12
(tsS'components'
p13
(tsS'anchors'
p14
(tsss."
AnchorPoint: "top" 843 804 basechar 0
LayerCount: 2
Fore
SplineSet
43 0 m 1
 483 0 l 1
 483 93 l 1
 333 93 l 1
 333 272 333 451 333 630 c 1
 421 684 517 723 595 723 c 0
 696 723 758 657 758 543 c 2
 758 93 l 1
 615 93 l 1
 615 0 l 1
 1036 0 l 1
 1036 93 l 1
 887 93 l 1
 887 562 l 2
 887 583 885 603 882 621 c 1
 974 680 1076 723 1158 723 c 0
 1259 723 1321 657 1321 543 c 2
 1321 93 l 1
 1178 93 l 1
 1178 0 l 1
 1599 0 l 1
 1599 93 l 1
 1450 93 l 1
 1450 562 l 2
 1450 731 1337 826 1191 826 c 0
 1083 826 966 772 857 697 c 1
 814 781 729 826 628 826 c 0
 533 826 431 783 333 722 c 1
 333 804 l 1
 44 804 l 1
 44 711 l 1
 204 711 l 1
 204 93 l 1
 43 93 l 1
 43 0 l 1
EndSplineSet
EndChar

StartChar: macron
Encoding: 175 175 310
Width: 357
VWidth: 0
Flags: HW
PickledData: "(dp1
S'org.robofab.postScriptHintData'
p2
(dp3
sS'com.typemytype.robofont.layerData'
p4
(dp5
S'b'
(dp6
S'name'
p7
S'macron'
p8
sS'lib'
p9
(dp10
sS'unicodes'
p11
(tsS'width'
p12
I316
sS'contours'
p13
(tsS'components'
p14
(tsS'anchors'
p15
(tsss."
AnchorPoint: "top" 188 804 mark 0
LayerCount: 2
Fore
SplineSet
-28 938 m 257
 389 938 l 257
 389 1018 l 257
 -28 1018 l 257
 -28 938 l 257
EndSplineSet
EndChar

StartChar: minus
Encoding: 8722 8722 313
Width: 922
VWidth: 0
Flags: HW
PickledData: "(dp1
S'org.robofab.postScriptHintData'
p2
(dp3
sS'com.typemytype.robofont.layerData'
p4
(dp5
S'b'
(dp6
S'name'
p7
S'minus'
p8
sS'lib'
p9
(dp10
sS'unicodes'
p11
(tsS'width'
p12
I912
sS'contours'
p13
(tsS'components'
p14
(tsS'anchors'
p15
(tsss."
LayerCount: 2
Fore
SplineSet
97 492 m 257
 825 492 l 257
 825 591 l 257
 97 591 l 257
 97 492 l 257
EndSplineSet
EndChar

StartChar: mu
Encoding: 956 956 314
Width: 1041
VWidth: 0
Flags: HW
PickledData: "(dp1
S'org.robofab.postScriptHintData'
p2
(dp3
s."
LayerCount: 2
Fore
SplineSet
167 -284 m 257
 296 -284 l 257
 296 400 l 257
 167 400 l 257
 167 -284 l 257
EndSplineSet
Refer: 408 117 N 1 0 0 1 0 0 2
EndChar

StartChar: multiply
Encoding: 215 215 315
Width: 787
VWidth: 0
Flags: HW
PickledData: "(dp1
S'org.robofab.postScriptHintData'
p2
(dp3
sS'com.typemytype.robofont.layerData'
p4
(dp5
S'b'
(dp6
S'name'
p7
S'multiply'
p8
sS'lib'
p9
(dp10
sS'unicodes'
p11
(tsS'width'
p12
I520
sS'contours'
p13
(tsS'components'
p14
(tsS'anchors'
p15
(tsss."
LayerCount: 2
Fore
SplineSet
638 248 m 257
 703 313 l 257
 462 553 l 257
 706 797 l 257
 643 861 l 257
 396 618 l 257
 154 857 l 257
 89 792 l 257
 331 551 l 257
 86 309 l 257
 149 246 l 257
 395 488 l 257
 638 248 l 257
EndSplineSet
EndChar

StartChar: n
Encoding: 110 110 316
Width: 1049
VWidth: 0
Flags: HW
PickledData: "(dp1
S'org.robofab.postScriptHintData'
p2
(dp3
sS'com.typemytype.robofont.layerData'
p4
(dp5
S'b'
(dp6
S'name'
p7
S'n'
sS'lib'
p8
(dp9
sS'unicodes'
p10
(tsS'width'
p11
I1010
sS'contours'
p12
(tsS'components'
p13
(tsS'anchors'
p14
(tsss."
AnchorPoint: "bot" 565 0 basechar 0
AnchorPoint: "top" 592 804 basechar 0
LayerCount: 2
Fore
SplineSet
43 0 m 1
 483 0 l 1
 483 93 l 1
 333 93 l 1
 333 625 l 1
 423 682 522 723 602 723 c 0
 703 723 765 657 765 543 c 2
 765 93 l 1
 622 93 l 1
 622 0 l 1
 1043 0 l 1
 1043 93 l 1
 894 93 l 1
 894 562 l 2
 894 731 781 826 635 826 c 0
 538 826 433 782 333 718 c 1
 333 804 l 1
 44 804 l 1
 44 711 l 1
 204 711 l 1
 204 93 l 1
 43 93 l 1
 43 0 l 1
EndSplineSet
EndChar

StartChar: nine
Encoding: 57 57 321
Width: 918
VWidth: 0
Flags: HW
PickledData: "(dp1
S'org.robofab.postScriptHintData'
p2
(dp3
sS'com.typemytype.robofont.layerData'
p4
(dp5
S'b'
(dp6
S'name'
p7
S'nine'
p8
sS'lib'
p9
(dp10
sS'unicodes'
p11
(tsS'width'
p12
I830
sS'contours'
p13
(tsS'components'
p14
(tsS'anchors'
p15
(tsss."
LayerCount: 2
Fore
SplineSet
395 -93 m 257
 755 471 l 257
 828 579 857 686 857 811 c 256
 857 1027 689 1174 460 1174 c 256
 217 1174 71 1021 71 791 c 256
 71 576 231 438 428 438 c 256
 537 438 621 494 649 522 c 257
 289 -23 l 257
 395 -93 l 257
448 533 m 256
 288 533 193 639 193 800 c 256
 193 963 294 1075 457 1075 c 256
 627 1075 721 957 721 807 c 256
 721 632 590 533 448 533 c 256
EndSplineSet
EndChar

StartChar: notequal
Encoding: 8800 8800 323
Width: 990
VWidth: 0
Flags: HW
PickledData: "(dp1
S'org.robofab.postScriptHintData'
p2
(dp3
sS'com.typemytype.robofont.layerData'
p4
(dp5
S'b'
(dp6
S'name'
p7
S'notequal'
p8
sS'lib'
p9
(dp10
sS'unicodes'
p11
(tsS'width'
p12
I570
sS'contours'
p13
(tsS'components'
p14
(tsS'anchors'
p15
(tsss."
LayerCount: 2
Fore
SplineSet
341 39 m 257
 436 39 l 257
 487 237 l 257
 887 237 l 257
 887 328 l 257
 511 328 l 257
 570 545 l 257
 877 545 l 257
 877 639 l 257
 595 639 l 257
 649 836 l 257
 556 836 l 257
 502 639 l 257
 102 639 l 257
 102 545 l 257
 475 545 l 257
 417 328 l 257
 112 328 l 257
 112 237 l 257
 392 237 l 257
 341 39 l 257
EndSplineSet
EndChar

StartChar: numbersign
Encoding: 35 35 325
Width: 1090
VWidth: 0
Flags: HW
PickledData: "(dp1
S'org.robofab.postScriptHintData'
p2
(dp3
sS'com.typemytype.robofont.layerData'
p4
(dp5
S'b'
(dp6
S'name'
p7
S'numbersign'
p8
sS'lib'
p9
(dp10
sS'unicodes'
p11
(tsS'width'
p12
I917
sS'contours'
p13
(tsS'components'
p14
(tsS'anchors'
p15
(tsss."
LayerCount: 2
Fore
SplineSet
189 -6 m 257
 296 -6 l 257
 342 359 l 257
 676 359 l 257
 631 -6 l 257
 738 -6 l 257
 784 359 l 257
 1001 359 l 257
 1001 448 l 257
 799 448 l 257
 837 769 l 257
 1024 769 l 257
 1025 859 l 257
 851 859 l 257
 895 1199 l 257
 787 1199 l 257
 744 859 l 257
 410 859 l 257
 454 1199 l 257
 346 1199 l 257
 302 859 l 257
 94 859 l 257
 93 769 l 257
 287 769 l 257
 250 448 l 257
 70 448 l 257
 68 359 l 257
 234 359 l 257
 189 -6 l 257
356 448 m 257
 395 769 l 257
 729 769 l 257
 691 448 l 257
 356 448 l 257
EndSplineSet
EndChar

StartChar: o
Encoding: 111 111 326
Width: 978
VWidth: 0
Flags: HW
PickledData: "(dp1
S'org.robofab.postScriptHintData'
p2
(dp3
sS'com.typemytype.robofont.layerData'
p4
(dp5
S'b'
(dp6
S'name'
p7
S'o'
sS'lib'
p8
(dp9
sS'unicodes'
p10
(tsS'width'
p11
I986
sS'contours'
p12
(tsS'components'
p13
(tsS'anchors'
p14
(tsss."
AnchorPoint: "top" 486 804 basechar 0
LayerCount: 2
Fore
SplineSet
487 -22 m 0
 743 -22 925 155 925 406 c 0
 925 652 744 826 488 826 c 0
 233 826 53 651 53 405 c 0
 53 154 233 -22 487 -22 c 0
488 80 m 0
 311 80 187 215 187 405 c 0
 187 592 311 724 487 724 c 0
 665 724 790 592 790 406 c 0
 790 215 665 80 488 80 c 0
EndSplineSet
EndChar

StartChar: oe
Encoding: 339 339 331
Width: 1738
VWidth: 0
Flags: HW
PickledData: "(dp1
S'org.robofab.postScriptHintData'
p2
(dp3
sS'com.typemytype.robofont.layerData'
p4
(dp5
S'b'
(dp6
S'name'
p7
S'oe'
p8
sS'lib'
p9
(dp10
sS'unicodes'
p11
(tsS'width'
p12
I1961
sS'contours'
p13
(tsS'components'
p14
(tsS'anchors'
p15
(tsss."
LayerCount: 2
Fore
SplineSet
507 -22 m 256
 676 -22 809 62 875 193 c 257
 944 57 1086 -22 1249 -22 c 256
 1393 -22 1522 29 1608 127 c 257
 1545 199 l 257
 1477 125 1360 74 1253 74 c 256
 1080 74 949 186 940 373 c 257
 1625 373 l 257
 1621 663 1463 826 1235 826 c 256
 1086 826 946 751 877 610 c 257
 810 743 676 826 508 826 c 256
 257 826 79 649 79 403 c 256
 79 156 253 -22 507 -22 c 256
508 76 m 256
 327 76 207 211 207 403 c 256
 207 592 326 725 507 725 c 256
 689 725 810 592 810 403 c 256
 810 211 689 76 508 76 c 256
941 451 m 257
 956 621 1070 730 1235 730 c 256
 1384 730 1486 631 1506 451 c 257
 941 451 l 257
EndSplineSet
EndChar

StartChar: ogonek
Encoding: 731 731 332
Width: 444
VWidth: 0
Flags: HW
PickledData: "(dp1
S'org.robofab.postScriptHintData'
p2
(dp3
sS'com.typemytype.robofont.layerData'
p4
(dp5
S'b'
(dp6
S'name'
p7
S'ogonek'
p8
sS'lib'
p9
(dp10
sS'unicodes'
p11
(tsS'width'
p12
I390
sS'contours'
p13
(tsS'components'
p14
(tsS'anchors'
p15
(tsss."
LayerCount: 2
Fore
SplineSet
273 -333 m 256
 316 -333 352 -322 397 -296 c 257
 397 -223 l 257
 366 -242 337 -250 306 -250 c 256
 247 -250 210 -216 210 -148 c 256
 210 -102 233 -49 283 5 c 257
 205 5 l 257
 143 -65 117 -129 117 -184 c 256
 117 -275 185 -333 273 -333 c 256
EndSplineSet
EndChar

StartChar: one
Encoding: 49 49 336
Width: 650
VWidth: 0
Flags: HW
PickledData: "(dp1
S'org.robofab.postScriptHintData'
p2
(dp3
sS'com.typemytype.robofont.layerData'
p4
(dp5
S'b'
(dp6
S'name'
p7
S'one'
p8
sS'lib'
p9
(dp10
sS'unicodes'
p11
(tsS'width'
p12
I559
sS'contours'
p13
(tsS'components'
p14
(tsS'anchors'
p15
(tsss."
LayerCount: 2
Fore
SplineSet
124 0 m 257
 584 0 l 257
 584 94 l 257
 422 94 l 257
 422 1153 l 257
 120 1097 l 257
 126 1004 l 257
 293 1036 l 257
 293 94 l 257
 124 94 l 257
 124 0 l 257
EndSplineSet
EndChar

StartChar: onehalf
Encoding: 189 189 337
Width: 1916
VWidth: 0
Flags: HW
PickledData: "(dp1
S'org.robofab.postScriptHintData'
p2
(dp3
s."
LayerCount: 2
Fore
SplineSet
1231 0 m 257
 1784 0 l 257
 1783 223 l 257
 1707 223 l 257
 1707 71 l 257
 1346 71 l 257
 1575 289 l 258
 1673 382 1762 472 1762 588 c 256
 1762 733 1659 817 1499 817 c 256
 1318 817 1220 706 1220 566 c 256
 1220 537 1224 508 1233 477 c 257
 1318 477 l 257
 1312 504 1308 531 1308 555 c 256
 1308 665 1373 743 1500 743 c 256
 1613.74316597 743 1670.0436224 676.965270464 1670.0436224 584.252946116 c 0
 1670.0436224 499.986635222 1603.70371465 431.761974662 1516 348 c 258
 1231 73 l 257
 1231 0 l 257
180 348 m 257
 514 348 l 257
 514 419 l 257
 396 419 l 257
 396 1152 l 257
 174 1132 l 257
 175 1061 l 257
 301 1069 l 257
 301 419 l 257
 180 419 l 257
 180 348 l 257
475 -28 m 257
 567 -28 l 257
 1369 1208 l 257
 1280 1208 l 257
 475 -28 l 257
EndSplineSet
EndChar

StartChar: onequarter
Encoding: 188 188 338
Width: 1785
VWidth: 0
Flags: HW
PickledData: "(dp1
S'org.robofab.postScriptHintData'
p2
(dp3
sS'com.typemytype.robofont.layerData'
p4
(dp5
S'b'
(dp6
S'name'
p7
S'onequarter'
p8
sS'lib'
p9
(dp10
sS'unicodes'
p11
(tsS'width'
p12
I1395
sS'contours'
p13
(tsS'components'
p14
(tsS'anchors'
p15
(tsss."
LayerCount: 2
Fore
SplineSet
1320 0 m 257
 1625 0 l 257
 1625 71 l 257
 1523 71 l 257
 1523 248 l 257
 1640 248 l 257
 1640 317 l 257
 1523 317 l 257
 1523 812 l 257
 1431 812 l 257
 1077 324 l 257
 1091 248 l 257
 1434 248 l 257
 1434 71 l 257
 1320 71 l 257
 1320 0 l 257
179 348 m 257
 514 348 l 257
 514 419 l 257
 396 419 l 257
 396 1152 l 257
 174 1132 l 257
 174 1061 l 257
 301 1069 l 257
 301 419 l 257
 179 419 l 257
 179 348 l 257
471 -28 m 257
 562 -28 l 257
 1364 1208 l 257
 1276 1208 l 257
 471 -28 l 257
1163 317 m 257
 1434 697 l 257
 1434 317 l 257
 1163 317 l 257
EndSplineSet
EndChar

StartChar: onesuperior
Encoding: 185 185 339
Width: 780
VWidth: 0
Flags: HW
PickledData: "(dp1
S'org.robofab.postScriptHintData'
p2
(dp3
sS'com.typemytype.robofont.layerData'
p4
(dp5
S'b'
(dp6
S'name'
p7
S'uni00B9'
p8
sS'lib'
p9
(dp10
sS'unicodes'
p11
(tsS'width'
p12
I531
sS'contours'
p13
(tsS'components'
p14
(tsS'anchors'
p15
(tsss."
LayerCount: 2
Fore
SplineSet
196 538 m 257
 574 538 l 257
 574 609 l 257
 436 609 l 257
 436 1330 l 257
 202 1294 l 257
 207 1223 l 257
 338 1242 l 257
 338 609 l 257
 196 609 l 257
 196 538 l 257
EndSplineSet
EndChar

StartChar: ordfeminine
Encoding: 170 170 340
Width: 789
VWidth: 0
Flags: HW
PickledData: "(dp1
S'org.robofab.postScriptHintData'
p2
(dp3
sS'com.typemytype.robofont.layerData'
p4
(dp5
S'b'
(dp6
S'name'
p7
S'ordfeminine'
p8
sS'lib'
p9
(dp10
sS'unicodes'
p11
(tsS'width'
p12
I801
sS'contours'
p13
(tsS'components'
p14
(tsS'anchors'
p15
(tsss."
LayerCount: 2
Fore
SplineSet
313 514 m 256
 400 514 477 542 531 587 c 257
 535 527 l 257
 742 527 l 257
 742 606 l 257
 637 606 l 257
 637 957 l 258
 637 1078 552 1174 375 1174 c 256
 288 1174 187 1152 117 1099 c 257
 155 1026 l 257
 220 1071 308 1090 372 1090 c 256
 473 1090 527 1042 527 947 c 258
 527 878 l 257
 472 888 414 895 357 895 c 256
 214 895 92 847 92 701 c 256
 92 601 169 514 313 514 c 256
327 591 m 256
 244 591 199 638 199 706 c 256
 199 803 278 826 368 826 c 256
 431 826 484 818 527 810 c 257
 527 664 l 257
 472 617 397 591 327 591 c 256
EndSplineSet
EndChar

StartChar: ordmasculine
Encoding: 186 186 341
Width: 883
VWidth: 0
Flags: HW
PickledData: "(dp1
S'org.robofab.postScriptHintData'
p2
(dp3
sS'com.typemytype.robofont.layerData'
p4
(dp5
S'b'
(dp6
S'name'
p7
S'ordmasculine'
p8
sS'lib'
p9
(dp10
sS'unicodes'
p11
(tsS'width'
p12
I809
sS'contours'
p13
(tsS'components'
p14
(tsS'anchors'
p15
(tsss."
LayerCount: 2
Fore
SplineSet
443 509 m 256
 634 509 782 635 782 843 c 256
 782 1049 634 1174 444 1174 c 256
 255 1174 107 1049 107 843 c 256
 107 635 254 509 443 509 c 256
444 598 m 256
 323 598 222 684 222 842 c 256
 222 999 323 1085 443 1085 c 256
 564 1085 665 1000 665 843 c 256
 665 685 564 598 444 598 c 256
EndSplineSet
EndChar

StartChar: oslash
Encoding: 248 248 342
Width: 994
VWidth: 0
Flags: HW
PickledData: "(dp1
S'org.robofab.postScriptHintData'
p2
(dp3
sS'com.typemytype.robofont.layerData'
p4
(dp5
S'b'
(dp6
S'name'
p7
S'oslash'
p8
sS'lib'
p9
(dp10
sS'unicodes'
p11
(tsS'width'
p12
I1023
sS'contours'
p13
(tsS'components'
p14
(tsS'anchors'
p15
(tsss."
LayerCount: 2
Fore
SplineSet
237 -152 m 257
 836 929 l 257
 774 960 l 257
 176 -121 l 257
 237 -152 l 257
EndSplineSet
Refer: 326 111 N 1 0 0 1 0 0 2
EndChar

StartChar: p
Encoding: 112 112 345
Width: 1045
VWidth: 0
Flags: HW
PickledData: "(dp1
S'org.robofab.postScriptHintData'
p2
(dp3
sS'com.typemytype.robofont.layerData'
p4
(dp5
S'b'
(dp6
S'name'
p7
S'p'
sS'lib'
p8
(dp9
sS'unicodes'
p10
(tsS'width'
p11
I1037
sS'contours'
p12
(tsS'components'
p13
(tsS'anchors'
p14
(tsss."
AnchorPoint: "top" 567 804 basechar 0
LayerCount: 2
Fore
SplineSet
44 -318 m 1
 470 -318 l 1
 470 -225 l 1
 317 -225 l 1
 317 68 l 1
 390 9 481 -21 570 -21 c 0
 800.284567115 -21 989.017363898 138.599189819 989.017363898 412.627440715 c 0
 989.017363898 676.732504367 818.691056148 825 594 825 c 0
 500 825 399 792 313 730 c 1
 310 804 l 1
 51 804 l 1
 51 711 l 1
 188 711 l 1
 188 -225 l 1
 44 -225 l 1
 44 -318 l 1
317 163 m 1
 317 319.666666667 317 476.333333333 317 633 c 1
 395 694 483 726 561 726 c 0
 733 726 855 606 855 401 c 0
 855 192 726 76 549 76 c 0
 471 76 387 107 317 163 c 1
EndSplineSet
EndChar

StartChar: paragraph
Encoding: 182 182 346
Width: 1062
VWidth: 0
Flags: HW
PickledData: "(dp1
S'org.robofab.postScriptHintData'
p2
(dp3
sS'com.typemytype.robofont.layerData'
p4
(dp5
S'b'
(dp6
S'name'
p7
S'paragraph'
p8
sS'lib'
p9
(dp10
sS'unicodes'
p11
(tsS'width'
p12
I953
sS'contours'
p13
(tsS'components'
p14
(tsS'anchors'
p15
(tsss."
LayerCount: 2
Fore
SplineSet
498 -8 m 257
 979 -8 l 257
 979 87 l 257
 834 87 l 257
 834 1063 l 257
 982 1063 l 257
 982 1152 l 257
 472 1152 l 258
 223 1152 119 1004 119 853 c 256
 119 698.507350002 234.241854434 546.995092791 452.84301415 546.995092791 c 0
 453.560894896 546.995092791 454.279890319 546.996726774 455 547 c 258
 706 547 l 257
 706 87 l 257
 498 87 l 257
 498 -8 l 257
516 647 m 257
 516 1063 l 257
 706 1063 l 257
 706 647 l 257
 516 647 l 257
EndSplineSet
EndChar

StartChar: parenleft
Encoding: 40 40 347
Width: 553
VWidth: 0
Flags: HW
PickledData: "(dp1
S'org.robofab.postScriptHintData'
p2
(dp3
sS'com.typemytype.robofont.layerData'
p4
(dp5
S'b'
(dp6
S'name'
p7
S'parenleft'
p8
sS'lib'
p9
(dp10
sS'unicodes'
p11
(tsS'width'
p12
I500
sS'contours'
p13
(tsS'components'
p14
(tsS'anchors'
p15
(tsss."
LayerCount: 2
Fore
SplineSet
496 -120 m 257
 497 -35 l 257
 333 45 250 286 250 528 c 256
 250 769 333 1011 497 1091 c 257
 496 1173 l 257
 229 1070 95 797 95 526 c 256
 95 254 229 -17 496 -120 c 257
EndSplineSet
EndChar

StartChar: parenright
Encoding: 41 41 348
Width: 554
VWidth: 0
Flags: HW
PickledData: "(dp1
S'org.robofab.postScriptHintData'
p2
(dp3
sS'com.typemytype.robofont.layerData'
p4
(dp5
S'b'
(dp6
S'name'
p7
S'parenright'
p8
sS'lib'
p9
(dp10
sS'unicodes'
p11
(tsS'width'
p12
I501
sS'contours'
p13
(tsS'components'
p14
(tsS'anchors'
p15
(tsss."
LayerCount: 2
Fore
SplineSet
108 -120 m 257
 376 -17 510 254 510 526 c 256
 510 797 375 1070 108 1173 c 257
 107 1091 l 257
 271 1011 355 769 355 528 c 256
 355 286 271 45 107 -35 c 257
 108 -120 l 257
EndSplineSet
EndChar

StartChar: partialdiff
Encoding: 8706 8706 349
Width: 1011
VWidth: 0
Flags: HW
PickledData: "(dp1
S'org.robofab.postScriptHintData'
p2
(dp3
s."
LayerCount: 2
Fore
SplineSet
401 -20 m 256
 748 -20 868 384 868 679 c 256
 868 1003 744 1204 496 1204 c 256
 342 1204 250 1135 250 1040 c 256
 250 985 285 950 367 950 c 257
 367 1052 439 1128 548 1128 c 256
 701.801602247 1128 796.520176614 900.356569046 796.520176614 630.536528619 c 0
 796.520176614 610.890750616 796.018036159 591.0213778 795 571 c 257
 811 576 l 257
 788 655 706 732 561 732 c 256
 246 732 124 436 124 258 c 256
 124 113 193 -20 401 -20 c 256
457 55 m 256
 334 55 285 141 285 252 c 256
 285 395 368 659 593 659 c 256
 694 659 763 611 786 519 c 257
 758 288 633 55 457 55 c 256
EndSplineSet
EndChar

StartChar: percent
Encoding: 37 37 351
Width: 1669
VWidth: 0
Flags: HW
PickledData: "(dp1
S'org.robofab.postScriptHintData'
p2
(dp3
sS'com.typemytype.robofont.layerData'
p4
(dp5
S'b'
(dp6
S'name'
p7
S'percent'
p8
sS'lib'
p9
(dp10
sS'unicodes'
p11
(tsS'width'
p12
I1578
sS'contours'
p13
(tsS'components'
p14
(tsS'anchors'
p15
(tsss."
LayerCount: 2
Fore
SplineSet
408 684 m 256
 291 684 205 772 205 892 c 256
 205 1011 291 1097 408 1098 c 256
 527 1097 613 1011 613 892 c 256
 613 772 527 684 408 684 c 256
408 604 m 256
 581 604 707 726 707 892 c 256
 707 1056 581 1176 408 1176 c 256
 237 1176 111 1056 111 892 c 256
 111 726 237 604 408 604 c 256
361 -53 m 257
 1386 1182 l 257
 1325 1233 l 257
 295 5 l 257
 361 -53 l 257
1275 58 m 256
 1158 58 1072 146 1072 266 c 256
 1072 385 1158 471 1275 472 c 256
 1393 471 1480 385 1480 266 c 256
 1480 146 1393 58 1275 58 c 256
1275 -22 m 256
 1448 -22 1574 100 1574 266 c 256
 1574 430 1448 550 1275 550 c 256
 1103 550 978 430 978 266 c 256
 978 100 1103 -22 1275 -22 c 256
EndSplineSet
EndChar

StartChar: period
Encoding: 46 46 352
Width: 509
VWidth: 0
Flags: HW
PickledData: "(dp1
S'org.robofab.postScriptHintData'
p2
(dp3
sS'com.typemytype.robofont.layerData'
p4
(dp5
S'b'
(dp6
S'name'
p7
S'period'
p8
sS'lib'
p9
(dp10
sS'unicodes'
p11
(tsS'width'
p12
I452
sS'contours'
p13
(tsS'components'
p14
(tsS'anchors'
p15
(tsss."
LayerCount: 2
Fore
SplineSet
173 0 m 257
 342 0 l 257
 342 170 l 257
 173 170 l 257
 173 0 l 257
EndSplineSet
EndChar

StartChar: periodcentered
Encoding: 183 183 353
Width: 521
VWidth: 0
Flags: HW
PickledData: "(dp1
S'org.robofab.postScriptHintData'
p2
(dp3
sS'com.typemytype.robofont.layerData'
p4
(dp5
S'b'
(dp6
S'name'
p7
S'periodcentered'
p8
sS'lib'
p9
(dp10
sS'unicodes'
p11
(tsS'width'
p12
I453
sS'contours'
p13
(tsS'components'
p14
(tsS'anchors'
p15
(tsss."
LayerCount: 2
Fore
SplineSet
268 461 m 256
 324 461 367 500 367 553 c 256
 367 604 324 644 268 644 c 256
 214 644 172 604 172 553 c 256
 172 500 214 461 268 461 c 256
EndSplineSet
EndChar

StartChar: perthousand
Encoding: 8240 8240 354
Width: 2386
VWidth: 0
Flags: HW
PickledData: "(dp1
S'org.robofab.postScriptHintData'
p2
(dp3
s."
LayerCount: 2
Fore
SplineSet
1994 -22 m 256
 2167 -22 2293 100 2293 266 c 256
 2293 430 2167 550 1994 550 c 256
 1823 550 1697 430 1697 266 c 256
 1697 100 1823 -22 1994 -22 c 256
1994 58 m 256
 1877 58 1791 146 1791 266 c 256
 1791 385 1877 471 1994 472 c 256
 2113 471 2199 385 2199 266 c 256
 2199 146 2113 58 1994 58 c 256
EndSplineSet
Refer: 351 37 N 1 0 0 1 0 0 2
EndChar

StartChar: pi
Encoding: 960 960 355
Width: 1154
VWidth: 0
Flags: HW
PickledData: "(dp1
S'org.robofab.postScriptHintData'
p2
(dp3
s."
LayerCount: 2
Fore
SplineSet
899 -14 m 256
 942 -14 993 -2 1035 21 c 257
 1035 89 l 257
 1002 80 971 74 944 74 c 256
 865 74 817 124 817 235 c 256
 817 328 842 513 866 675 c 257
 1054 675 l 257
 1054 804 l 257
 346 804 l 258
 201 804 147 691 147 560 c 257
 214 560 l 257
 219 638 252 675 309 675 c 258
 393 675 l 257
 332 268 l 257
 308 117 247 59 141 59 c 257
 141 -2 l 257
 372 -2 433 69 447 241 c 257
 486 675 l 257
 790 675 l 257
 746 522 698 333 698 214 c 256
 698 67 757 -14 899 -14 c 256
EndSplineSet
EndChar

StartChar: plus
Encoding: 43 43 356
Width: 883
VWidth: 0
Flags: HW
PickledData: "(dp1
S'org.robofab.postScriptHintData'
p2
(dp3
sS'com.typemytype.robofont.layerData'
p4
(dp5
S'b'
(dp6
S'name'
p7
S'plus'
p8
sS'lib'
p9
(dp10
sS'unicodes'
p11
(tsS'width'
p12
I690
sS'contours'
p13
(tsS'components'
p14
(tsS'anchors'
p15
(tsss."
LayerCount: 2
Fore
SplineSet
395 123 m 257
 500 123 l 257
 500 527 l 257
 853 527 l 257
 853 628 l 257
 500 628 l 257
 500 1024 l 257
 395 1024 l 257
 395 628 l 257
 40 628 l 257
 40 527 l 257
 395 527 l 257
 395 123 l 257
EndSplineSet
EndChar

StartChar: plusminus
Encoding: 177 177 357
Width: 839
VWidth: 0
Flags: HW
PickledData: "(dp1
S'org.robofab.postScriptHintData'
p2
(dp3
sS'com.typemytype.robofont.layerData'
p4
(dp5
S'b'
(dp6
S'name'
p7
S'plusminus'
p8
sS'lib'
p9
(dp10
sS'unicodes'
p11
(tsS'width'
p12
I659
sS'contours'
p13
(tsS'components'
p14
(tsS'anchors'
p15
(tsss."
LayerCount: 2
Fore
SplineSet
371 198 m 257
 469 198 l 257
 469 580 l 257
 827 580 l 257
 827 680 l 257
 469 680 l 257
 469 1054 l 257
 371 1054 l 257
 371 680 l 257
 13 680 l 257
 13 580 l 257
 371 580 l 257
 371 198 l 257
12 0 m 257
 826 0 l 257
 826 98 l 257
 12 98 l 257
 12 0 l 257
EndSplineSet
EndChar

StartChar: product
Encoding: 8719 8719 358
Width: 1401
VWidth: 0
Flags: HW
PickledData: "(dp1
S'org.robofab.postScriptHintData'
p2
(dp3
sS'com.typemytype.robofont.layerData'
p4
(dp5
S'b'
(dp6
S'name'
p7
S'product'
p8
sS'lib'
p9
(dp10
sS'unicodes'
p11
(tsS'width'
p12
I1305
sS'contours'
p13
(tsS'components'
p14
(tsS'anchors'
p15
(tsss."
LayerCount: 2
Fore
SplineSet
118 0 m 257
 562 0 l 257
 562 95 l 257
 411 95 l 257
 411 1058 l 257
 991 1058 l 257
 991 95 l 257
 839 95 l 257
 839 0 l 257
 1283 0 l 257
 1283 95 l 257
 1132 95 l 257
 1132 1058 l 257
 1283 1058 l 257
 1283 1152 l 257
 118 1152 l 257
 118 1058 l 257
 270 1058 l 257
 270 95 l 257
 118 95 l 257
 118 0 l 257
EndSplineSet
EndChar

StartChar: q
Encoding: 113 113 359
Width: 1079
VWidth: 0
Flags: HW
PickledData: "(dp1
S'org.robofab.postScriptHintData'
p2
(dp3
sS'com.typemytype.robofont.layerData'
p4
(dp5
S'b'
(dp6
S'name'
p7
S'q'
sS'lib'
p8
(dp9
sS'unicodes'
p10
(tsS'width'
p11
I1049
sS'contours'
p12
(tsS'components'
p13
(tsS'anchors'
p14
(tsss."
LayerCount: 2
Fore
SplineSet
604 -330 m 1
 1029 -330 l 1
 1029 -232 l 1
 886 -232 l 1
 886 711 l 1
 1025 711 l 1
 1025 804 l 1
 760 804 l 1
 757 722 l 1
 671 788 559 825 454 825 c 0
 236.212559758 825 57.9834015588 670.72270003 57.9834015588 404.45779991 c 0
 57.9834015588 140.512725412 245.047893734 -22 472 -22 c 0
 570 -22 673 13 756 78 c 1
 756 -232 l 1
 604 -232 l 1
 604 -330 l 1
756 630 m 1
 756 170 l 1
 678 112 582 77 498 77 c 0
 325 77 192 194 192 393 c 0
 192 604 312 727 478 727 c 0
 568 727 670 691 756 630 c 1
EndSplineSet
EndChar

StartChar: question
Encoding: 63 63 360
Width: 753
VWidth: 0
Flags: HW
PickledData: "(dp1
S'org.robofab.postScriptHintData'
p2
(dp3
sS'com.typemytype.robofont.layerData'
p4
(dp5
S'b'
(dp6
S'name'
p7
S'question'
p8
sS'lib'
p9
(dp10
sS'unicodes'
p11
(tsS'width'
p12
I629
sS'contours'
p13
(tsS'components'
p14
(tsS'anchors'
p15
(tsss."
LayerCount: 2
Fore
SplineSet
295 313 m 257
 382 313 l 257
 422 706 712 609 712 911 c 256
 712 1092 575 1207 378 1207 c 256
 197 1207 45 1131 37 915 c 257
 147 915 l 257
 161 1054 236 1116 379 1116 c 256
 509 1116 596 1036 596 911 c 256
 596 670 313 759 295 313 c 257
339 -16 m 256
 396 -16 440 24 440 77 c 256
 440 129 396 170 339 170 c 256
 285 170 242 129 242 77 c 256
 242 24 285 -16 339 -16 c 256
EndSplineSet
EndChar

StartChar: quotedbl
Encoding: 34 34 362
Width: 679
VWidth: 0
Flags: HW
PickledData: "(dp1
S'org.robofab.postScriptHintData'
p2
(dp3
sS'com.typemytype.robofont.layerData'
p4
(dp5
S'b'
(dp6
S'name'
p7
S'quotedbl'
p8
sS'lib'
p9
(dp10
sS'unicodes'
p11
(tsS'width'
p12
I514
sS'contours'
p13
(tsS'components'
p14
(tsS'anchors'
p15
(tsss."
LayerCount: 2
Fore
SplineSet
183 824 m 257
 259 824 l 257
 289 1238 l 257
 146 1238 l 257
 183 824 l 257
425 824 m 257
 501 824 l 257
 536 1238 l 257
 393 1238 l 257
 425 824 l 257
EndSplineSet
EndChar

StartChar: quotedblbase
Encoding: 8222 8222 363
Width: 790
VWidth: 0
Flags: HW
PickledData: "(dp1
S'org.robofab.postScriptHintData'
p2
(dp3
sS'com.typemytype.robofont.layerData'
p4
(dp5
S'b'
(dp6
S'name'
p7
S'quotedblbase'
p8
sS'lib'
p9
(dp10
sS'unicodes'
p11
(tsS'width'
p12
I652
sS'contours'
p13
(tsS'components'
p14
(tsS'anchors'
p15
(tsss."
LayerCount: 2
Fore
SplineSet
181 -206 m 257
 302 -204 341 -124 341 -9 c 258
 341 148 l 257
 188 148 l 257
 188 -9 l 257
 260 -9 l 257
 258 -94 247 -122 181 -140 c 257
 181 -206 l 257
467 -206 m 257
 588 -204 627 -124 627 -9 c 258
 627 148 l 257
 474 148 l 257
 474 -9 l 257
 545 -9 l 257
 544 -94 533 -122 467 -140 c 257
 467 -206 l 257
EndSplineSet
EndChar

StartChar: quotedblleft
Encoding: 8220 8220 364
Width: 755
VWidth: 0
Flags: HW
PickledData: "(dp1
S'org.robofab.postScriptHintData'
p2
(dp3
sS'com.typemytype.robofont.layerData'
p4
(dp5
S'b'
(dp6
S'name'
p7
S'quotedblleft'
p8
sS'lib'
p9
(dp10
sS'unicodes'
p11
(tsS'width'
p12
I642
sS'contours'
p13
(tsS'components'
p14
(tsS'anchors'
p15
(tsss."
LayerCount: 2
Fore
SplineSet
165 904 m 257
 318 904 l 257
 318 1062 l 257
 248 1062 l 257
 249 1146 261 1173 327 1192 c 257
 327 1258 l 257
 205 1257 165 1177 165 1062 c 258
 165 904 l 257
417 904 m 257
 570 904 l 257
 570 1062 l 257
 500 1062 l 257
 501 1146 514 1173 579 1192 c 257
 579 1258 l 257
 457 1256 417 1177 417 1062 c 258
 417 904 l 257
EndSplineSet
EndChar

StartChar: quotedblright
Encoding: 8221 8221 365
Width: 754
VWidth: 0
Flags: HW
PickledData: "(dp1
S'org.robofab.postScriptHintData'
p2
(dp3
sS'com.typemytype.robofont.layerData'
p4
(dp5
S'b'
(dp6
S'name'
p7
S'quotedblright'
p8
sS'lib'
p9
(dp10
sS'unicodes'
p11
(tsS'width'
p12
I649
sS'contours'
p13
(tsS'components'
p14
(tsS'anchors'
p15
(tsss."
LayerCount: 2
Fore
SplineSet
182 883 m 257
 303 885 343 965 342 1080 c 257
 342 1237 l 257
 189 1237 l 257
 189 1081 l 257
 261 1081 l 257
 259 996 247 967 182 950 c 257
 182 883 l 257
430 883 m 257
 551 885 591 965 591 1080 c 258
 591 1237 l 257
 437 1237 l 257
 437 1081 l 257
 509 1081 l 257
 507 996 495 967 430 950 c 257
 430 883 l 257
EndSplineSet
EndChar

StartChar: quoteleft
Encoding: 8216 8216 366
Width: 462
VWidth: 0
Flags: HW
PickledData: "(dp1
S'org.robofab.postScriptHintData'
p2
(dp3
sS'com.typemytype.robofont.layerData'
p4
(dp5
S'b'
(dp6
S'name'
p7
S'quoteleft'
p8
sS'lib'
p9
(dp10
sS'unicodes'
p11
(tsS'width'
p12
I399
sS'contours'
p13
(tsS'components'
p14
(tsS'anchors'
p15
(tsss."
LayerCount: 2
Fore
SplineSet
135 904 m 257
 287 904 l 257
 287 1062 l 257
 217 1062 l 257
 218 1146 231 1173 296 1192 c 257
 296 1258 l 257
 174 1257 135 1177 135 1062 c 258
 135 904 l 257
EndSplineSet
EndChar

StartChar: quoteright
Encoding: 8217 8217 367
Width: 466
VWidth: 0
Flags: HW
PickledData: "(dp1
S'org.robofab.postScriptHintData'
p2
(dp3
sS'com.typemytype.robofont.layerData'
p4
(dp5
S'b'
(dp6
S'name'
p7
S'quoteright'
p8
sS'lib'
p9
(dp10
sS'unicodes'
p11
(tsS'width'
p12
I409
sS'contours'
p13
(tsS'components'
p14
(tsS'anchors'
p15
(tsss."
LayerCount: 2
Fore
SplineSet
175 883 m 257
 296 885 336 965 336 1080 c 258
 336 1237 l 257
 182 1237 l 257
 182 1081 l 257
 254 1081 l 257
 252 996 241 967 175 950 c 257
 175 883 l 257
EndSplineSet
EndChar

StartChar: quotesinglbase
Encoding: 8218 8218 368
Width: 462
VWidth: 0
Flags: HW
PickledData: "(dp1
S'org.robofab.postScriptHintData'
p2
(dp3
sS'com.typemytype.robofont.layerData'
p4
(dp5
S'b'
(dp6
S'name'
p7
S'quotesinglbase'
p8
sS'lib'
p9
(dp10
sS'unicodes'
p11
(tsS'width'
p12
I403
sS'contours'
p13
(tsS'components'
p14
(tsS'anchors'
p15
(tsss."
LayerCount: 2
Fore
SplineSet
176 -206 m 257
 297 -204 336 -124 336 -9 c 258
 336 148 l 257
 183 148 l 257
 183 -9 l 257
 255 -9 l 257
 253 -94 241 -122 176 -140 c 257
 176 -206 l 257
EndSplineSet
EndChar

StartChar: quotesingle
Encoding: 39 39 369
Width: 373
VWidth: 0
Flags: HW
PickledData: "(dp1
S'org.robofab.postScriptHintData'
p2
(dp3
sS'com.typemytype.robofont.layerData'
p4
(dp5
S'b'
(dp6
S'name'
p7
S'quotesingle'
p8
sS'lib'
p9
(dp10
sS'unicodes'
p11
(tsS'width'
p12
I239
sS'contours'
p13
(tsS'components'
p14
(tsS'anchors'
p15
(tsss."
LayerCount: 2
Fore
SplineSet
153 824 m 257
 229 824 l 257
 259 1238 l 257
 117 1238 l 257
 153 824 l 257
EndSplineSet
EndChar

StartChar: r
Encoding: 114 114 370
Width: 786
VWidth: 0
Flags: HW
PickledData: "(dp1
S'org.robofab.postScriptHintData'
p2
(dp3
sS'com.typemytype.robofont.layerData'
p4
(dp5
S'b'
(dp6
S'name'
p7
S'r'
sS'lib'
p8
(dp9
sS'unicodes'
p10
(tsS'width'
p11
I773
sS'contours'
p12
((dp13
S'points'
p14
((dp15
S'segmentType'
p16
S'line'
p17
sS'x'
I338
sS'smooth'
p18
I0
sS'y'
I449
s(dp19
S'y'
I643
sS'x'
I338
sg18
I0
s(dp20
S'y'
I756
sS'x'
I441
sg18
I0
s(dp21
g16
S'curve'
p22
sS'x'
I570
sg18
I1
sS'y'
I756
s(dp23
S'y'
I756
sS'x'
I614
sg18
I0
s(dp24
S'y'
I742
sS'x'
I651
sg18
I0
s(dp25
g16
S'curve'
p26
sS'x'
I704
sg18
I0
sS'y'
I716
s(dp27
g16
S'line'
p28
sS'x'
I722
sg18
I0
sS'y'
I784
s(dp29
S'y'
I810
sS'x'
I664
sg18
I0
s(dp30
S'y'
I820
sS'x'
I622
sg18
I0
s(dp31
g16
S'curve'
p32
sS'x'
I575
sg18
I1
sS'y'
I820
s(dp33
S'y'
I820
sS'x'
I467
sg18
I0
s(dp34
S'y'
I769
sS'x'
I381
sg18
I0
s(dp35
g16
S'curve'
p36
sS'x'
I316
sg18
I0
sS'y'
I582
stp37
stp38
sS'components'
p39
(tsS'anchors'
p40
(tsss."
AnchorPoint: "bot" 309 0 basechar 0
AnchorPoint: "top" 471 804 basechar 0
LayerCount: 2
Fore
SplineSet
372 440 m 1
 372 608 462 705 567 705 c 0
 617 705 660 690 706 661 c 1
 737 776 l 1
 684 802 632 818 577 818 c 0
 496 818 420 775 371 656 c 1
 371 804 l 1
 82 804 l 1
 82 711 l 1
 242 711 l 1
 242 93 l 1
 81 93 l 1
 81 0 l 1
 521 0 l 1
 521 93 l 1
 371 93 l 1
 371 443 l 1
 372 440 l 1
EndSplineSet
EndChar

StartChar: radical
Encoding: 8730 8730 372
Width: 1148
VWidth: 0
Flags: HW
PickledData: "(dp1
S'org.robofab.postScriptHintData'
p2
(dp3
sS'com.typemytype.robofont.layerData'
p4
(dp5
S'b'
(dp6
S'name'
p7
S'radical'
p8
sS'lib'
p9
(dp10
sS'unicodes'
p11
(tsS'width'
p12
I1118
sS'contours'
p13
(tsS'components'
p14
(tsS'anchors'
p15
(tsss."
LayerCount: 2
Fore
SplineSet
471 -14 m 257
 569 -14 l 257
 1027 1363 l 257
 940 1363 l 257
 532 142 l 257
 308 660 l 257
 27 660 l 257
 27 576 l 257
 203 576 l 257
 471 -14 l 257
EndSplineSet
EndChar

StartChar: registered
Encoding: 174 174 375
Width: 1527
VWidth: 0
Flags: HW
PickledData: "(dp1
S'org.robofab.postScriptHintData'
p2
(dp3
sS'com.typemytype.robofont.layerData'
p4
(dp5
S'b'
(dp6
S'name'
p7
S'registered'
p8
sS'lib'
p9
(dp10
sS'unicodes'
p11
(tsS'width'
p12
I1512
sS'contours'
p13
(tsS'components'
p14
(tsS'anchors'
p15
(tsss."
LayerCount: 2
Fore
SplineSet
460 267 m 257
 721 267 l 257
 721 323 l 257
 632 323 l 257
 632 587 l 257
 763 587 l 257
 938 267 l 257
 1088 267 l 257
 1088 324 l 257
 993 324 l 257
 840 595 l 257
 949 609 1014 674 1014 767 c 256
 1014 880 931 949 797 949 c 258
 457 949 l 257
 457 894 l 257
 551 894 l 257
 551 323 l 257
 460 323 l 257
 460 267 l 257
632 646 m 257
 632 894 l 257
 798 894 l 258
 882 894 934 846 934 766 c 256
 934 691 881 646 794 646 c 258
 632 646 l 257
750 64 m 256
 419 64 233 305 233 588 c 256
 233 868 421 1119 750 1119 c 256
 1078 1119 1269 868 1269 588 c 256
 1269 309 1078 64 750 64 c 256
750 -22 m 256
 1147 -22 1377 260 1377 589 c 256
 1377 918 1146 1204 750 1204 c 256
 356 1204 125 918 125 589 c 256
 125 261 354 -22 750 -22 c 256
EndSplineSet
EndChar

StartChar: ring
Encoding: 730 730 376
Width: 419
VWidth: 0
Flags: HW
PickledData: "(dp1
S'org.robofab.postScriptHintData'
p2
(dp3
sS'com.typemytype.robofont.layerData'
p4
(dp5
S'b'
(dp6
S'name'
p7
S'ring'
p8
sS'lib'
p9
(dp10
sS'unicodes'
p11
(tsS'width'
p12
I317
sS'contours'
p13
(tsS'components'
p14
(tsS'anchors'
p15
(tsss."
AnchorPoint: "top" 208 804 mark 0
LayerCount: 2
Fore
SplineSet
208 879 m 256
 303 879 360 943 360 1025 c 256
 360 1104 304 1166 208 1166 c 256
 111 1166 56 1104 56 1025 c 256
 56 943 113 879 208 879 c 256
208 935 m 256
 151 935 119 973 119 1024 c 256
 119 1073 151 1110 208 1110 c 256
 264 1110 297 1073 297 1024 c 256
 297 973 264 935 208 935 c 256
EndSplineSet
EndChar

StartChar: s
Encoding: 115 115 377
Width: 893
VWidth: 0
Flags: HW
PickledData: "(dp1
S'org.robofab.postScriptHintData'
p2
(dp3
sS'com.typemytype.robofont.layerData'
p4
(dp5
S'b'
(dp6
S'name'
p7
S's'
sS'lib'
p8
(dp9
sS'unicodes'
p10
(tsS'width'
p11
I919
sS'contours'
p12
(tsS'components'
p13
(tsS'anchors'
p14
(tsss."
AnchorPoint: "bot" 473 0 basechar 0
AnchorPoint: "top" 441 804 basechar 0
LayerCount: 2
Fore
SplineSet
495 -21 m 0
 652.682007633 -21 804.149480217 49.8047660727 804.149480217 210.735586948 c 0
 804.149480217 383.518165743 684.763909863 420.759082872 526 458 c 1
 415 483 l 1
 310 508 258 537 257 605 c 0
 257 691 348 731 442 731 c 0
 523 731 621 697 664 644 c 1
 676 534 l 1
 770 534 l 1
 770 807 l 1
 664 807 l 1
 664 744 l 1
 607 797 507 826 423 826 c 0
 258 826 128 747 128 601 c 0
 128 457 219 408 365 374 c 1
 482 348 l 2
 620.921761558 317.799617053 680.008533949 296.065636459 680.008533949 198.60272096 c 0
 680.008533949 117.443669086 593.350992131 69 480 69 c 0
 380 69 281 106 228 178 c 1
 221 269 l 1
 128 269 l 1
 128 0 l 1
 230 0 l 1
 230 72 l 1
 284 16 387 -21 495 -21 c 0
EndSplineSet
EndChar

StartChar: section
Encoding: 167 167 385
Width: 919
VWidth: 0
Flags: HW
PickledData: "(dp1
S'org.robofab.postScriptHintData'
p2
(dp3
s."
LayerCount: 2
Fore
SplineSet
475 -161 m 256
 681 -161 781 -54 781 105 c 256
 781 178 758 232 722 273 c 257
 787.23057642 313.522024746 829.017471848 391.163211062 829.017471848 474.064291772 c 0
 829.017471848 605.055790633 735.419031952 670.78096057 515 786 c 256
 366 865 295 894 295 1010 c 256
 295 1114 362 1179 479 1179 c 256
 612 1179 653 1080 658 973 c 257
 723 973 756 1006 756 1055 c 256
 756 1153 674 1242 484 1242 c 256
 303 1242 186 1147 186 1000 c 256
 186 904 224 841 280 797 c 257
 206 771 150 708 150 623 c 256
 150 497 216 429 406 335 c 256
 648 213 686 178 686 77 c 256
 686 -30 622 -99 488 -99 c 256
 351 -99 274 -27 273 114 c 257
 218 114 178 88 178 25 c 256
 178 -78 260 -161 475 -161 c 256
672 316 m 257
 626 350 561 384 483 424 c 256
 308 513 250 546 250 646 c 256
 250 696 277 739 325 761 c 257
 354 740 447 693 488 673 c 256
 671 578 722 522 722 442 c 256
 722 391 708 349 672 316 c 257
EndSplineSet
EndChar

StartChar: semicolon
Encoding: 59 59 386
Width: 420
VWidth: 0
Flags: HW
PickledData: "(dp1
S'org.robofab.postScriptHintData'
p2
(dp3
sS'com.typemytype.robofont.layerData'
p4
(dp5
S'b'
(dp6
S'name'
p7
S'semicolon'
p8
sS'lib'
p9
(dp10
sS'unicodes'
p11
(tsS'width'
p12
I294
sS'contours'
p13
(tsS'components'
p14
(tsS'anchors'
p15
(tsss."
LayerCount: 2
Fore
SplineSet
110 -55 m 257
 258 -53 298 33 298 165 c 258
 298 340 l 257
 118 339 l 257
 118 165 l 257
 207 165 l 257
 207 70 195 30 110 16 c 257
 110 -55 l 257
120 669 m 257
 295 669 l 257
 295 843 l 257
 120 843 l 257
 120 669 l 257
EndSplineSet
EndChar

StartChar: seven
Encoding: 55 55 387
Width: 982
VWidth: 0
Flags: HW
PickledData: "(dp1
S'org.robofab.postScriptHintData'
p2
(dp3
sS'com.typemytype.robofont.layerData'
p4
(dp5
S'b'
(dp6
S'name'
p7
S'seven'
p8
sS'lib'
p9
(dp10
sS'unicodes'
p11
(tsS'width'
p12
I964
sS'contours'
p13
(tsS'components'
p14
(tsS'anchors'
p15
(tsss."
LayerCount: 2
Fore
SplineSet
359 0 m 257
 500 0 l 257
 500 0 663 591 894 1062 c 257
 894 1152 l 257
 122 1152 l 257
 122 835 l 257
 246 835 l 257
 246 1054 l 257
 744 1054 l 257
 499 515 359 0 359 0 c 257
EndSplineSet
EndChar

StartChar: six
Encoding: 54 54 388
Width: 919
VWidth: 0
Flags: HW
PickledData: "(dp1
S'org.robofab.postScriptHintData'
p2
(dp3
sS'com.typemytype.robofont.layerData'
p4
(dp5
S'b'
(dp6
S'name'
p7
S'six'
p8
sS'lib'
p9
(dp10
sS'unicodes'
p11
(tsS'width'
p12
I829
sS'contours'
p13
(tsS'components'
p14
(tsS'anchors'
p15
(tsss."
LayerCount: 2
Fore
SplineSet
463 -20 m 256
 707 -20 852 133 852 363 c 256
 852 577 697 718 500 718 c 256
 391 718 302 659 274 631 c 257
 634 1177 l 257
 528 1247 l 257
 168 683 l 257
 96 575 67 468 67 342 c 256
 67 127 234 -20 463 -20 c 256
466 79 m 256
 297 79 203 196 203 346 c 256
 203 522 333 620 476 620 c 256
 635 620 730 515 730 354 c 256
 730 190 629 79 466 79 c 256
EndSplineSet
EndChar

StartChar: slash
Encoding: 47 47 389
Width: 539
VWidth: 0
Flags: HW
PickledData: "(dp1
S'org.robofab.postScriptHintData'
p2
(dp3
sS'com.typemytype.robofont.layerData'
p4
(dp5
S'b'
(dp6
S'name'
p7
S'slash'
p8
sS'lib'
p9
(dp10
sS'unicodes'
p11
(tsS'width'
p12
I295
sS'contours'
p13
(tsS'components'
p14
(tsS'anchors'
p15
(tsss."
LayerCount: 2
Fore
SplineSet
-8 -11 m 257
 84 -31 l 257
 541 1197 l 257
 451 1217 l 257
 -8 -11 l 257
EndSplineSet
EndChar

StartChar: sterling
Encoding: 163 163 392
Width: 1048
VWidth: 0
Flags: HW
PickledData: "(dp1
S'org.robofab.postScriptHintData'
p2
(dp3
s."
LayerCount: 2
Fore
SplineSet
274 -20 m 256
 373 -20 448 37 494 117 c 257
 576 39 665 -12 761 -12 c 256
 940 -12 1004 97 1006 274 c 256
 1006 281 1006 302 1005 308 c 257
 920 308 l 257
 916 181 883 101 760 101 c 256
 686 101 607 152 543 210 c 257
 563.300485666 264.764100867 574.239906882 316.630729403 574.239906882 369.914060772 c 0
 574.239906882 429.494199103 560.562158202 490.845665634 531 560 c 257
 880 560 l 257
 880 650 l 257
 490 650 l 257
 440 744 387 831 387 924 c 256
 387 1058 484 1141 629 1141 c 256
 782 1141 841 1048 841 924 c 257
 954 924 l 257
 954 1120 839 1243 625 1243 c 256
 415 1243 268 1119 268 918 c 256
 268 826 315 730 355 650 c 257
 159 650 l 257
 159 560 l 257
 404 560 l 257
 458.398082972 472.963067246 472.814742165 388.030419953 472.814742165 323.517113348 c 0
 472.814742165 299.084307681 470.74692227 277.580302531 468 260 c 257
 419 311 343 352 272 352 c 256
 136 352 54 264 54 158 c 256
 54 59 130 -20 274 -20 c 256
270 57 m 256
 198 57 147 96 147 160 c 256
 147 226 194 266 267 266 c 256
 318 266 385 233 435 177 c 257
 410 99 334 57 270 57 c 256
EndSplineSet
EndChar

StartChar: summation
Encoding: 8721 8721 393
Width: 1269
VWidth: 0
Flags: HW
PickledData: "(dp1
S'org.robofab.postScriptHintData'
p2
(dp3
sS'com.typemytype.robofont.layerData'
p4
(dp5
S'b'
(dp6
S'name'
p7
S'summation'
p8
sS'lib'
p9
(dp10
sS'unicodes'
p11
(tsS'width'
p12
I1212
sS'contours'
p13
(tsS'components'
p14
(tsS'anchors'
p15
(tsss."
LayerCount: 2
Fore
SplineSet
124 0 m 257
 1109 0 l 257
 1109 358 l 257
 998 358 l 257
 998 94 l 257
 379 94 l 257
 758 569 l 257
 758 621 l 257
 414 1059 l 257
 986 1059 l 257
 986 800 l 257
 1096 800 l 257
 1096 1152 l 257
 124 1152 l 257
 124 1059 l 257
 278 1059 l 257
 653 577 l 257
 275 94 l 257
 124 94 l 257
 124 0 l 257
EndSplineSet
EndChar

StartChar: t
Encoding: 116 116 394
Width: 608
VWidth: 0
Flags: HW
PickledData: "(dp1
S'org.robofab.postScriptHintData'
p2
(dp3
sS'com.typemytype.robofont.layerData'
p4
(dp5
S'b'
(dp6
S'name'
p7
S't'
sS'lib'
p8
(dp9
sS'unicodes'
p10
(tsS'width'
p11
I572
sS'contours'
p12
(tsS'components'
p13
(tsS'anchors'
p14
(tsss."
AnchorPoint: "bot" 391 4 basechar 0
AnchorPoint: "top" 247 1052 basechar 0
LayerCount: 2
Fore
SplineSet
416 0 m 2
 551 0 l 1
 551 93 l 1
 438 93 l 2
 344 93 308 133 308 241 c 2
 308 711 l 1
 527 711 l 1
 527 804 l 1
 308 804 l 1
 308 1130 l 1
 179 1080 l 1
 179 804 l 1
 41 804 l 1
 41 711 l 1
 178 711 l 1
 178 234 l 2
 178 70 264 0 416 0 c 2
EndSplineSet
EndChar

StartChar: thorn
Encoding: 254 254 400
Width: 1084
VWidth: 0
Flags: HW
PickledData: "(dp1
S'org.robofab.postScriptHintData'
p2
(dp3
sS'com.typemytype.robofont.layerData'
p4
(dp5
S'b'
(dp6
S'name'
p7
S'thorn'
p8
sS'lib'
p9
(dp10
sS'unicodes'
p11
(tsS'width'
p12
I1069
sS'contours'
p13
(tsS'components'
p14
(tsS'anchors'
p15
(tsss."
LayerCount: 2
Fore
SplineSet
27 -353 m 257
 313 -353 l 257
 315 1152 l 257
 34 1152 l 257
 34 1057 l 257
 183 1057 l 257
 183 -257 l 257
 27 -257 l 257
 27 -353 l 257
EndSplineSet
Refer: 296 -1 N 1 0 0 1 -19 21 2
EndChar

StartChar: three
Encoding: 51 51 401
Width: 1022
VWidth: 0
Flags: HW
PickledData: "(dp1
S'org.robofab.postScriptHintData'
p2
(dp3
sS'com.typemytype.robofont.layerData'
p4
(dp5
S'b'
(dp6
S'name'
p7
S'three'
p8
sS'lib'
p9
(dp10
sS'unicodes'
p11
(tsS'width'
p12
I964
sS'contours'
p13
(tsS'components'
p14
(tsS'anchors'
p15
(tsss."
LayerCount: 2
Fore
SplineSet
414 553 m 257
 663.117953472 553 779.108349144 482.496054352 779.108349144 326.440516406 c 0
 779.108349144 172.631986726 672.800127077 82 499 82 c 256
 356 82 251 150 196 273 c 257
 94 215 l 257
 148 69 300 -21 498 -21 c 256
 757 -21 912 114 912 337 c 256
 912 488 811 578 642 608 c 257
 792 637 881 732 881 871 c 256
 881 1056 730 1174 485 1174 c 256
 296 1174 151 1086 88 940 c 257
 191 891 l 257
 235 1005 340 1072 483 1072 c 256
 650 1072 753 993 753 870 c 256
 753 732 655 654 414 654 c 257
 414 553 l 257
EndSplineSet
EndChar

StartChar: threequarters
Encoding: 190 190 402
Width: 1904
VWidth: 0
Flags: HW
PickledData: "(dp1
S'org.robofab.postScriptHintData'
p2
(dp3
s."
LayerCount: 2
Fore
SplineSet
367 734 m 257
 532.552581466 734 615.083589118 681.573807944 615.083589118 574.622757802 c 0
 615.083589118 480.714565512 537.786126704 421 421 421 c 256
 320 421 243 469 209 548 c 257
 134 505 l 257
 170 407 280 344 420 344 c 256
 601 344 715 437 715 583 c 256
 715 687 641 754 524 776 c 257
 626 796 690 865 690 958 c 256
 690 1087 583 1174 419 1174 c 256
 291 1174 185 1114 138 1019 c 257
 214 981 l 257
 246 1053 321 1097 417 1097 c 256
 523 1097 593 1040 593 957 c 256
 593 865 526 810 366 810 c 257
 367 734 l 257
1424 0 m 257
 1729 0 l 257
 1729 71 l 257
 1627 71 l 257
 1627 248 l 257
 1744 248 l 257
 1744 317 l 257
 1627 317 l 257
 1627 812 l 257
 1535 812 l 257
 1176 324 l 257
 1189 248 l 257
 1538 248 l 257
 1538 71 l 257
 1424 71 l 257
 1424 0 l 257
590 -28 m 257
 682 -28 l 257
 1484 1208 l 257
 1395 1208 l 257
 590 -28 l 257
1261 317 m 257
 1538 697 l 257
 1538 317 l 257
 1261 317 l 257
EndSplineSet
EndChar

StartChar: threesuperior
Encoding: 179 179 403
Width: 971
VWidth: 0
Flags: HW
PickledData: "(dp1
S'org.robofab.postScriptHintData'
p2
(dp3
s."
LayerCount: 2
Fore
SplineSet
438 914 m 257
 613.340889988 914 686.084620497 861.587138494 686.084620497 755.501863865 c 0
 686.084620497 660.686818533 609.740158611 601 492 601 c 256
 391 601 315 649 281 728 c 257
 205 685 l 257
 241 587 352 524 492 524 c 256
 669 524 787 616 787 755 c 256
 787 849 732 931 593 956 c 257
 701 974 761 1049 761 1140 c 256
 761 1272 654 1354 490 1354 c 256
 362 1354 256 1294 210 1199 c 257
 286 1161 l 257
 318 1233 393 1277 489 1277 c 256
 595 1277 665 1220 665 1137 c 256
 665 1045 597 990 438 990 c 257
 438 914 l 257
EndSplineSet
EndChar

StartChar: tilde
Encoding: 732 732 404
Width: 544
VWidth: 0
Flags: HW
PickledData: "(dp1
S'org.robofab.postScriptHintData'
p2
(dp3
sS'com.typemytype.robofont.layerData'
p4
(dp5
S'b'
(dp6
S'name'
p7
S'tilde'
p8
sS'lib'
p9
(dp10
sS'unicodes'
p11
(tsS'width'
p12
I429
sS'contours'
p13
(tsS'components'
p14
(tsS'anchors'
p15
(tsss."
AnchorPoint: "top" 279 797 mark 0
LayerCount: 2
Fore
SplineSet
403 923 m 256
 403.602730352 922.993227749 404.202938217 922.989849388 404.800632915 922.989849388 c 0
 492.459366493 922.989849388 526.06095026 995.656908361 535 1092 c 257
 481 1092 l 257
 468 1034 447 1019 409 1019 c 256
 347 1019 235 1097 158 1097 c 256
 81 1097 31 1043 20 928 c 257
 76 928 l 257
 87 982 105 1000 140 1000 c 256
 208 1000 311 923 403 923 c 256
EndSplineSet
EndChar

StartChar: trademark
Encoding: 8482 8482 405
Width: 1720
VWidth: 0
Flags: HW
PickledData: "(dp1
S'org.robofab.postScriptHintData'
p2
(dp3
sS'com.typemytype.robofont.layerData'
p4
(dp5
S'b'
(dp6
S'name'
p7
S'trademark'
p8
sS'lib'
p9
(dp10
sS'unicodes'
p11
(tsS'width'
p12
I1581
sS'contours'
p13
(tsS'components'
p14
(tsS'anchors'
p15
(tsss."
LayerCount: 2
Fore
SplineSet
799 529 m 257
 1026 529 l 257
 1026 597 l 257
 948 597 l 257
 948 1026 l 257
 1164 553 l 257
 1192 553 l 257
 1399 1025 l 257
 1399 597 l 257
 1323 597 l 257
 1323 529 l 257
 1561 529 l 257
 1561 597 l 257
 1483 597 l 257
 1483 1084 l 257
 1561 1084 l 257
 1561 1152 l 257
 1373 1152 l 257
 1179 697 l 257
 981 1152 l 257
 799 1152 l 257
 799 1084 l 257
 877 1084 l 257
 877 597 l 257
 799 597 l 257
 799 529 l 257
287 529 m 257
 545 529 l 257
 545 596 l 257
 460 596 l 257
 460 1082 l 257
 618 1082 l 257
 618 922 l 257
 690 922 l 257
 690 1152 l 257
 144 1152 l 257
 144 922 l 257
 216 922 l 257
 216 1082 l 257
 373 1082 l 257
 373 596 l 257
 287 596 l 257
 287 529 l 257
EndSplineSet
EndChar

StartChar: two
Encoding: 50 50 406
Width: 1003
VWidth: 0
Flags: HW
PickledData: "(dp1
S'org.robofab.postScriptHintData'
p2
(dp3
sS'com.typemytype.robofont.layerData'
p4
(dp5
S'b'
(dp6
S'name'
p7
S'two'
p8
sS'lib'
p9
(dp10
sS'unicodes'
p11
(tsS'width'
p12
I964
sS'contours'
p13
(tsS'components'
p14
(tsS'anchors'
p15
(tsss."
LayerCount: 2
Fore
SplineSet
128 0 m 257
 876 0 l 257
 875 315 l 257
 768 315 l 257
 768 103 l 257
 284 103 l 257
 584 402 l 258
 736 554 870 691 870 842 c 256
 870 1044 736 1174 501 1174 c 256
 273 1174 130 1041 130 839 c 256
 130 799 138 752 152 706 c 257
 267 706 l 257
 257 753 251 794 251 825 c 256
 251 980 349 1066 502 1066 c 256
 664.262895717 1066 740.062705125 966.710568044 740.062705125 835.679533824 c 0
 740.062705125 733.757784506 636.087831662 619.087831662 501 484 c 257
 128 105 l 257
 128 0 l 257
EndSplineSet
EndChar

StartChar: twosuperior
Encoding: 178 178 407
Width: 941
VWidth: 0
Flags: HW
PickledData: "(dp1
S'org.robofab.postScriptHintData'
p2
(dp3
sS'com.typemytype.robofont.layerData'
p4
(dp5
S'b'
(dp6
S'name'
p7
S'uni00B2'
p8
sS'lib'
p9
(dp10
sS'unicodes'
p11
(tsS'width'
p12
I897
sS'contours'
p13
(tsS'components'
p14
(tsS'anchors'
p15
(tsss."
LayerCount: 2
Fore
SplineSet
202 615 m 257
 202 537 l 257
 740 537 l 257
 739 763 l 257
 658 763 l 257
 658 614 l 257
 319 614 l 257
 535 824 l 258
 632 919 726 1008 726 1125 c 256
 726 1269 623 1354 461 1354 c 256
 290 1354 195 1249 195 1110 c 256
 195 1080 200 1049 209 1017 c 257
 295 1017 l 257
 287 1046 284 1074 284 1099 c 256
 284 1203 348 1273 461 1273 c 256
 573.621797063 1273 630.010888282 1210.55200445 630.010888282 1123.17218229 c 0
 630.010888282 1040.05426786 562.360669596 975.353404478 475 887 c 258
 202 615 l 257
EndSplineSet
EndChar

StartChar: u
Encoding: 117 117 408
Width: 1041
VWidth: 0
Flags: HW
PickledData: "(dp1
S'org.robofab.postScriptHintData'
p2
(dp3
sS'com.typemytype.robofont.layerData'
p4
(dp5
S'b'
(dp6
S'name'
p7
S'u'
sS'lib'
p8
(dp9
sS'unicodes'
p10
(tsS'width'
p11
I1025
sS'contours'
p12
(tsS'components'
p13
(tsS'anchors'
p14
(tsss."
AnchorPoint: "top" 490 804 basechar 0
LayerCount: 2
Fore
SplineSet
429 -20 m 0
 539 -20 640 25 735 98 c 1
 740 0 l 1
 1013 0 l 1
 1013 93 l 1
 863 93 l 1
 863 804 l 1
 588 804 l 1
 588 711 l 1
 734 711 l 1
 734 198 l 1
 651 127 563 82 457 82 c 0
 345 82 296 154 296 253 c 2
 296 804 l 1
 25 804 l 1
 25 711 l 1
 167 711 l 1
 167 240 l 2
 167 108 235 -20 429 -20 c 0
EndSplineSet
EndChar

StartChar: uc_main_stem
Encoding: 65558 -1 411
Width: 716
VWidth: 0
Flags: HW
PickledData: "(dp1
S'org.robofab.postScriptHintData'
p2
(dp3
sS'com.schriftgestaltung.Glyphs.Export'
p4
I00
sS'com.typemytype.robofont.layerData'
p5
(dp6
S'b'
(dp7
S'name'
p8
S'uc_main_stem'
p9
sS'lib'
p10
(dp11
sS'unicodes'
p12
(tsS'width'
p13
I626
sS'contours'
p14
(tsS'components'
p15
(tsS'anchors'
p16
(tsss."
LayerCount: 2
Fore
SplineSet
122 0 m 257
 591 0 l 257
 591 93 l 257
 428 93 l 257
 428 1059 l 257
 591 1059 l 257
 591 1152 l 257
 122 1152 l 257
 122 1059 l 257
 286 1059 l 257
 286 93 l 257
 122 93 l 257
 122 0 l 257
EndSplineSet
EndChar

StartChar: underscore
Encoding: 95 95 417
Width: 1058
VWidth: 0
Flags: HW
PickledData: "(dp1
S'org.robofab.postScriptHintData'
p2
(dp3
sS'com.typemytype.robofont.layerData'
p4
(dp5
S'b'
(dp6
S'name'
p7
S'underscore'
p8
sS'lib'
p9
(dp10
sS'unicodes'
p11
(tsS'width'
p12
I1126
sS'contours'
p13
(tsS'components'
p14
(tsS'anchors'
p15
(tsss."
LayerCount: 2
Fore
SplineSet
119 -154 m 257
 939 -154 l 257
 939 -79 l 257
 119 -79 l 257
 119 -154 l 257
EndSplineSet
EndChar

StartChar: uni00B5
Encoding: 181 181 424
Width: 1041
VWidth: 0
Flags: HW
PickledData: "(dp1
S'org.robofab.postScriptHintData'
p2
(dp3
sS'com.typemytype.robofont.layerData'
p4
(dp5
S'b'
(dp6
S'name'
p7
S'uni00B5'
p8
sS'lib'
p9
(dp10
sS'unicodes'
p11
(tsS'width'
p12
I1025
sS'contours'
p13
(tsS'components'
p14
(tsS'anchors'
p15
(tsss."
LayerCount: 2
Fore
SplineSet
167 -270 m 257
 296 -270 l 257
 296 429 l 257
 167 429 l 257
 167 -270 l 257
EndSplineSet
Refer: 408 117 N 1 0 0 1 0 0 2
EndChar

StartChar: uni0237
Encoding: 567 567 490
Width: 398
VWidth: 0
Flags: HW
PickledData: "(dp1
S'org.robofab.postScriptHintData'
p2
(dp3
sS'com.typemytype.robofont.layerData'
p4
(dp5
S'b'
(dp6
S'name'
p7
S'uni0237'
p8
sS'lib'
p9
(dp10
sS'unicodes'
p11
(tsS'width'
p12
I398
sS'contours'
p13
(tsS'components'
p14
(tsS'anchors'
p15
(tsss."
AnchorPoint: "top" 228 804 basechar 0
LayerCount: 2
Fore
SplineSet
23 -240 m 257
 95 -240 l 258
 250.204081633 -240 266.04123282 -151.9454394 266.04123282 -82.2231893174 c 0
 266.04123282 -64.3456892961 265 -47.6734693878 265 -34 c 258
 265 804 l 257
 48 804 l 257
 48 770 l 257
 221 770 l 257
 221 -39 l 258
 221 -49.076433121 221.055661487 -58.6996227027 221.055661487 -67.8702778087 c 0
 221.055661487 -161.541969248 215.248407643 -208 85 -208 c 258
 23 -208 l 257
 23 -240 l 257
EndSplineSet
EndChar

StartChar: uni02C9
Encoding: 713 713 491
Width: 600
VWidth: 0
Flags: HW
PickledData: "(dp1
S'org.robofab.postScriptHintData'
p2
(dp3
s."
LayerCount: 2
Fore
SplineSet
89 931 m 257
 507 931 l 257
 507 1019 l 257
 89 1019 l 257
 89 931 l 257
EndSplineSet
EndChar

StartChar: uni0307
Encoding: 775 775 492
Width: 450
VWidth: 0
Flags: HW
PickledData: "(dp1
S'org.robofab.postScriptHintData'
p2
(dp3
sS'com.typemytype.robofont.layerData'
p4
(dp5
S'b'
(dp6
S'name'
p7
S'uni0307'
p8
sS'lib'
p9
(dp10
sS'unicodes'
p11
(tsS'width'
p12
I342
sS'contours'
p13
(tsS'components'
p14
(tsS'anchors'
p15
(tsss."
AnchorPoint: "top" 227 805 mark 0
LayerCount: 2
Fore
SplineSet
225 949 m 256
 282 949 314 991 314 1034 c 256
 314 1082 278 1118 225 1118 c 256
 172 1118 136 1079 136 1034 c 256
 136 990 173 949 225 949 c 256
EndSplineSet
EndChar

StartChar: uni0311
Encoding: 785 785 493
Width: 962
VWidth: 0
Flags: HW
PickledData: "(dp1
S'org.robofab.postScriptHintData'
p2
(dp3
sS'com.typemytype.robofont.layerData'
p4
(dp5
S'b'
(dp6
S'name'
p7
S'uni0311'
p8
sS'lib'
p9
(dp10
sS'unicodes'
p11
(tsS'width'
p12
I962
sS'contours'
p13
(tsS'components'
p14
(tsS'anchors'
p15
(tsss."
AnchorPoint: "top" 488 804 mark 0
LayerCount: 2
Fore
SplineSet
352 934 m 257
 382 934 l 257
 400 996 434 1026 487 1026 c 256
 539 1026 573 996 591 934 c 257
 619 934 l 257
 604.178520842 1017.9883819 562.019553487 1059.01785377 489.62894071 1059.01785377 c 0
 488.757014704 1059.01785377 487.880702819 1059.01190139 487 1059 c 256
 486.14309996 1059.01190139 485.290165925 1059.01785377 484.441192839 1059.01785377 c 0
 413.956218805 1059.01785377 370.7738736 1017.9883819 352 934 c 257
EndSplineSet
EndChar

StartChar: uni2113
Encoding: 8467 8467 512
Width: 629
VWidth: 0
Flags: HW
PickledData: "(dp1
S'org.robofab.postScriptHintData'
p2
(dp3
s."
LayerCount: 2
Fore
SplineSet
481 -10 m 257
 498 81 l 257
 364.495618925 81 311.515778942 97.3667766449 311.515778942 205.318552198 c 0
 311.515778942 230.785941041 314.464406371 261.350552524 320 298 c 258
 464 1215 l 257
 170 1215 l 257
 159 1120 l 257
 325 1120 l 257
 188 265 l 258
 183.364499538 236.259897134 181.044426111 210.273749152 181.044426111 186.820852482 c 0
 181.044426111 36.0160764289 276.971001812 -10.0479956974 470.059450726 -10.0479956974 c 0
 473.672282144 -10.0479956974 477.319129204 -10.0318690112 481 -10 c 257
EndSplineSet
EndChar

StartChar: uni2126
Encoding: 8486 8486 513
Width: 1426
VWidth: 0
Flags: HW
PickledData: "(dp1
S'org.robofab.postScriptHintData'
p2
(dp3
s."
LayerCount: 2
Fore
SplineSet
141 0 m 257
 598 0 l 257
 598 92 l 257
 379 204 276 423 276 623 c 256
 276 856 423 1066 713 1066 c 256
 1002 1066 1149 855 1149 622 c 256
 1149 423 1047 204 828 92 c 257
 828 0 l 257
 1285 0 l 257
 1285 94 l 257
 983 94 l 257
 1195 221 1293 428 1293 624 c 256
 1293 907 1085 1174 713 1174 c 256
 343 1174 133 906 133 623 c 256
 133 427 232 221 443 94 c 257
 141 94 l 257
 141 0 l 257
EndSplineSet
EndChar

StartChar: uni2206
Encoding: 8710 8710 514
Width: 947
VWidth: 0
Flags: HW
PickledData: "(dp1
S'org.robofab.postScriptHintData'
p2
(dp3
sS'com.typemytype.robofont.layerData'
p4
(dp5
S'b'
(dp6
S'name'
p7
S'uni2206'
p8
sS'lib'
p9
(dp10
sS'unicodes'
p11
(tsS'width'
p12
I679
sS'contours'
p13
(tsS'components'
p14
(tsS'anchors'
p15
(tsss."
LayerCount: 2
Fore
SplineSet
73 0 m 257
 883 0 l 257
 883 86 l 257
 550 1090 l 257
 413 1090 l 257
 73 80 l 257
 73 0 l 257
166 93 m 257
 166 93 438 928 448 972 c 257
 458 927 728 93 728 93 c 257
 166 93 l 257
EndSplineSet
EndChar

StartChar: uniFB00
Encoding: 65559 -1 517
Width: 1344
VWidth: 0
Flags: HW
PickledData: "(dp1
S'org.robofab.postScriptHintData'
p2
(dp3
s."
LayerCount: 2
Fore
SplineSet
1183 711 m 257
 1183 804 l 257
 977 804 l 257
 977 988 l 258
 977 1080 1019 1121 1072 1121 c 256
 1129 1121 1165 1089 1176 1009 c 257
 1275 1038 l 257
 1264 1177 1163 1215 1068 1215 c 256
 930 1215 847 1128 847 987 c 258
 847 804 l 257
 379 804 l 257
 379 987 l 258
 379 1080 414 1122 476 1122 c 256
 541 1122 566 1079 576 1009 c 257
 676 1038 l 257
 667 1167 576 1215 471 1215 c 256
 319 1215 247 1126 247 988 c 258
 247 804 l 257
 91 804 l 257
 91 711 l 257
 247 711 l 257
 247 94 l 257
 96 94 l 257
 96 0 l 257
 555 0 l 257
 555 94 l 257
 379 94 l 257
 379 711 l 257
 847 711 l 257
 847 94 l 257
 703 94 l 257
 703 0 l 257
 1165 0 l 257
 1165 94 l 257
 977 94 l 257
 977 711 l 257
 1183 711 l 257
EndSplineSet
EndChar

StartChar: uniFB03
Encoding: 65560 -1 518
Width: 1862
VWidth: 0
Flags: HW
PickledData: "(dp1
S'org.robofab.postScriptHintData'
p2
(dp3
sS'com.typemytype.robofont.layerData'
p4
(dp5
S'b'
(dp6
S'name'
p7
S'uniFB03'
p8
sS'lib'
p9
(dp10
sS'unicodes'
p11
(tsS'width'
p12
I1855
sS'contours'
p13
(tsS'components'
p14
(tsS'anchors'
p15
(tsss."
LayerCount: 2
Fore
SplineSet
136 0 m 257
 603 0 l 257
 603 94 l 257
 420 94 l 257
 420 711 l 257
 829 711 l 257
 829 804 l 257
 420 804 l 257
 420 988 l 258
 420 1085 513 1140 643 1140 c 256
 733 1140 842 1105 929 1041 c 257
 1014 1063 l 257
 919 1171 766 1227 629 1227 c 256
 441 1227 290 1140 290 987 c 258
 290 804 l 257
 132 804 l 257
 132 711 l 257
 290 711 l 257
 290 94 l 257
 136 94 l 257
 136 0 l 257
EndSplineSet
Refer: 243 64257 N 1 0 0 1 648 0 2
EndChar

StartChar: v
Encoding: 118 118 523
Width: 1053
VWidth: 0
Flags: HW
PickledData: "(dp1
S'org.robofab.postScriptHintData'
p2
(dp3
sS'com.typemytype.robofont.layerData'
p4
(dp5
S'b'
(dp6
S'name'
p7
S'v'
sS'lib'
p8
(dp9
sS'unicodes'
p10
(tsS'width'
p11
I1054
sS'contours'
p12
(tsS'components'
p13
(tsS'anchors'
p14
(tsss."
LayerCount: 2
Fore
SplineSet
468 0 m 1
 588 0 l 1
 905 711 l 1
 1038 711 l 1
 1038 804 l 1
 639 804 l 1
 639 711 l 1
 778 711 l 1
 537 130 l 1
 293 711 l 1
 434 711 l 1
 434 804 l 1
 15 804 l 1
 15 711 l 1
 154 711 l 1
 468 0 l 1
EndSplineSet
EndChar

StartChar: w
Encoding: 119 119 524
Width: 1486
VWidth: 0
Flags: HW
PickledData: "(dp1
S'org.robofab.postScriptHintData'
p2
(dp3
sS'com.typemytype.robofont.layerData'
p4
(dp5
S'b'
(dp6
S'name'
p7
S'w'
sS'lib'
p8
(dp9
sS'unicodes'
p10
(tsS'width'
p11
I1574
sS'contours'
p12
(tsS'components'
p13
(tsS'anchors'
p14
(tsss."
AnchorPoint: "top" 748 804 basechar 0
LayerCount: 2
Fore
SplineSet
393 0 m 1
 523 0 l 1
 743 603 l 1
 964 0 l 1
 1093 0 l 1
 1340 711 l 1
 1457 711 l 1
 1457 804 l 1
 1103 804 l 1
 1103 711 l 1
 1221 711 l 1
 1029 124 l 1
 815 711 l 1
 938 711 l 1
 938 804 l 1
 552 804 l 1
 552 711 l 1
 674 711 l 1
 466 125 l 1
 262 711 l 1
 382 711 l 1
 382 804 l 1
 21 804 l 1
 21 711 l 1
 133 711 l 1
 393 0 l 1
EndSplineSet
EndChar

StartChar: x
Encoding: 120 120 529
Width: 1044
VWidth: 0
Flags: HW
PickledData: "(dp1
S'org.robofab.postScriptHintData'
p2
(dp3
sS'com.typemytype.robofont.layerData'
p4
(dp5
S'b'
(dp6
S'name'
p7
S'x'
sS'lib'
p8
(dp9
sS'unicodes'
p10
(tsS'width'
p11
I1088
sS'contours'
p12
(tsS'components'
p13
(tsS'anchors'
p14
(tsss."
LayerCount: 2
Fore
SplineSet
49 0 m 1
 434 0 l 1
 434 94 l 1
 301 94 l 1
 518 349 l 1
 743 94 l 1
 598 94 l 1
 598 0 l 1
 1003 0 l 1
 1003 94 l 1
 874 94 l 1
 593 416 l 1
 848 711 l 1
 998 711 l 1
 998 804 l 1
 599 804 l 1
 599 711 l 1
 728 711 l 1
 528 475 l 1
 325 711 l 1
 455 711 l 1
 455 804 l 1
 58 804 l 1
 58 711 l 1
 193 711 l 1
 454 413 l 1
 178 94 l 1
 49 94 l 1
 49 0 l 1
EndSplineSet
EndChar

StartChar: y
Encoding: 121 121 530
Width: 1064
VWidth: 0
Flags: HW
PickledData: "(dp1
S'org.robofab.postScriptHintData'
p2
(dp3
sS'com.typemytype.robofont.layerData'
p4
(dp5
S'b'
(dp6
S'name'
p7
S'y'
sS'lib'
p8
(dp9
sS'unicodes'
p10
(tsS'width'
p11
I1072
sS'contours'
p12
(tsS'components'
p13
(tsS'anchors'
p14
(tsss."
AnchorPoint: "top" 552 804 basechar 0
LayerCount: 2
Fore
SplineSet
213 -308 m 1
 314 -308 l 2
 506 -308 541 -231 610 -59 c 1
 925 711 l 1
 1056 711 l 1
 1056 804 l 1
 649 804 l 1
 649 711 l 1
 796 711 l 1
 564 134 l 1
 309 711 l 1
 434 711 l 1
 434 804 l 1
 24 804 l 1
 24 711 l 1
 177 711 l 1
 479 53 l 1
 536 53 l 1
 489 -71 l 1
 447 -188 410 -201 302 -201 c 2
 213 -201 l 1
 213 -308 l 1
EndSplineSet
EndChar

StartChar: yen
Encoding: 165 165 534
Width: 1385
VWidth: 0
Flags: HW
PickledData: "(dp1
S'org.robofab.postScriptHintData'
p2
(dp3
sS'com.typemytype.robofont.layerData'
p4
(dp5
S'b'
(dp6
S'name'
p7
S'yen'
p8
sS'lib'
p9
(dp10
sS'unicodes'
p11
(tsS'width'
p12
I1477
sS'contours'
p13
(tsS'components'
p14
(tsS'anchors'
p15
(tsss."
LayerCount: 2
Fore
SplineSet
306 252 m 257
 983 252 l 257
 983 332 l 257
 306 332 l 257
 306 252 l 257
306 440 m 257
 983 440 l 257
 983 520 l 257
 306 520 l 257
 306 440 l 257
EndSplineSet
Refer: 140 89 N 1 0 0 1 0 0 2
EndChar

StartChar: z
Encoding: 122 122 536
Width: 908
VWidth: 0
Flags: HW
PickledData: "(dp1
S'org.robofab.postScriptHintData'
p2
(dp3
sS'com.typemytype.robofont.layerData'
p4
(dp5
S'b'
(dp6
S'name'
p7
S'z'
sS'lib'
p8
(dp9
sS'unicodes'
p10
(tsS'width'
p11
I955
sS'contours'
p12
(tsS'components'
p13
(tsS'anchors'
p14
(tsss."
AnchorPoint: "top" 478 804 basechar 0
LayerCount: 2
Fore
SplineSet
114 0 m 1
 805 0 l 1
 805 282 l 1
 703 282 l 1
 703 89 l 1
 265 89 l 1
 793 705 l 1
 793 804 l 1
 127 804 l 1
 127 541 l 1
 229 541 l 1
 229 714 l 1
 645 714 l 1
 114 95 l 1
 114 0 l 1
EndSplineSet
EndChar

StartChar: zero
Encoding: 48 48 540
Width: 1096
VWidth: 0
Flags: HW
PickledData: "(dp1
S'org.robofab.postScriptHintData'
p2
(dp3
sS'com.typemytype.robofont.layerData'
p4
(dp5
S'b'
(dp6
S'name'
p7
S'zero'
p8
sS'lib'
p9
(dp10
sS'unicodes'
p11
(tsS'width'
p12
I1090
sS'contours'
p13
(tsS'components'
p14
(tsS'anchors'
p15
(tsss."
LayerCount: 2
Fore
SplineSet
547 72 m 256
 546.450756921 71.997109247 545.902249209 71.9956641603 545.354477204 71.9956641603 c 0
 356.411138736 71.9956641603 255 243.927931729 255 564 c 256
 255 899 357 1080 547 1080 c 256
 738 1080 841 900 841 564 c 256
 841 244 738 72 547 72 c 256
547 -22 m 256
 827 -22 972 184 972 564 c 256
 972 945 827 1174 547 1174 c 256
 268 1174 124 944 124 564 c 256
 124 184 268 -22 547 -22 c 256
EndSplineSet
EndChar
